<svg height="450.711" viewBox="0 0 1102.62 338.034" width="1470.16" xmlns="http://www.w3.org/2000/svg" xmlns:xlink="http://www.w3.org/1999/xlink"><defs><style>*{stroke-linecap:butt;stroke-linejoin:round}</style></defs><g id="figure_1"><path d="M0 338.034h1102.62V0H0z" fill="#fff" id="patch_1"/><g id="axes_1"><path d="M49.807 295.074h892.8v-271.8h-892.8z" fill="#fff" id="patch_2"/><g id="matplotlib.axis_1"><g id="xtick_1"><path clip-path="url(#pee681d32a3)" d="M49.807 295.074v-271.8" fill="none" stroke="#b0b0b0" stroke-dasharray="3.7,1.6" id="line2d_1"/><g id="line2d_2"><defs><path d="M0 0v6" id="m835dea127e" stroke="#000" stroke-width="1.25"/></defs><use x="49.807" xlink:href="#m835dea127e" y="295.074" stroke="#000" stroke-width="1.25"/></g><g id="text_1"><defs><path d="M31.781 66.406q-7.61 0-11.453-7.5Q16.5 51.422 16.5 36.375q0-14.984 3.828-22.484 3.844-7.5 11.453-7.5 7.672 0 11.5 7.5 3.844 7.5 3.844 22.484 0 15.047-3.844 22.531-3.828 7.5-11.5 7.5zm0 7.813q12.266 0 18.735-9.703 6.468-9.688 6.468-28.141 0-18.406-6.468-28.11-6.47-9.687-18.735-9.687-12.25 0-18.718 9.688-6.47 9.703-6.47 28.109 0 18.453 6.47 28.14Q19.53 74.22 31.78 74.22z" id="DejaVuSans-30"/></defs><use xlink:href="#DejaVuSans-30" transform="matrix(.11 0 0 -.11 46.308 312.932)"/></g></g><g id="xtick_2"><path clip-path="url(#pee681d32a3)" d="M228.367 295.074v-271.8" fill="none" stroke="#b0b0b0" stroke-dasharray="3.7,1.6" id="line2d_3"/><use x="228.367" xlink:href="#m835dea127e" y="295.074" stroke="#000" stroke-width="1.25" id="line2d_4"/><g id="text_2"><defs><path d="M10.797 72.906h38.719v-8.312H19.828v-17.86q2.14.735 4.281 1.094 2.157.36 4.313.36 12.203 0 19.328-6.688 7.14-6.688 7.14-18.11 0-11.765-7.328-18.296-7.328-6.516-20.656-6.516-4.593 0-9.36.781-4.75.782-9.827 2.344v9.922q4.39-2.39 9.078-3.563 4.687-1.171 9.906-1.171 8.453 0 13.375 4.437 4.938 4.438 4.938 12.063 0 7.609-4.938 12.047-4.922 4.453-13.375 4.453-3.953 0-7.89-.875-3.922-.875-8.016-2.735z" id="DejaVuSans-35"/></defs><use xlink:href="#DejaVuSans-35" transform="matrix(.11 0 0 -.11 224.868 312.932)"/></g></g><g id="xtick_3"><path clip-path="url(#pee681d32a3)" d="M406.927 295.074v-271.8" fill="none" stroke="#b0b0b0" stroke-dasharray="3.7,1.6" id="line2d_5"/><use x="406.927" xlink:href="#m835dea127e" y="295.074" stroke="#000" stroke-width="1.25" id="line2d_6"/><g id="text_3"><defs><path d="M12.406 8.297h16.11v55.625l-17.532-3.516v8.985l17.438 3.515h9.86V8.296H54.39V0H12.406z" id="DejaVuSans-31"/></defs><g transform="matrix(.11 0 0 -.11 399.928 312.932)"><use xlink:href="#DejaVuSans-31"/><use x="63.623" xlink:href="#DejaVuSans-30"/></g></g></g><g id="xtick_4"><path clip-path="url(#pee681d32a3)" d="M585.487 295.074v-271.8" fill="none" stroke="#b0b0b0" stroke-dasharray="3.7,1.6" id="line2d_7"/><use x="585.487" xlink:href="#m835dea127e" y="295.074" stroke="#000" stroke-width="1.25" id="line2d_8"/><g transform="matrix(.11 0 0 -.11 578.488 312.932)" id="text_4"><use xlink:href="#DejaVuSans-31"/><use x="63.623" xlink:href="#DejaVuSans-35"/></g></g><g id="xtick_5"><path clip-path="url(#pee681d32a3)" d="M764.047 295.074v-271.8" fill="none" stroke="#b0b0b0" stroke-dasharray="3.7,1.6" id="line2d_9"/><use x="764.047" xlink:href="#m835dea127e" y="295.074" stroke="#000" stroke-width="1.25" id="line2d_10"/><g id="text_5"><defs><path d="M19.188 8.297h34.421V0H7.33v8.297q5.609 5.812 15.296 15.594 9.703 9.797 12.188 12.64 4.734 5.313 6.609 9 1.89 3.688 1.89 7.25 0 5.813-4.078 9.469-4.078 3.672-10.625 3.672-4.64 0-9.797-1.61-5.14-1.609-11-4.89v9.969Q13.767 71.78 18.938 73q5.188 1.219 9.485 1.219 11.328 0 18.062-5.672 6.735-5.656 6.735-15.125 0-4.5-1.688-8.531-1.672-4.016-6.125-9.485-1.218-1.422-7.765-8.187-6.532-6.766-18.453-18.922z" id="DejaVuSans-32"/></defs><g transform="matrix(.11 0 0 -.11 757.048 312.932)"><use xlink:href="#DejaVuSans-32"/><use x="63.623" xlink:href="#DejaVuSans-30"/></g></g></g><g id="xtick_6"><path clip-path="url(#pee681d32a3)" d="M942.607 295.074v-271.8" fill="none" stroke="#b0b0b0" stroke-dasharray="3.7,1.6" id="line2d_11"/><use x="942.607" xlink:href="#m835dea127e" y="295.074" stroke="#000" stroke-width="1.25" id="line2d_12"/><g transform="matrix(.11 0 0 -.11 935.608 312.932)" id="text_6"><use xlink:href="#DejaVuSans-32"/><use x="63.623" xlink:href="#DejaVuSans-35"/></g></g><g id="text_7"><defs><path d="M59.516 10.406v19.578h-16.11v8.11h25.875V6.78Q63.578 2.734 56.687.656 49.813-1.422 42-1.422q-17.094 0-26.75 9.985-9.64 10-9.64 27.812 0 17.875 9.64 27.86 9.656 9.984 26.75 9.984 7.125 0 13.547-1.766 6.422-1.75 11.844-5.172v-10.5q-5.47 4.64-11.625 6.985-6.157 2.343-12.938 2.343-13.39 0-20.11-7.468-6.702-7.47-6.702-22.266 0-14.75 6.703-22.219 6.718-7.469 20.11-7.469 5.218 0 9.312.907 4.109.906 7.375 2.812z" id="DejaVuSans-47"/><path d="M34.281 27.484q-10.89 0-15.093-2.484-4.204-2.484-4.204-8.5 0-4.781 3.157-7.594 3.156-2.797 8.562-2.797 7.485 0 12 5.297 4.516 5.297 4.516 14.078v2zm17.922 3.72V0H43.22v8.297Q40.14 3.328 35.547.953q-4.594-2.375-11.234-2.375-8.391 0-13.36 4.719Q6 8.016 6 15.922q0 9.219 6.172 13.906 6.187 4.688 18.437 4.688h12.61v.89q0 6.203-4.078 9.594-4.078 3.39-11.453 3.39-4.688 0-9.141-1.124-4.438-1.125-8.531-3.375v8.312q4.921 1.906 9.562 2.844 4.64.953 9.031.953 11.875 0 17.735-6.156 5.86-6.14 5.86-18.64z" id="DejaVuSans-61"/><path d="M52 44.188q3.375 6.062 8.063 8.937Q64.75 56 71.093 56q8.548 0 13.188-5.984 4.64-5.97 4.64-17V0h-9.03v32.719q0 7.86-2.797 11.656-2.781 3.813-8.485 3.813-6.984 0-11.046-4.641-4.047-4.625-4.047-12.64V0h-9.032v32.719q0 7.906-2.78 11.687-2.782 3.782-8.595 3.782-6.89 0-10.953-4.657-4.047-4.656-4.047-12.625V0H9.08v54.688h9.03v-8.5q3.078 5.03 7.375 7.421Q29.781 56 35.687 56q5.97 0 10.141-3.031Q50 49.953 52 44.187z" id="DejaVuSans-6d"/><path d="M56.203 29.594v-4.39H14.891q.593-9.282 5.593-14.142 5-4.859 13.938-4.859 5.172 0 10.031 1.266 4.86 1.265 9.656 3.812v-8.5Q49.266.734 44.187-.344 39.11-1.422 33.892-1.422q-13.094 0-20.735 7.61-7.64 7.625-7.64 20.625 0 13.421 7.25 21.296Q20.016 56 32.328 56q11.031 0 17.453-7.11 6.422-7.093 6.422-19.296zm-8.984 2.64q-.094 7.36-4.125 11.75-4.032 4.407-10.672 4.407-7.516 0-12.031-4.25-4.516-4.25-5.203-11.97z" id="DejaVuSans-65"/><path d="M-.297 72.906h61.672v-8.312H35.5V0h-9.906v64.594H-.296z" id="DejaVuSans-54"/><path d="M9.422 54.688h8.984V0H9.422zm0 21.296h8.984v-11.39H9.422z" id="DejaVuSans-69"/><path d="M31 75.875q-6.531-11.219-9.719-22.219-3.172-10.984-3.172-22.265 0-11.266 3.203-22.328Q24.517-2 31-13.188h-7.813Q15.875-1.704 12.235 9.375q-3.64 11.078-3.64 22.016 0 10.89 3.61 21.922 3.624 11.046 10.983 22.562z" id="DejaVuSans-28"/><path d="M9.813 72.906h14.703l18.593-49.61 18.703 49.61h14.704V0H66.89v64.016l-18.797-50h-9.907l-18.796 50V0H9.813z" id="DejaVuSans-4d"/><path d="M54.89 33.016V0h-8.984v32.719q0 7.765-3.031 11.61-3.031 3.858-9.078 3.858-7.281 0-11.484-4.64-4.204-4.625-4.204-12.64V0H9.08v54.688h9.03v-8.5q3.235 4.937 7.594 7.374Q30.078 56 35.797 56q9.422 0 14.25-5.828 4.844-5.828 4.844-17.156z" id="DejaVuSans-6e"/><path d="M8.5 21.578v33.11h8.984V21.922q0-7.766 3.016-11.656 3.031-3.875 9.094-3.875 7.265 0 11.484 4.64 4.234 4.64 4.234 12.656v31h8.985V0h-8.984v8.406Q42.047 3.422 37.718 1q-4.313-2.422-10.032-2.422-9.421 0-14.312 5.86Q8.5 10.296 8.5 21.578zM31.11 56z" id="DejaVuSans-75"/><path d="M18.313 70.219V54.688h18.5v-6.985h-18.5V18.016q0-6.688 1.828-8.594 1.828-1.906 7.453-1.906h9.218V0h-9.218q-10.407 0-14.36 3.875-3.953 3.89-3.953 14.14v29.688H2.687v6.984h6.594V70.22z" id="DejaVuSans-74"/><path d="M44.281 53.078v-8.5q-3.797 1.953-7.906 2.922-4.094.984-8.5.984-6.688 0-10.031-2.047-3.344-2.046-3.344-6.156 0-3.125 2.39-4.906 2.391-1.781 9.626-3.39l3.078-.688q9.562-2.047 13.593-5.781 4.032-3.735 4.032-10.422 0-7.625-6.032-12.078-6.03-4.438-16.578-4.438-4.39 0-9.156.86Q10.688.296 5.422 2v9.281q4.984-2.594 9.812-3.89 4.829-1.282 9.579-1.282 6.343 0 9.75 2.172 3.421 2.172 3.421 6.125 0 3.656-2.468 5.61-2.453 1.953-10.813 3.765l-3.125.735q-8.344 1.75-12.062 5.39-3.704 3.64-3.704 9.985 0 7.718 5.47 11.906Q16.75 56 26.811 56q4.97 0 9.36-.734 4.406-.72 8.11-2.188z" id="DejaVuSans-73"/><path d="M8.016 75.875h7.812q7.313-11.516 10.953-22.563 3.64-11.03 3.64-21.921 0-10.938-3.64-22.016-3.64-11.078-10.953-22.563H8.016Q14.5-2 17.703 9.063q3.203 11.063 3.203 22.329 0 11.28-3.203 22.265-3.203 11-9.687 22.219z" id="DejaVuSans-29"/></defs><g transform="matrix(.12 0 0 -.12 431.366 328.338)"><use xlink:href="#DejaVuSans-47"/><use x="77.49" xlink:href="#DejaVuSans-61"/><use x="138.77" xlink:href="#DejaVuSans-6d"/><use x="236.182" xlink:href="#DejaVuSans-65"/><use x="297.705" xlink:href="#DejaVuSans-20"/><use x="329.492" xlink:href="#DejaVuSans-54"/><use x="390.529" xlink:href="#DejaVuSans-69"/><use x="418.313" xlink:href="#DejaVuSans-6d"/><use x="515.725" xlink:href="#DejaVuSans-65"/><use x="577.248" xlink:href="#DejaVuSans-20"/><use x="609.035" xlink:href="#DejaVuSans-28"/><use x="648.049" xlink:href="#DejaVuSans-4d"/><use x="734.328" xlink:href="#DejaVuSans-69"/><use x="762.111" xlink:href="#DejaVuSans-6e"/><use x="825.49" xlink:href="#DejaVuSans-75"/><use x="888.869" xlink:href="#DejaVuSans-74"/><use x="928.078" xlink:href="#DejaVuSans-65"/><use x="989.602" xlink:href="#DejaVuSans-73"/><use x="1041.701" xlink:href="#DejaVuSans-29"/></g></g></g><g id="matplotlib.axis_2"><g id="ytick_1"><path clip-path="url(#pee681d32a3)" d="M49.807 295.074h892.8" fill="none" stroke="#b0b0b0" stroke-dasharray="3.7,1.6" id="line2d_13"/><g id="line2d_14"><defs><path d="M0 0h-6" id="m1ef7f3c622" stroke="#000" stroke-width="1.25"/></defs><use x="49.807" xlink:href="#m1ef7f3c622" y="295.074" stroke="#000" stroke-width="1.25"/></g><g id="text_8"><defs><path d="M10.688 12.406H21V0H10.687z" id="DejaVuSans-2e"/></defs><g transform="matrix(.11 0 0 -.11 22.814 299.253)"><use xlink:href="#DejaVuSans-30"/><use x="63.623" xlink:href="#DejaVuSans-2e"/><use x="95.41" xlink:href="#DejaVuSans-30"/></g></g></g><g id="ytick_2"><path clip-path="url(#pee681d32a3)" d="M49.807 240.714h892.8" fill="none" stroke="#b0b0b0" stroke-dasharray="3.7,1.6" id="line2d_15"/><use x="49.807" xlink:href="#m1ef7f3c622" y="240.714" stroke="#000" stroke-width="1.25" id="line2d_16"/><g transform="matrix(.11 0 0 -.11 22.814 244.893)" id="text_9"><use xlink:href="#DejaVuSans-30"/><use x="63.623" xlink:href="#DejaVuSans-2e"/><use x="95.41" xlink:href="#DejaVuSans-32"/></g></g><g id="ytick_3"><path clip-path="url(#pee681d32a3)" d="M49.807 186.354h892.8" fill="none" stroke="#b0b0b0" stroke-dasharray="3.7,1.6" id="line2d_17"/><use x="49.807" xlink:href="#m1ef7f3c622" y="186.354" stroke="#000" stroke-width="1.25" id="line2d_18"/><g id="text_10"><defs><path d="M37.797 64.313L12.89 25.39h24.906zm-2.594 8.593H47.61V25.391h10.407v-8.203H47.609V0h-9.812v17.188H4.89v9.515z" id="DejaVuSans-34"/></defs><g transform="matrix(.11 0 0 -.11 22.814 190.533)"><use xlink:href="#DejaVuSans-30"/><use x="63.623" xlink:href="#DejaVuSans-2e"/><use x="95.41" xlink:href="#DejaVuSans-34"/></g></g></g><g id="ytick_4"><path clip-path="url(#pee681d32a3)" d="M49.807 131.994h892.8" fill="none" stroke="#b0b0b0" stroke-dasharray="3.7,1.6" id="line2d_19"/><use x="49.807" xlink:href="#m1ef7f3c622" y="131.994" stroke="#000" stroke-width="1.25" id="line2d_20"/><g id="text_11"><defs><path d="M33.016 40.375q-6.641 0-10.532-4.547-3.875-4.531-3.875-12.437 0-7.86 3.875-12.438 3.891-4.562 10.532-4.562 6.64 0 10.515 4.562 3.875 4.578 3.875 12.438 0 7.906-3.875 12.437-3.875 4.547-10.515 4.547zm19.578 30.922v-8.984q-3.719 1.75-7.5 2.671-3.782.938-7.5.938-9.766 0-14.922-6.594-5.14-6.594-5.875-19.922 2.875 4.25 7.219 6.516 4.359 2.266 9.578 2.266 10.984 0 17.36-6.672 6.374-6.657 6.374-18.125 0-11.235-6.64-18.032-6.641-6.78-17.672-6.78-12.657 0-19.344 9.687-6.688 9.703-6.688 28.109 0 17.281 8.204 27.563 8.203 10.28 22.015 10.28 3.719 0 7.5-.734t7.89-2.187z" id="DejaVuSans-36"/></defs><g transform="matrix(.11 0 0 -.11 22.814 136.173)"><use xlink:href="#DejaVuSans-30"/><use x="63.623" xlink:href="#DejaVuSans-2e"/><use x="95.41" xlink:href="#DejaVuSans-36"/></g></g></g><g id="ytick_5"><path clip-path="url(#pee681d32a3)" d="M49.807 77.634h892.8" fill="none" stroke="#b0b0b0" stroke-dasharray="3.7,1.6" id="line2d_21"/><use x="49.807" xlink:href="#m1ef7f3c622" y="77.634" stroke="#000" stroke-width="1.25" id="line2d_22"/><g id="text_12"><defs><path d="M31.781 34.625q-7.031 0-11.062-3.766-4.016-3.765-4.016-10.343 0-6.594 4.016-10.36Q24.75 6.391 31.78 6.391q7.032 0 11.078 3.78 4.063 3.798 4.063 10.345 0 6.578-4.031 10.343-4.016 3.766-11.11 3.766zm-9.86 4.188q-6.343 1.562-9.89 5.906Q8.5 49.079 8.5 55.329q0 8.733 6.219 13.812 6.234 5.078 17.062 5.078 10.89 0 17.094-5.078 6.203-5.079 6.203-13.813 0-6.25-3.547-10.61-3.531-4.343-9.828-5.906 7.125-1.656 11.094-6.5 3.984-4.828 3.984-11.796 0-10.61-6.468-16.282-6.47-5.656-18.532-5.656-12.047 0-18.531 5.656-6.469 5.672-6.469 16.282 0 6.968 4 11.797 4.016 4.843 11.14 6.5zM18.314 54.39q0-5.657 3.53-8.828 3.548-3.172 9.938-3.172 6.36 0 9.938 3.172 3.593 3.171 3.593 8.828 0 5.672-3.593 8.843-3.578 3.172-9.938 3.172-6.39 0-9.937-3.172-3.532-3.172-3.532-8.843z" id="DejaVuSans-38"/></defs><g transform="matrix(.11 0 0 -.11 22.814 81.813)"><use xlink:href="#DejaVuSans-30"/><use x="63.623" xlink:href="#DejaVuSans-2e"/><use x="95.41" xlink:href="#DejaVuSans-38"/></g></g></g><g id="ytick_6"><path clip-path="url(#pee681d32a3)" d="M49.807 23.274h892.8" fill="none" stroke="#b0b0b0" stroke-dasharray="3.7,1.6" id="line2d_23"/><use x="49.807" xlink:href="#m1ef7f3c622" y="23.274" stroke="#000" stroke-width="1.25" id="line2d_24"/><g transform="matrix(.11 0 0 -.11 22.814 27.453)" id="text_13"><use xlink:href="#DejaVuSans-31"/><use x="63.623" xlink:href="#DejaVuSans-2e"/><use x="95.41" xlink:href="#DejaVuSans-30"/></g></g><g id="text_14"><defs><path d="M28.61 0L.78 72.906h10.297l23.11-61.375 23.14 61.375h10.25L39.797 0z" id="DejaVuSans-56"/><path d="M9.422 75.984h8.984V0H9.422z" id="DejaVuSans-6c"/><path d="M9.813 72.906h9.859v-29.89h35.844v29.89h9.859V0h-9.86v34.719H19.673V0h-9.86z" id="DejaVuSans-48"/><path d="M45.406 46.39v29.594h8.985V0h-8.985v8.203Q42.578 3.328 38.25.953q-4.313-2.375-10.375-2.375-9.906 0-16.14 7.906-6.22 7.922-6.22 20.813 0 12.89 6.22 20.797Q17.968 56 27.874 56q6.063 0 10.375-2.375 4.328-2.36 7.156-7.234zm-30.61-19.093q0-9.906 4.079-15.547 4.078-5.64 11.203-5.64 7.125 0 11.219 5.64 4.11 5.64 4.11 15.547 0 9.906-4.11 15.547-4.094 5.64-11.219 5.64-7.125 0-11.203-5.64-4.078-5.64-4.078-15.547z" id="DejaVuSans-64"/><path d="M39.406 66.219q-10.75 0-17.078-8.016-6.312-8-6.312-21.828 0-13.766 6.312-21.781 6.328-8 17.078-8 10.735 0 17.016 8 6.281 8.015 6.281 21.781 0 13.828-6.281 21.828-6.281 8.016-17.016 8.016zm0 8q15.328 0 24.5-10.281 9.188-10.282 9.188-27.563 0-17.234-9.188-27.516-9.172-10.28-24.5-10.28-15.375 0-24.593 10.25-9.204 10.265-9.204 27.546t9.204 27.563q9.218 10.28 24.593 10.28z" id="DejaVuSans-4f"/><path d="M18.11 8.203v-29H9.077v75.484h9.031v-8.296q2.844 4.875 7.157 7.234Q29.594 56 35.594 56q9.968 0 16.187-7.906 6.235-7.907 6.235-20.797T51.78 6.484q-6.218-7.906-16.187-7.906-6 0-10.328 2.375-4.313 2.375-7.157 7.25zm30.578 19.094q0 9.906-4.079 15.547-4.078 5.64-11.203 5.64-7.14 0-11.218-5.64-4.079-5.64-4.079-15.547 0-9.906 4.078-15.547 4.079-5.64 11.22-5.64 7.124 0 11.202 5.64t4.078 15.547z" id="DejaVuSans-70"/></defs><g transform="matrix(0 -.12 -.12 0 16.318 216.455)"><use xlink:href="#DejaVuSans-56"/><use x="68.299" xlink:href="#DejaVuSans-61"/><use x="129.578" xlink:href="#DejaVuSans-6c"/><use x="157.361" xlink:href="#DejaVuSans-75"/><use x="220.74" xlink:href="#DejaVuSans-65"/><use x="282.264" xlink:href="#DejaVuSans-20"/><use x="314.051" xlink:href="#DejaVuSans-48"/><use x="389.246" xlink:href="#DejaVuSans-65"/><use x="450.77" xlink:href="#DejaVuSans-61"/><use x="512.049" xlink:href="#DejaVuSans-64"/><use x="575.525" xlink:href="#DejaVuSans-20"/><use x="607.313" xlink:href="#DejaVuSans-4f"/><use x="686.023" xlink:href="#DejaVuSans-75"/><use x="749.402" xlink:href="#DejaVuSans-74"/><use x="788.611" xlink:href="#DejaVuSans-70"/><use x="852.088" xlink:href="#DejaVuSans-75"/><use x="915.467" xlink:href="#DejaVuSans-74"/></g></g></g><path clip-path="url(#pee681d32a3)" d="M49.807 207.95l3.571-30.68 3.572-2.12 3.57-6.97 3.572-2.535 3.571-1.4 3.571-1.778 3.572 1.647 3.57-.374 3.572 2.103 3.571 3.865 3.571 4.623 3.572 3.247 3.57 3.796 3.572 7.901 3.571.024 3.571 4.774 3.572 8.233 3.57.663 3.572-13.065 3.571-5.949 3.571-4.206 3.572.47 3.57-3.332 3.572-5.785 3.571 1.965 3.571 2.454 3.572-1.436 3.57-3.778 3.572 13.624 3.571 3.225 3.571-7.65 3.572 7.9 3.57 4.105 3.572 26.848 3.571-7.07 3.571-3.115 3.572 10.766 3.57 9.61 3.572 4.28 3.571.203 3.571 3.9 3.572 5.759 3.57 16.446 3.572 13.001 3.571.143 3.571 5.224 3.572-.203 3.57-2.048 7.143 2.262 3.571 4.64 3.572 2.221 3.57 1.872 3.572 1.404 3.571-.234 3.571.003 3.572 1.308 3.57.56 7.143.775 3.571-.032 3.572-.584 3.57-.331 3.572-.517 3.571.11 3.571.4 3.572-.265 3.57-.808 3.572-1.065 3.571-.394 3.571-1.28 3.572 1.337 3.57-3.158 3.572.957 3.571.15 3.571-.233 3.572-1.061 3.57-1.738 3.572 1.865 3.571-1.403 3.571 3.352 3.572.336 3.57-1.362 3.572-3.317 3.571-4.475 3.571-3.257 3.572 3.296 3.57 2.901 3.572-2.503 7.142-5.8 3.572-7.467 3.57.594 3.572 4.392 3.571-1.88 3.571.51 3.572 9.046 3.57-12.03 3.572-15.845 3.571 2.589 3.571-7.364 3.572.283 3.57 11.203 3.572-19.004 3.571 5.892 3.571 5.598 3.572 2.094 3.57 3.736 3.572 8.179 3.571-3.91 3.571-1.065 3.572-.248 3.57 4.786 3.572-32.045 3.571-23.02 3.571 21.29 3.572 9.695 3.57-7.17 3.572 5.744 3.571 1.352 3.571-3.199 3.572 1.938 3.57-10.097 3.572-10.796 3.571-.228 3.571-6.249 3.572 2.263 3.57 1.94 3.572-.157 7.142-44.365 3.572-10.775 3.57 20.401 3.572-7.4 3.571-3.491 3.571 1.584 3.572 6.718 3.57-3.557 3.572-7.284 3.571 11.777 3.571-.58 3.572-6.545 3.57-7.67 3.572 13.578 3.571-9.918 3.571 30.83 3.572-15.658 3.57-55.927 3.572-1.344 3.571 26.86 3.571 4.543 3.572-4.345 3.57-12.4 3.572 22.992 3.571 11.153 3.571 7.122 3.572 17.37 3.57 44.848 3.572-22.247 3.571-15.846 3.571-27.043 3.572-7.523 3.57 12.233 3.572 56.764 3.571-17.275 3.571-18.426 3.572-22.069 3.57 9.477 3.572-21.117 3.571 3.892 3.571-10.266 3.572 16.463 3.57-13.57 3.572 66.009 3.571 24.557 3.571 3.687 3.572-2.778 3.57-19.069 3.572-17.341 3.571 1.427 3.571 22.094 3.572 1.785 3.57-.72 3.572 19.25 3.571-15.749 3.571-18.84 3.572-22.992 3.57 5.846 3.572 25.69 3.571 3.704 3.571-2.711 3.572-3.472 3.57-5.889 3.572-3.884 3.571-8.706 3.571 16.513 3.572 20.98 3.57 14.399 3.572 9.635 3.571-.526 3.571-7.533 3.572-4.845 3.57-4.565 3.572-3.643 3.571-4.31 3.571-3.907 3.572 9.273 3.57 10.294 3.572-1.625 3.571 10.486 3.571 3.023 3.572.513 3.57 2.126 3.572-3.632 7.142-6.407 7.143 13.803 3.571 1.998 3.571-1.07 3.571-4.7 3.572.715 3.57 3.069 3.572-.19 3.571-2.622 3.571.358 3.572.827 3.57-2.288 3.572-.393 3.571 1.634 3.571.016 3.572.176 3.57.956 3.572-4.092 3.571-3.216 3.571-2.181 3.572.333 3.57 1.356 3.572 11.776 3.571 3.637 3.571.584 3.572-.096 3.57-.527 3.572.62 3.571.214 3.571.087 3.572-.231 7.142.61 3.571.623 3.571.266 3.572.114h0" fill="none" opacity=".4" stroke="#1f77b4" stroke-linecap="square" stroke-width="2" id="line2d_25"/><path clip-path="url(#pee681d32a3)" d="M49.807 184.716l3.571-49.723 3.572-4.39 3.57-1.478 3.572 7.933 3.571.471 3.571-.774 3.572 2.351 3.57-.219 3.572 1.998 7.142 10.802 3.572 3.43 3.57 4.284 3.572 10.34 3.571 1.843 3.571 7.305 3.572 12.083 3.57 4.739 3.572 4.355 7.142 2.309 3.572.902 3.57-1.425 3.572-3.378 3.571 1.175 3.571-.045 3.572-5.075 3.57-10.708 3.572 14.745 3.571 5.951 3.571-11.689 3.572-2.314 3.57 5.067 3.572 18.473 3.571-2.443 3.571-4.28 3.572 18.802 3.57 24.552 3.572 11.62 3.571 2.177 3.571 7.06 3.572 5.734 3.57 7.967 3.572 4.802 3.571.505 3.571.678 3.572-.833 3.57-1.888 3.572-2.448 3.571-1.564 3.571 1.086 7.143 1.477 3.571.253 3.571-.787 3.571-.671 7.143 1.261 3.571.47 3.571.12 10.714-1.656 3.571-2.131 7.142.173 7.143-1.982 3.571-2.202 3.571.542 3.571-1.211 3.572 2.249 3.57-4.694 3.572 1.664 7.142-.903 3.572-.112 3.57-2.275 3.572-1.74 3.571-3.164 3.571 5.459 3.572 2.029 3.57-.1 3.572-2.983 3.571-7.395 3.571-7.768 3.572 1.532 3.57 2.03 3.572-9.208 3.571-4.92 3.571-5.194 3.572-13.016 3.57-.324 3.572 7.107 3.571-4.865 3.571 1.892 3.572 16.567 3.57-19.625 3.572-21.63 3.571.343 3.571-9.878 3.572-2.308 3.57 14.206 3.572-35.25 3.571.954 3.571 2.8 3.572-2.328 3.57-.013 3.572 5.221 3.571-11.477 3.571-5.98 3.572-2.256 3.57 7.213 3.572-41.527 3.571-17.5 3.571 18.339 3.572 14.014 3.57-5.6 3.572 14.222 3.571 7.164 3.571 3.854 3.572 4.375 3.57-7.559 3.572-4.123 3.571 3.48 3.571-2.37 7.143 11.98 3.571 8.388 3.571-14.67 3.571-16.911 3.572-8.134 3.57 15.51 3.572-3.31 3.571-4.95 3.571 1.199 3.572 5.631 3.57-7.247 3.572-6.119 3.571 4.321 3.571-2.687 3.572-1.564 3.57-10.913 3.572 8.923 3.571-9.832 3.571 23.998 3.572-24.047 3.57-50.192 3.572-4.486 3.571 13.229 3.571.529 3.572-3.349 3.57-8.2 3.572 10.962 3.571 18.747 3.571 12.134 3.572 17.358 3.57 55.232 3.572-35.489 3.571-15.857 3.571-17.353 3.572-1.697 3.57 14.415 3.572 81.712 3.571-12.54 3.571-20.232 3.572-24.53 3.57 11.37 3.572-24.929 3.571 6.551 3.571-15.624 3.572 22.876 3.57-8.638 3.572 82.764 3.571 32.217 3.571 4.875 3.572-1.646 3.57-10.632 3.572-7.527 3.571 6.286 3.571 14.307 3.572 2.622 3.57-1.9 3.572 10.545 3.571-9.767 3.571-14.446 3.572-17.04 3.57 5.793 3.572 21.788 3.571 3.515 3.571-.834 3.572-2.176 3.57-2.653 3.572-1.395 3.571-7.036 3.571 8.445 3.572 12.704 3.57 6.128 3.572 4.426 3.571.285 3.571-2.918 3.572-2.4 3.57-2.044 3.572-1.083 3.571-2.212 3.571-2.41 3.572 2.776 3.57 3.953 3.572-2.717 3.571 5.497 3.571 1.769 3.572.965 3.57.055 3.572-3.764 3.571-1.844 3.571-1.672 7.143 8.524 3.571 1.648 3.571-.413 3.571-2.402 3.572.793 3.57 1.733 3.572.347 3.571-.39 3.571.077 3.572.203 3.57-.492 7.143.987 3.571-.123 3.572.141 3.57.421 7.143-2.199 3.571-.669 3.572.397 3.57-.232 3.572 4.057 3.571 1.073 3.571.161h3.572l3.57-.122 10.714.137 3.572-.059 17.856.39h0" fill="none" opacity=".4" stroke="#ff7f0e" stroke-linecap="square" stroke-width="2" id="line2d_26"/><path clip-path="url(#pee681d32a3)" d="M49.807 162.916l3.571-36.862 3.572-9.506 3.57-3.587 3.572 2.372 3.571.42 3.571-.28 3.572 1.739 3.57.358 3.572 1.602 3.571 2.977 3.571 2.654 3.572 1.269 3.57 2.778 3.572 8.89 3.571.904 3.571 6.763 7.143 27.874 3.571 5.7 3.571 1.996 3.571 2.158 3.572 5.154 3.57 1.242 3.572.068 3.571 3.381 3.571 1.456 3.572-5.232 3.57-7.95 3.572 12.938 3.571 4.397 3.571-9.994 3.572-5.628 3.57-2.916 3.572 25.59 3.571-2.296 3.571-3.966 3.572 26.032 3.57 28.459 3.572 11.827 3.571.449 3.571 4.579 3.572 5.602 3.57 9.35 3.572 6.028 3.571.514 3.571.635 3.572-.44 3.57-1.066 3.572-2.033 3.571-1.365 7.143.887 3.57.516 3.572.072 7.142-1.352 3.572.248 3.57.393 3.572-.29 3.571.146 3.571-.431 3.572-.994 3.57-.67 3.572-2.28 3.571-.123 3.571.141 3.572-1.03 3.57-1.507 3.572-3.627 3.571-.749 3.571-2.999 3.572 1.775 3.57-8.22 3.572 1.604 3.571-.067 3.571-.228 3.572-1.492 3.57-4.213 3.572.022 3.571-3.998 3.571 8.081 3.572 1.698 7.142-10.697 3.571-12.736 3.571-16.225 3.572 1.182 3.57 6.881 3.572-12.51 3.571-7.046 3.571-9.659 3.572-23.164 3.57-3.809 3.572 11.768 3.571-10.482 3.571 3.09 3.572 32.048 3.57-27.423 3.572-40.63 3.571 5.997 3.571-14.794 3.572 3.84 3.57 23.168 3.572-31.883 3.571 5.667 3.571 6.23 3.572 5.82 3.57 1.754 3.572 16.96 3.571-4.972 3.571-4.076 3.572 2.641 3.57 10.093 3.572-35.786 3.571-25.5 3.571 23.885 3.572 22.802 3.57-6.776 3.572 13.588 3.571 6.696 3.571.396 3.572 5.311 3.57-10.067 3.572-8.384 3.571 4.642 3.571-4.1 3.572 6.588 3.57 7.983 3.572 13.923 3.571-17.8 3.571-22.814 3.572-9.603 3.57 21.339 3.572 1.72 3.571-4.274 3.571 3.455 3.572 9.137 3.57-1.399 3.572-4.072 3.571 8.737 3.571-.755 3.572-6.56 3.57-10.443 3.572 13.166 3.571-7.424 3.571 29.492 3.572-31.218 3.57-67.498 3.572-3.242 3.571 20.405 3.571 2.63 3.572-4.294 3.57-10.872 3.572 15.508 3.571 19.074 3.571 9.848 3.572 22.509 3.57 63.63 3.572-13.816 3.571-23.44 3.571-26.51 3.572-7.89 3.57 8.527 3.572 55.122 3.571-23.631 3.571-25.95 3.572-29.553 3.57 9.887 3.572-31.652 3.571 1.924 3.571-13.854 3.572 20.192 3.57-9.917 3.572 84.307 3.571 36.154 3.571 5.821 3.572-6.576 3.57-28.176 3.572-20.334 3.571 4.181 3.571 32.413 3.572-.653 3.57-.83 3.572 26.915 3.571-20.977 3.571-23.998 3.572-28.667 3.57 7.304 3.572 33.714 3.571 5.995 3.571-2.633 3.572-4.199 3.57-4.543 3.572-5.498 3.571-6.509 3.571 24.272 3.572 27.993 3.57 15.555 3.572 10.198 3.571.042 3.571-7.485 3.572-5.335 3.57-5.845 3.572-6.85 3.571-5.532 3.571-3.792 3.572 10.97 3.57 10.034 3.572-.613 3.571 11.979 3.571 2.5 3.572-.784 3.57 2.185 3.572-6.136 3.571-3.517 3.571-3.168 3.572 8.078 3.57 8.735 3.572 2.827 3.571-.75 3.571-4.777 3.572.815 3.57 3.368 3.572.278 3.571-3.07 3.571.598 3.572.892 3.57-2.639 3.572-.52 3.571 1.65 3.571.675 3.572-.482 3.57.064 3.572-3.392 3.571-3.022 3.571-2.466 3.572-.708 3.57.915 3.572 14.69 3.571 2.611 3.571.372 3.572-.636 3.57-.812 3.572.43 3.571.183 3.571-.063 3.572-.494 3.57.29 3.572.572 3.571.905 3.571.324 3.572.07h0" fill="none" opacity=".4" stroke="#2ca02c" stroke-linecap="square" stroke-width="2" id="line2d_27"/><path clip-path="url(#pee681d32a3)" d="M49.807 188.104l3.571-51.318 3.572-16.105 3.57-7.898 3.572 4.273 3.571 1.8 3.571 1.123 3.572 3.067 3.57 1.352 3.572 3.437 3.571 4.7 3.571 4.345 3.572 2.936 3.57 4.62 3.572 14.464 3.571 4.495 3.571 9.524 3.572 13.95 3.57 12.745 3.572 6.26 3.571 1.701 3.571 1.543 3.572 1.73 3.57-.77 3.572-.992 3.571 1.899 3.571-.372 3.572-6.622 3.57-13.898 3.572 6.837 3.571 3.78 3.571-14.118 3.572-7.646 3.57-.846 3.572 16.256 3.571-1.847 3.571-4.722 3.572 21.637 3.57 31.62 3.572 11.556 3.571.755 3.571 7.089 3.572 8.339 3.57 12.967 3.572 8.327 7.142 2.366 3.572-.1 7.142-1.102 3.571-.402 7.143 1.093 7.142.751 7.142-.183 7.143.416 14.285-.236 3.57-.16 3.572-.454 3.571.025 3.571.187 7.143-.335 3.571-.516 3.571.036 3.571-.439 3.572.381 3.57-1.536 3.572.618 7.142-.036 3.572-.065 3.57-.666 3.572-.15 3.571-.74 3.571 1.478 3.572.604 3.57-.651 3.572-.95 3.571-2.202 3.571-2.778 3.572.689 3.57 1.691 3.572-1.884 3.571-1.4 3.571-1.85 3.572-5.157 3.57-2.17 3.572.562 3.571-4.09 3.571-.541 3.572 9.565 3.57-7.027 3.572-14.032 3.571 1.46 3.571-8.814 3.572-.86 3.57 8.884 3.572-25.7 3.571-1.966 3.571-2.701 3.572-4.537 3.57-6.604 3.572-5.464 3.571-11.106 3.571-10.078 3.572-3.008 3.57 3.615 3.572-13.29 3.571-20.31 3.571 28.275 3.572 22.572 3.57-.605 3.572 12.575 3.571 5.084 3.571 1.061 3.572 7.55 3.57-2.942 3.572 1.47 3.571 5.51 3.571-.128 3.572 5.832 3.57 7.013 3.572 12.923 3.571-4.007 3.571-7.803 3.572-2.7 3.57 11.972 3.572 1.577 3.571-.606 3.571 1.452 3.572 3.356 3.57-1.116 3.572-2.594 3.571 1.936 3.571-1.069 3.572-1.933 3.57-4.602 3.572 8.148 3.571-1.402 3.571 11.363 3.572-9.952 3.57-37.5 3.572-2.955 3.571 14.97 3.571-1.465 3.572-3.58 3.57-7.088 3.572 10.481 3.571 8.8 3.571 4.243 3.572 5.56 3.57 17.39 3.572-18.853 3.571-16.963 3.571-21.001 3.572-6.304 3.57 6.504 3.572 39.305 3.571-14.509 3.571-17.205 3.572-21.592 3.57 10.24 3.572-28.668 3.571 3.432 3.571-11.72 3.572 20.168 3.57-13.812 3.572 58.958 3.571 18.053 3.571 1.685 3.572-3.812 3.57-20.897 3.572-16.144 3.571.66 3.571 23.137 3.572-2.104 3.57-3.604 3.572 17.18 3.571-22.09 7.143-47.824 3.57 9.38 3.572 30.677 3.571 4.546 3.571-4.108 3.572-5.117 3.57-6.853 3.572-9.289 3.571-9.73 3.571 19.914 3.572 25.502 3.57 17.601 3.572 10.724 3.571-1.96 3.571-14.682 3.572-10.632 3.57-8.82 7.143-13.856 3.571-5.71 7.143 35.356 3.571-2.813 3.571 16.868 3.571 4.218 3.572-1.08 3.57 3.749 3.572-9.382 3.571-6.358 3.571-4.983 3.572 13.22 3.57 14.398 3.572 5.157 3.571-1.5 3.571-7.703 3.572 2.55 3.57 6.126 3.572 1.873 3.571-2.808 3.571 1.089 3.572 1.582 3.57-2.415 3.572.742 3.571 2.177 3.571.519 3.572-.047 3.57 1.265 3.572-3.412 3.571-3.107 3.571-2.194 3.572.09 3.57 1.576 3.572 11.395 3.571 2.507 3.571.422 3.572-.218 3.57-.374 3.572.364 7.142.141 3.572-.189 7.142.457 3.571.396 7.143.196h0" fill="none" opacity=".4" stroke="#d62728" stroke-linecap="square" stroke-width="2" id="line2d_28"/><path clip-path="url(#pee681d32a3)" d="M49.807 203.457l3.571-54.57 3.572-11.383 3.57-5.843 3.572 3.407 3.571-.217 3.571-.698 3.572 2.028 3.57-.148 3.572.254 3.571 4.437 3.571 3.687 3.572 1.794 3.57 2.872 3.572 7.102 3.571.376 3.571 5.149 3.572 9.157 3.57 5.567 3.572 10.368 3.571 3.037 3.571 2.135 3.572 4.477 3.57 2.792 3.572 1.657 3.571 3.125 3.571 2.246 3.572-3.13 3.57-7.928 3.572 16.57 3.571 6.295 3.571-6.53 3.572 2.95 3.57 5.025 3.572 26.764 3.571.04 3.571-.716 3.572 11.014 3.57 11.809 3.572 3.551 3.571.175 3.571 1.256 3.572 2.356 3.57 6.86 3.572 4.642 3.571-.236 3.571.549 3.572-1.649 3.57-3.168 3.572-3.878 3.571-2.202 3.571 2.447 10.714 5.691 7.142-.043 3.572.896 3.57.409 3.572 1.444 3.571.767 3.571.194 3.572-.348 3.57.005 3.572-.362 3.571.176 3.571.565 7.143-.414 3.571-.632 3.571-.058 3.571-.724 3.572 1.367 3.57-1.785 3.572 1.526 3.571.375 3.571.06 3.572-.324 3.57-.963 3.572.686 3.571-.581 3.571 1.979 3.572.934 3.57.074 3.572-2.421 3.571-3.513 3.571-4.353 3.572.217 3.57 1.897 3.572-2.059 3.571-1.819 3.571-3.614 3.572-7.638 3.57-4.41 3.572 1.618 3.571-5.088 3.571 2.15 3.572 13.95 3.57-7.338 3.572-18.63 3.571-.5 3.571-7.625 3.572-5.923 3.57 9.989 3.572-29.272 3.571 2.218 3.571.735 3.572 3.919 3.57 1.301 3.572 13.835 3.571.826 3.571-.552 3.572 3.307 3.57 6.79 3.572-9.987 3.571-29.1 3.571 16.698 3.572 13.071 3.57-4.9 3.572 4.946 3.571 4.347 3.571.238 3.572 6.863 7.142-8.23 3.571 2.16 3.571-.373 3.572 4.493 3.57 3.686 3.572 8.6 3.571-7.986 3.571-15.59 3.572-7.572 3.57 13.648 3.572-.288 3.571-1.422 3.571.877 3.572 4.405 3.57-.052 3.572-6.487 3.571 5.157 3.571-.618 3.572-8.923 3.57-6.244 3.572 9.248 3.571-4.959 3.571 15.34 3.572-13.7 3.57-56.8 3.572-20.93 3.571 22.432 3.571 1.56 3.572-3.306 3.57-13.904 3.572 12.662 3.571 8.08 3.571 16.577 3.572 19.239 3.57 38.132 3.572-13.156 3.571-15.91 3.571-26.894 3.572-9.276 3.57 7.134 3.572 50.136 3.571-6.16 3.571-13.81 3.572-21.307 3.57 2.321 3.572-23.195 3.571 2.802 3.571-12.901 3.572 17.034 3.57-10.24 3.572 59.042 3.571 20.762 3.571 2.197 3.572-3.383 3.57-15.037 3.572-18.899 3.571 1.35 3.571 17.372 3.572 2.88 3.57-2.72 3.572 16.669 3.571-14.704 3.571-18.563 3.572-22.832 3.57 4.419 3.572 24.373 3.571 4.118 3.571-2.089 3.572-3.084 3.57-4.869 3.572-1.542 3.571-9.146 3.571 14.29 3.572 20.69 3.57 12.16 3.572 10.208 3.571.383 3.571-5.372 3.572-3.291 3.57-2.524 3.572-.972 3.571-2.523 3.571-2.954 3.572 6.104 3.57 6.548 3.572-1.382 3.571 6.766 3.571 2.585 7.143 1.312 3.571-4.37 3.571-2.852 3.571-3.23 3.572 5.2 3.57 5.876 3.572 2.71 3.571-1.043 3.571-4.355 3.572 1.204 3.57 2.99 3.572.964 3.571-.79 7.143.698 3.57-1.195 3.572.32 3.571 1.129 3.571-.33 3.572.416 3.57 1.084 3.572-2.438 3.571-2.08 3.571-1.44 3.572.661 3.57.038 3.572 7.615 3.571 2.522 3.571.429 3.572.16 3.57-.203 3.572.308 7.142.188 3.572-.081 14.284.718 3.572.057h0" fill="none" opacity=".4" stroke="#9467bd" stroke-linecap="square" stroke-width="2" id="line2d_29"/><path clip-path="url(#pee681d32a3)" d="M49.807 265.564l3.571 7.787 3.572 3.747 3.57-4.757 3.572-12.155 3.571-5.404 3.571-4.677 3.572-2.233 3.57-3.53 3.572-5.953 3.571-.528 3.571-1.155 7.143-5.948 3.571-7.11 3.571-5.37 3.571 1.758 3.572 6.596 3.57 7.047 3.572 5.868 3.571 1.738 3.571 1.567 3.572 4.68 3.57-.026 3.572-1.21 7.142 4.818 3.572-.242 3.57.315 3.572 15.193 3.571 3.221 3.571-3.982 3.572 3.609 3.57 1.715 3.572 8.21 3.571-2.494 3.571-1.676 3.572 5.042 3.57 4.289 3.572 1.759 3.571-.078 3.571.398 3.572 1.163 3.57 3.083 3.572 1.086 3.571-.659 3.571.035 3.572-1.767 3.57-4.467 3.572-9.512 3.571-6.181 3.571 1.27 3.572.683 3.57 1.165 3.572-.203 3.571-2.965 3.571-2.407 3.572.185 3.57-.434 3.572 3.296 3.571 1.43 3.571-.718 3.572-4.573 3.57-3.555 3.572-11.549 3.571-.326 3.571 1.117 3.572-3.185 3.57-8.273 3.572-11.665 3.571-5.731 3.571-5.476 3.572 8.614 3.57-16.109 3.572 13.16 3.571 2.045 3.571.913 3.572-4.602 3.57-6.203 3.572 8.714 3.571-4.762 3.571 14.699 3.572 2.764 3.57.68 3.572-8.968 3.571-11.67 3.571-27.132 3.572-1.265 3.57 4.892 3.572-15.898 3.571-5.869 3.571-10.425 3.572-16.403 3.57 1.014 3.572 15.108 3.571-12.797 3.571 10.82 3.572 31.233 3.57-32.363 3.572-22.656 3.571 2.588 3.571-12.58 3.572-5.13 3.57 16.66 3.572-37.237 3.571 6.13 3.571 1.163 3.572.742 3.57-1.798 3.572 10.389 3.571-6.166 3.571-2.902 3.572 2.202 3.57 6.551 3.572-34.38 3.571-13.392 3.571 18.944 3.572 14.51 3.57-5.156 3.572 12.693 3.571 6.937 3.571.147 3.572 10.844 3.57-7.23 3.572-.115 3.571 6.486 3.571-3.425 3.572 11.04 3.57 10.033 3.572 16.252 3.571-21.684 3.571-19.38 3.572-8.813 3.57 25.397 3.572-3.025 3.571-.982 3.571 5.186 3.572 9.631 3.57-4.249 3.572-5.507 3.571 14.654 3.571-1.554 3.572-4.795 3.57-7.683 3.572 11.133 3.571-12.57 3.571 22.721 3.572-30.934 3.57-52.987 3.572 3.404 3.571 17.15 3.571 1.483 3.572-4.148 3.57-10.239 3.572 14.157 3.571 11.057 3.571 10.297 3.572 27.612 3.57 69.52 3.572-27.67 3.571-17.739 3.571-25.471 3.572-3.655 3.57 12.002 3.572 75.01 3.571-19.59 3.571-24.376 3.572-26.375 3.57 12.392 3.572-29.85 3.571 5.192 3.571-18.307 3.572 22.527 3.57-9.311 3.572 94.921 3.571 31.946 3.571 3.564 3.572-3.222 3.57-14.362 3.572-12.742 3.571 4.968 3.571 18.416 3.572 1.545 3.57-2.545 3.572 14.522 3.571-14.527 3.571-19.26 3.572-21.587 3.57 6.681 3.572 29.925 3.571 4.258 3.571-2.027 3.572-2.234 3.57-4.185 3.572-5.643 3.571-9.434 3.571 16.968 3.572 19.263 3.57 8.424 3.572 5.263 3.571-.176 3.571-4.53 3.572-3.422 7.142-7.145 3.571-4.538 3.571-3.806 7.143 13.621 3.571-1.583 3.571 8.178 3.571 1.915 3.572.448 3.57.77 3.572-4.149 3.571-2.383 3.571-1.785 3.572 5.724 3.57 5.082 3.572 1.5 3.571-.448 3.571-2.39 3.572 1.014 3.57 1.715 3.572.241 3.571-.992 3.571.1 3.572.339 3.57-.916 3.572.23 3.571.725 3.571.016 3.572.153 3.57.336 3.572-1.719 3.571-1.154 3.571-.71 7.143.59 3.571 5.258 3.571.615 3.571.077 10.714-.09 28.57.224h0" fill="none" opacity=".4" stroke="#1f77b4" stroke-dasharray="7.4,3.2" stroke-width="2" id="line2d_30"/><path clip-path="url(#pee681d32a3)" d="M49.807 212.7l3.571-71.214 3.572-12.883 3.57-6.11 3.572 8.686 3.571.375 3.571-1.437 3.572 2.348 3.57-1.359 3.572-1.493 7.142 11.804 7.143 5.19 3.571 4.504 3.571-2.507 3.571 3.759 3.572 9.02 3.57-7.763 3.572 3.988 3.571.529 3.571.734 3.572-1.936 3.57-.345 3.572 2.194 3.571 5.214 3.571 4.592 3.572-1.352 3.57-12.773 3.572 20.494 3.571 10.196 3.571-10.333 3.572 4.49 3.57 8.482 3.572 35.686 3.571-.914 3.571-2.31 3.572 13.875 3.57 20.71 3.572 9.404 3.571 1.115 3.571.536 3.572 5.127 3.57 10.943 3.572 5.72 3.571.153 3.571.794 3.572-1.933 3.57-4.313 3.572-5.538 3.571-3.1 3.571 3.421 7.143 4.044 3.571 1.559 3.571-.811 3.571-.495 3.572 1.368 3.57.323 3.572 1.585 3.571.856 3.571-.061 3.572-1.208 3.57-.607 3.572-2.62 3.571.346 3.571.96 3.572-.677 3.57-1.794 3.572-3.497 3.571-1.037 3.571-2.406 3.572 2.454 3.57-6.964 3.572 4.583 3.571.515 3.571.111 3.572-1.993 3.57-3.661 3.572 3.307 3.571-1.725 3.571 5.764 3.572 1.925 3.57-.51 3.572-9.462 3.571-10.876 3.571-12.122 3.572 4.748 3.57 7.17 3.572-6.346 3.571-4.561 3.571-8.364 3.572-17.574 3.57-4.42 3.572 13.132 3.571-6.895 3.571 8.661 3.572 25.374 3.57-22.98 3.572-29.505 3.571 1.26 3.571-9.053 3.572-.264 3.57 24.124 3.572-29.364 3.571 12.73 3.571 8.35 3.572 7.4 3.57 4.65 3.572 16.217 3.571-3.653 3.571-2.648 3.572 1.911 3.57 6.88 3.572-34.843 3.571-30.191 3.571 30.264 3.572 16.847 3.57-9.46 3.572 7.98 3.571 3.308 3.571-3.072 3.572 5.61 7.142-24.092 3.571.98 3.571-8.512 3.572 4.235 3.57 4.563 3.572 8.765 3.571-23.979 3.571-26.118 3.572-12.826 3.57 26.076 3.572-7.94 3.571-5.061 3.571.827 3.572 7.71 3.57-6.919 3.572-12.1 3.571 15.244 3.571.745 3.572-8.14 3.57-7.64 3.572 20.213 3.571-10.52 3.571 43.632 3.572-19.133 3.57-71.378 3.572 3.384 3.571 31.398 3.571 4.183 3.572-2.57 3.57-13.268 3.572 36.745 3.571 13.92 3.571 9.115 3.572 17.454 3.57 42.086 3.572-31.153 3.571-21.293 3.571-32.582 3.572-3.256 3.57 14.444 3.572 68.843 3.571-11.646 3.571-19.588 3.572-26.088 3.57 11.688 3.572-26.1 3.571 7.976 3.571-15.945 3.572 26.681 3.57-15.974 3.572 66.228 3.571 21.942 3.571 1.497 3.572-3.468 3.57-14.394 3.572-13.828 3.571 3.357 3.571 17.49 3.572 1.69 3.57-3.881 3.572 15.837 3.571-12.64 3.571-18.412 3.572-22.028 3.57 6.364 3.572 26.177 3.571 2.463 3.571-1.767 3.572-3.83 3.57-3.014 3.572-.55 3.571-8.426 3.571 15.291 3.572 17.598 3.57 8.65 3.572 5.496 3.571.497 3.571-2.54 7.143-2.83 3.571-.846 7.142-3.483 3.572 3.255 3.57 3.584 3.572-1.692 3.571 4.19 3.571 1.143 3.572.414 3.57.044 3.572-3 3.571-1.822 3.571-2.076 7.143 7.028 3.571 1.148 3.571-.484 3.571-2.612 3.572.604 3.57 1.673 3.572.088 3.571-.786 3.571-.1 3.572.225 3.57-.924 3.572-.48 3.571.527 3.571-.16 3.572.301 3.57.148 7.143-3.05 3.571-.862 3.572.365 3.57-.805 3.572 7.024 3.571 1.738 3.571.229 3.572.012 3.57-.16 7.143.29 3.571.044 3.572-.07 7.142.174 3.571.215 7.143.121h0" fill="none" opacity=".4" stroke="#ff7f0e" stroke-dasharray="7.4,3.2" stroke-width="2" id="line2d_31"/><path clip-path="url(#pee681d32a3)" d="M49.807 271.863l3.571-6.048 3.572 3.189 3.57-3.797 3.572-10.5 3.571-6.363 3.571-5.634 3.572-2.624 3.57-3.897 3.572-6.173 3.571 1.044 3.571.409 3.572-1.467 3.57-.95 3.572-1.532 3.571-2.432 3.571 2.618 3.572 5.584 3.57 4.67 3.572 8.23 3.571 2.8 3.571 1.977 3.572 3.285 3.57 1.123 3.572 1.295 3.571 2.304 3.571 2.098 3.572-.281 3.57-2.132 3.572 11.17 3.571 3.154 3.571-3.136 3.572 3.09 3.57 1.98 3.572 6.229 3.571-1.876 3.571-.773 3.572 4.126 3.57 4.355 3.572 2.29 7.142.734 3.572.652 3.57 1.796 3.572 1.126 3.571-.072 3.571.143 3.572-.378 3.57-1.039 3.572-1.895 3.571-1.231 3.571.516 3.572.312 3.57.435 3.572.256 3.571-.474 3.571-.361 3.572.306 3.57-.163 3.572.583 3.571.294 3.571-.063 3.572-.792 3.57-.516 3.572-1.786 3.571-.167 3.571.45 3.572-.461 3.57-1.672 3.572-3.054 3.571-1.804 3.571-2.044 3.572 1.49 3.57-4.479 3.572 2.135 3.571.635 3.571.291 3.572-1.622 3.57-2.067 3.572 2.316 3.571-1.574 3.571 4.666 3.572 1.17 3.57.027 3.572-5.122 3.571-4.004 3.571-9.588 3.572-.598 3.57 2.413 3.572-8.585 3.571-5.514 3.571-8.788 3.572-15.594 3.57-6.965 3.572 7.705 3.571-8.8 3.571 6.846 3.572 22.072 3.57-20.14 3.572-27.907 3.571 1.28 3.571-9.65 3.572-8.163 3.57 16.403 3.572-37.854 3.571 8.017 3.571 4.487 3.572 5.63 3.57 4.944L439.069 207l3.571-1.051 3.571.687 3.572 5.425 3.57 9.995 3.572-28.195 3.571-31.24 3.571 28.938 3.572 17.197 3.57-7.988 3.572 8.515 3.571 5.71 3.571-.916 3.572 11.39 3.57-8.03 3.572-4.21 3.571 4.563 3.571-3.346 3.572 9.122 3.57 6.868 3.572 10.334 3.571-18.615 3.571-22.4 3.572-12.912 3.57 25.785 3.572-5.14 3.571-1.903 3.571 2.21 3.572 7.214 3.57-1.844 3.572-8.81 3.571 14.712 3.571-.26 3.572-10.203 3.57-6.618 3.572 14.076 3.571-10.212 3.571 17.041 3.572-25.528 3.57-67.183 3.572-.65 3.571 27.627 3.571 4.916 3.572-3.056 3.57-12.726 3.572 20.421 3.571-.813 3.571 3.594 3.572 14.887 3.57 48.598 3.572-20.542 3.571-16.779 3.571-23.622 3.572-4.22 3.57 11.158 3.572 67.585 3.571-9.673 3.571-16.673 3.572-22.853 3.57 6.36 3.572-23.558 3.571 6.902 3.571-14.576 3.572 21.332 3.57-14.077 3.572 70.973 3.571 20.004 3.571 3.152 3.572-.542 3.57-9.686 3.572-11.198 3.571.707 3.571 12.9 3.572 2.14 3.57-.84 3.572 10.887 3.571-9.666 3.571-12.845 3.572-17.634 3.57 3.62 3.572 18.74 3.571 2.836 3.571-.834 3.572-2.8 3.57-2.017 3.572-3.76 3.571-7.013 3.571 13.504 3.572 15.19 3.57 7.188 3.572 4.777 3.571.123 3.571-3.484 7.143-4.778 3.571-2.092 3.571-2.67 3.571-2.528 3.572 4.107 3.57 5.51 3.572-1.194 3.571 5.326 3.571 1.636 3.572.563 3.57.747 10.714-5.877 3.572 3.603 3.57 3.84 3.572 1.512 3.571-.387 3.571-2.026 3.572.53 3.57 1.412 3.572.209 3.571-.907 3.571.01 3.572.342 3.57-.946 3.572-.144 3.571.665 7.143.04 3.57.334 3.572-1.66 3.571-1.533 3.571-1.189 3.572.01 3.57.394 3.572 6.106 3.571 1.218 3.571.159 7.143-.374 3.571.225 7.142.09 3.572-.12 7.142.303 3.571.236 7.143.107h0" fill="none" opacity=".4" stroke="#2ca02c" stroke-dasharray="7.4,3.2" stroke-width="2" id="line2d_32"/><path clip-path="url(#pee681d32a3)" d="M49.807 160.619l3.571-25.81 3.572-5.885 3.57-1.43 3.572 2.077 3.571 1.461 3.571 1.904 3.572 2.82 3.57 2.123 3.572 3.925 3.571.682 3.571-.727 3.572-1.713 3.57-.849 3.572-.283 3.571-.573 3.571 3.559 3.572 6.252 3.57 13.102 3.572-10.279 3.571-5.293 3.571-4.308 3.572 2.24 3.57-3.731 3.572-5.819 3.571 3.283 3.571 4.408 3.572.783 3.57 1.447 3.572 12.12 3.571 2.679 3.571-4.175 3.572 9.659 3.57 5.844 3.572 35.94 3.571-3.432 3.571.845 3.572 16.689 3.57 12.396 3.572 10.132 3.571 1.257 7.143 7.97 3.57 13.87 3.572 11.944 3.571.243 3.571 3.698 3.572-.486 3.57-2.415 3.572-.747 3.571.325 3.571 3.465 7.143 3.35 3.571 1.157 3.571-.438 3.571-.152 3.572 1.131 7.142 1.508 3.571.483 3.571.053 3.572-.96 7.142-.463 3.571.287 3.571.472 3.572-.321 3.57-1.01 3.572-.79 3.571-.415 3.571-1.359 3.572 1.609 3.57-2.63 3.572 1.006 3.571.215 3.571-.291 7.143-3.42 3.571 2.029 3.571-1.257 3.571 3.442 3.572.617 3.57-.957 3.572-2.407 3.571-2.882 3.571-2.092 3.572 2.242 3.57 1.554 7.143-6.964 3.571-4.182 3.572-8.792 3.57 1.283 3.572 3.699 3.571-.214 3.571-1.287 3.572 7.783 3.57-12.506 3.572-13.285 3.571 3.408 3.571-6.758 3.572-.279 3.57 8.844 3.572-22.328 3.571 4.097 7.143 3.794 3.57 1.314 3.572 5.31 3.571-5.263 3.571-2.969 3.572-.26 3.57 5.645 3.572-35.174 3.571-19.292 3.571 25.397 3.572 12.638 3.57-6.238 3.572 12.152 3.571 6.041 3.571 2.448 3.572 3.539 3.57-7.143 3.572-1.35 3.571 2.64 3.571 2.432 3.572 5.73 3.57 1.688 3.572 3.196 3.571-13.087 3.571-15.097 3.572-.149 3.57 13.922 3.572-1.971 3.571-1.755 3.571 1.66 3.572 3.848 3.57.128 3.572-4.205 3.571 3.546 3.571-4.836 3.572-9.73 3.57-7.71 3.572 4.954 3.571-10.561 3.571 15.953 3.572-24.307 3.57-59.948 3.572 2.211 3.571 22.8 3.571.681 3.572-7.456 3.57-15.612 3.572 15.41 3.571 1.395 3.571-6.704 3.572 3.867 3.57 48.48 3.572-13.665 3.571-11.045 3.571-21.925 3.572-2.47 3.57 12.785 3.572 60.012 3.571-17.21 3.571-16.512 3.572-20.67 3.57 9.126 3.572-19.19 3.571 4.598 3.571-10.983 3.572 13.902 3.57-16.089 3.572 68.575 3.571 27.947 3.571 4.494 3.572-2.513 3.57-16.346 3.572-14.258 3.571 1.335 3.571 18.333 3.572 2.416 3.57-.867 3.572 17.215 3.571-15.131 3.571-17.596 3.572-22.951 3.57 6.106 3.572 24.527 3.571 4.17 3.571-1.35 3.572-3.263 3.57-3.618 3.572-4.25 3.571-9.44 3.571 15.847 3.572 21.996 3.57 12.26 3.572 8.63 3.571.246 3.571-5.644 3.572-3.2 3.57-3.025 3.572-1.59 3.571-3.07 3.571-3.228 3.572 6.794 3.57 7.416 3.572-2.804 3.571 8.734 3.571 2.594 7.143 2.597 3.571-2.846 7.142-4.716 7.143 10.526 3.571 1.31 3.571-.854 3.571-3.897 3.572.437 3.57 2.632 3.572-.336 3.571-1.688 3.571.24 3.572.44 3.57-1.704 3.572-.118 3.571 1.298 3.571.05 3.572.335 3.57.595 3.572-2.951 3.571-2.718 3.571-1.925 7.143.794 3.571 10.241 3.571 3.262 3.571.552 3.572.157 3.57-.295 3.572.45 7.142.222 3.572-.15 7.142.375 3.571.452 7.143.298h0" fill="none" opacity=".4" stroke="#d62728" stroke-dasharray="7.4,3.2" stroke-width="2" id="line2d_33"/><path clip-path="url(#pee681d32a3)" d="M49.807 132.374l3.571-30.274 3.572-7.289 3.57-2.948 3.572-.312 3.571.029 3.571-.163 3.572.81 3.57.098 3.572.956 3.571 1.158 3.571.6 3.572.084 3.57 1.07 3.572 2.298 3.571.162 3.571 4.342 3.572 7.897 3.57 14.791 3.572 3.345 3.571-.07 3.571.672 3.572 6.085 3.57 1.644 3.572-2.205 3.571 1.825 3.571.73 3.572-4.59 3.57-7.343 3.572 9.05 3.571 1.667 3.571-12.52 3.572-.99 3.57-1.247 3.572 32.705 3.571-3.974 3.571-5.722 3.572 13.993 3.57 16.359 3.572 4.222 3.571-4.208 3.571-.538 3.572 8.094 3.57 27.844 3.572 18.2 3.571-3.817 3.571 6.843 3.572-9.014 3.57-17.769 3.572-21.18 3.571-7.534 3.571 9.308 3.572 6.122 3.57 7.274 3.572 3.126 3.571-3.819 3.571-2.175 3.572 5.405 3.57 3.805 3.572 8.028 3.571 3.654 3.571-.295 3.572-7.28 3.57-5.057 3.572-10.197 3.571-1.07 3.571 1.814 3.572-3.28 3.57-6.422 3.572-8.143 3.571-1.766 3.571-7.737 3.572 11.453 3.57-15.38 3.572 10.61 3.571 1.532 3.571-2.138 7.143-12.977 3.571 6.933 3.571-6.516 3.571 16.38 3.572 5.852 3.57-2.934 3.572-12.082 3.571-28.907 3.571-22.004 3.572 3.112 3.57 7.503 3.572-6.01 3.571-5.094 3.571-4.475 3.572-11.965 3.57 3.698 3.572 9.122 3.571-3.288 3.571-.75 3.572 28.201 3.57-21.181 3.572-23.014 3.571 1.917 3.571-12.604 3.572.592 3.57 12.249 3.572-19.126 3.571 2.828 3.571 2.48 3.572 2.155 3.57.984 3.572 6.894 3.571-4.056 3.571-1.407 3.572.389 3.57 8.556 3.572-14.044 3.571-11.671 3.571 14.657 3.572 11.483 3.57-2.823 3.572 12.19 3.571 5.525 3.571 1.508 3.572 4.34 3.57-5.223 3.572-.724 3.571 3.924 3.571 2.428 3.572 5.838 3.57 5.311 3.572 15.715 3.571-12.267 3.571-16.357 3.572-2.97 3.57 16.342 3.572 4.05 3.571-.448 3.571 4.82 3.572 8.501 3.57-1.436 3.572-2.524 3.571 7.187 3.571.497 3.572-4.1 3.57-6.322 3.572 14.452 3.571-8.342 3.571 30.655 3.572-17.31 3.57-54.036 3.572 4.418 3.571 21.58 3.571-.406 3.572-6.275 3.57-12.144 3.572 21.38 3.571 11.356 3.571 1.635 3.572 9.072 3.57 51.554 3.572-37.75 3.571-23.913 3.571-25.396 3.572-2.5 3.57 13.983 3.572 67.752 3.571-23.768 3.571-21.84 3.572-23.651 3.57 12.234 3.572-25.794 3.571 4.92 3.571-8.575 3.572 20.212 3.57-9.222 3.572 75.81 3.571 35.904 3.571 7.092 3.572-4.553 3.57-25.484 3.572-18.04 3.571 4.627 3.571 32.394 3.572 1.27 3.57-2.101 3.572 25.75 3.571-18.79 3.571-24.895 3.572-24.08 3.57 6.81 3.572 30.509 3.571 4.922 3.571-3.23 3.572-5.517 3.57-6.677 3.572-3.401 3.571-6.464 3.571 20.75 3.572 25.546 3.57 17.655 3.572 10.95 3.571.285 3.571-6.848 7.143-9.953 7.142-8.342 3.571-3.912 3.572 9.915 3.57 9.017 3.572-2.207 3.571 11.175 3.571 3.224 3.572-.485 3.57 2.062 3.572-5.494 3.571-4.095 3.571-2.474 7.143 15.954 3.571 2.577 3.571-.634 3.571-3.413 3.572.728 3.57 2.701 3.572.233 3.571-1.801 3.571.418 3.572.872 3.57-1.361 3.572-.475 3.571 1.2 3.571.478 3.572.1 3.57-.05 3.572-1.753 3.571-1.559 3.571-.875 3.572-.074 3.57.31 3.572 7.638 3.571 1.61 3.571.288 7.143-.358 3.571.25 7.142.14 3.572-.078 7.142.213 3.571.221 7.143.117h0" fill="none" stroke="#9467bd" stroke-dasharray="7.4,3.2" stroke-width="2" id="line2d_34"/><path clip-path="url(#pee681d32a3)" d="M49.807 164.354l3.571-32.111 3.572 2.526 3.57.56 3.572-2.896 3.571-2.22 3.571-1.952 3.572.471 3.57-.753 3.572.501 7.142 5.448 3.572 1.934 3.57 3.67 3.572 8.166 3.571.142 3.571 6.063 7.143 25.412 3.571 5.777 3.571 1.642 3.571 2.137 3.572 5.126 3.57 1.906 3.572-1.523 3.571 1.426 3.571-.735 3.572-7.634 3.57-15.36 3.572 13.935 3.571 6.132 3.571-11.653 3.572-4.14 3.57 1.608 3.572 34.148 3.571-2.11 3.571-6.603 3.572 17.395 3.57 26.79 3.572 10.01 3.571-.342 3.571 1.287 3.572 6.56 3.57 13.994 3.572 7.744 3.571.81 3.571 1.277 3.572-1.551 7.142-7.36 3.571-2.014 3.571 2.405 7.143 3.475 3.571 1.024 3.571-.56 3.571-.411 3.572.795 3.57.63 3.572 1.06 3.571.662 3.571-.13 3.572-1.46 3.57-.804 3.572-2.063 3.571.353 3.571.662 3.572-.684 3.57-1.607 3.572-2.198 3.571-.78 3.571-2.18 3.572 2.207 3.57-6.035 3.572 2.928 3.571.385 3.571-.277 3.572-1.936 3.57-2.295 3.572 3.133 3.571-1.746 3.571 4.394 3.572.56 3.57-2.348 7.143-16.224 3.571-8.875 3.572 4.995 3.57 7.175 3.572-1.922 3.571-3.34 3.571-7.023 3.572-11.936 3.57-.022 3.572 6.617 3.571-4.768 3.571 3.242 3.572 15.879 3.57-18.044 3.572-26.123 3.571 2.018 3.571-8.342 3.572 4.291 3.57 20.03 3.572-19.346 3.571 7.958 3.571 4.716 3.572 4.11 3.57.78 3.572 6.59 3.571-4.9 3.571-4.295 3.572-1.015 3.57 5.41 3.572-32.985 3.571-24.165 3.571 24.116 3.572 14.208 3.57-6.517 3.572 9.922 3.571 2.867 3.571-2.643 3.572 1.632 3.57-11.53 3.572-11.035 3.571-.14 3.571-4.586 7.143 4.715 3.571 8.63 3.571-19.739 3.571-22.084 3.572-6.317 3.57 21.044 3.572-2.218 3.571-4.138 3.571 1.871 3.572 6.848 3.57-4.77 3.572-9.384 3.571 8.626 3.571-2.039 3.572-8.935 3.57-8.277 3.572 13.917 3.571-9.468 3.571 28.341 3.572-35.287 3.57-62.186 3.572 1.802 3.571 22.297 3.571 3.797 3.572-3.256 3.57-11.219 3.572 22.272 3.571 9.493 3.571 6.82 3.572 21.644 3.57 63.863 7.143-46.832 3.571-26.463 3.572-1.314 3.57 12.832 3.572 64.45 3.571-24.272 7.143-52.313 3.57 14.79 3.572-25.204 3.571 7.635 3.571-14.254 3.572 20.687 3.57-15.829 3.572 76.962 3.571 32.92 3.571 3.715 3.572-5.36 3.57-21.6 3.572-10.445 3.571 7.306 3.571 24.818 3.572 1.322 3.57-3.981 3.572 18.279 3.571-17.909 3.571-22.635 3.572-21.842 3.57 11.315 3.572 34.326 3.571 4.336 3.571-1.613 3.572-4.8 7.142-6.923 3.571-9.348 3.571 15.532 3.572 20.079 3.57 11.271 3.572 6.245 3.571.156 3.571-5.599 7.143-7.036 3.571-1.995 3.571-3.716 3.571-3.193 3.572 7.159 3.57 6.624 3.572-3.705 3.571 9.765 3.571 2.23 3.572.709 3.57 1.219 3.572-3.78 3.571-1.818 3.571-.977 3.572 5.424 3.57 4.515 3.572 1.215 3.571-.328 3.571-2.282 3.572.985 3.57 1.744 3.572.372 3.571-.655 3.571.142 3.572.355 3.57-.655 3.572.095 3.571.55 3.571.206 7.143.075 7.142-1.65 3.571-.44 7.143.143 3.571 3.833 3.571.626 3.571.085 10.714-.078 10.714-.015 7.142.1 7.142.147 3.572.01h0" fill="none" opacity=".4" stroke="#1f77b4" stroke-dasharray="12.8,3.2,2,3.2" stroke-width="2" id="line2d_35"/><path clip-path="url(#pee681d32a3)" d="M49.807 155.533l3.571-44.568 3.572-2.395 3.57-.216 3.572 7.35 3.571.21 3.571-.816 3.572 1 3.57-.926 3.572-1.15 3.571 2.774 3.571 1.299 3.572-.066 3.57 1.76 3.572 7.783 3.571 1.799 3.571 7.324 3.572 13.894 3.57 15.783 3.572 11.266 3.571.278 3.571-.45 3.572 3.6 3.57 2.692 3.572.51 3.571 1.46 3.571-.793 3.572-7.35 3.57-13.454 3.572 13.656 3.571 6.102 3.571-10.07 3.572-4.02 3.57 2.158 3.572 27.582 3.571-1.153 3.571-6.844 3.572 15.99 3.57 28.1 3.572 10.434 3.571-1.703 3.571 3.674 3.572 7.576 3.57 16.179 3.572 9.66 3.571 1.29 3.571 1.809 3.572-2.292 3.57-4.246 3.572-2.132 3.571-1.242 3.571 3.464 3.572 2.314 3.57 2.04 3.572 1.493 3.571-.602 3.571-.322 3.572 1.251 3.57 1.43 3.572 1.586 3.571.657 3.571-.04 3.572-.668 3.57-.448 3.572-1.397 3.571.561 3.571.333 3.572-.685 3.57-1.33 3.572-1.46 3.571-.384 3.571-1.67 3.572 1.64 3.57-4.349 3.572 1.71 3.571.038 3.571-.307 3.572-1.218 3.57-1.643 3.572 2.643 3.571-1.481 3.571 3.484 3.572.653 3.57-1.446 3.572-2.827 3.571-4.023 3.571-6.38 3.572 1.903 3.57 3.177 3.572-3.627 3.571-2.756 3.571-4.112 3.572-8.794 3.57 2.314 3.572 9.427 3.571-.36 3.571 2.331 3.572 7.717 3.57-11.615 3.572-20.271 3.571 2.043 3.571-7.968 3.572 1.925 3.57 13.03 3.572-18.271 3.571 4.348 3.571 5.116 7.143 6.42 3.571 7.428 3.571-4.376 3.571-1.892 3.572-.097 3.57 5.384 3.572-28.201 3.571-17.625 3.571 18.638 3.572 10.79 3.57-4.423 3.572 9.716 3.571 3.98 3.571 1.073 3.572 1.537 3.57-6.587 3.572-5.61 3.571 1.24 3.571-2.249 3.572 3.414 3.57 2.601 3.572 3.628 3.571-14.8 3.571-17.787 3.572-9.16 3.57 14.831 3.572-4.275 3.571-4.627 3.571 1.041 3.572 4.888 3.57-3.198 3.572-5.283 3.571 7.908 3.571-2.369 3.572-4.208 3.57-9.8 3.572 10.695 3.571-8.5 3.571 17.75 3.572-33.02 3.57-64.68 3.572-3.375 3.571 21.459 3.571 3.633 3.572-5.03 3.57-11.396 3.572 12.6 3.571.83 3.571-7.735 3.572 6.917 3.57 57.049 3.572-18.025 3.571-22.103 3.571-21.109 3.572.495 3.57 14.073 3.572 78.803 3.571-12.95 3.571-20.423 3.572-22.445 3.57 15.042 3.572-21.893 3.571 9.41 3.571-11.237 3.572 19.835 3.57-17.317 3.572 70.16 3.571 24.755 3.571 3.762 3.572-1.584 3.57-14.273 3.572-12.634 3.571.876 3.571 17.468 3.572.798 3.57-3.015 3.572 13.448 3.571-17.488 3.571-21.66 3.572-25.59 3.57 8.3 3.572 30.544 3.571 4.215 3.571-1.832 3.572-7.817 3.57-4.464 3.572-6.056 3.571-10.954 3.571 17.593 3.572 25.26 3.57 13.351 3.572 7.829 3.571-.26 3.571-8.537 3.572-6.3 3.57-6.031 3.572-4.034 3.571-5.124 3.571-4.649 3.572 10.59 3.57 11.072 3.572-5.812 3.571 14.36 3.571 2.976 3.572.88 3.57 1.83 3.572-6.367 3.571-3.813 3.571-3.223 7.143 18.378 3.571 2.323 3.571-.874 3.571-4.943 3.572 1.471 3.57 3.946 3.572.243 3.571-1.531 3.571.388 3.572.989 3.57-1.347 3.572.247 3.571 1.266 3.571.55 3.572.172 3.57.01 3.572-1.395 3.571-2.016 3.571-1.104 3.572.242 3.57-.114 3.572 8.784 3.571 1.83 3.571.271 3.572-.068 3.57-.191 3.572.196 7.142.096 3.572-.107 7.142.211 3.571.261 7.143.134h0" fill="none" opacity=".4" stroke="#ff7f0e" stroke-dasharray="12.8,3.2,2,3.2" stroke-width="2" id="line2d_36"/><path clip-path="url(#pee681d32a3)" d="M49.807 145.257l3.571-46.694 3.572-9.243 3.57 3.956 3.572 14.293 3.571 1.93 3.571.365 3.572 1.545 3.57-.08 3.572.592 3.571 2.32 3.571 1.497 3.572.512 3.57 1.896 3.572 4.12 3.571-2.165 3.571 3.096 3.572 9.609 3.57 11.583 7.143-2.685 3.571.627 3.572 6.828 3.57 2.656 3.572.758 3.571 4.752 3.571 3.733 3.572-2.94 3.57-7.377 3.572 17.346 3.571 5.818 3.571-10.883 3.572-5.054 3.57-2.14 3.572 30.06 3.571-4.038 3.571-9.012 3.572 19.593 3.57 29.402 3.572 13.58 3.571-1.386 3.571 9.11 3.572 12.024 3.57 18.238 3.572 10.974 3.571.355 3.571 1.143 3.572-2.902 3.57-5.22 3.572-9.568 3.571-6.068 7.143 4.317 3.57 2.887 3.572 1.645 3.571-2.078 3.571-1.64 3.572 2.164 3.57 2.856 3.572 1.522 3.571.909 3.571-.89 3.572-2.508 3.57-1.91 3.572-5.413 3.571.785 3.571.355 3.572-2.416 3.57-3.167 3.572-4.445 3.571-.33 3.571-4.04 3.572 5.807 3.57-12.022 3.572 6.434 3.571.175 3.571-1.184 3.572-4.182 3.57-6.637 3.572 3.649 3.571-4.162 3.571 12.394 3.572 5.585 3.57-.875 3.572-8.698 3.571-23.314 3.571-27.427 3.572-1.602 3.57 5.13 3.572-15.634 3.571-8.977 3.571-15.049 3.572-23.522 3.57 1.133 3.572 11.681 3.571-4.84 3.571 1.63 3.572 34.376 7.142-56.436 3.571 4.07 3.571-15.783 3.572-.004 3.57 16.344 3.572-34.862 3.571 1.776 3.571-.226 3.572 1.743 3.57-2.208 3.572 4.56 3.571-5.87 3.571-3.813 3.572.394 3.57 7.27 3.572-18.68 3.571-9.547 3.571 18.786 3.572 15.67 3.57-2.64 3.572 18.55 3.571 10.199 3.571 5.776 3.572 9.015 3.57-4.955 3.572 5.657 3.571 8.065 3.571 5.403 3.572 12.205 3.57 9.293 3.572 20.107 3.571-15.18 3.571-19.575 3.572-1.265 3.57 23.272 3.572 3.6 3.571-.434 3.571 6.229 3.572 9.114 3.57-2.057 3.572-5.322 3.571 4.862 3.571-3.988 3.572-11.288 3.57-9.589 3.572 9.062 3.571-13.278 3.571 20.702 3.572-44.383 3.57-65.475 3.572 4.109 3.571 18.73 3.571-1.044 3.572-5.333 3.57-12.587 3.572 15.061 3.571 8.019 3.571 4.19 3.572 19.658 3.57 69.822 3.572-34.081 3.571-29.667 3.571-27.075 3.572-5.257 3.57 10.23 3.572 74.395 3.571-26.298 3.571-29.574 3.572-27.16 3.57 13.15 3.572-27.527 3.571 4.552 3.571-11.997 3.572 20.533 3.57-8.04 3.572 93.752 3.571 44.144 3.571 5.73 3.572-6.318 3.57-25.291 3.572-17.625 3.571 6.079 3.571 32.25 3.572-.304 3.57-3.066 3.572 24.978 3.571-24.771 7.143-56.53 3.57 10.508 3.572 39.62 3.571 5.23 3.571-4.037 3.572-7.403 7.142-12.736 3.571-9.792 3.571 27.105 3.572 30.634 3.57 16.703 3.572 9.027 3.571-.501 3.571-9.314 7.143-13.33 3.571-5.091 3.571-6.139 3.571-4.55 3.572 11.94 3.57 10.153 3.572-2.998 3.571 15.296 3.571 2.62 3.572-.481 3.57 1.87 3.572-9.34 3.571-4.285 3.571-3.062 3.572 11.437 3.57 10.525 3.572 2.355 3.571-1.179 3.571-6.171 3.572 2.093 3.57 4.316 3.572.262 3.571-2.54 7.143 1.746 3.57-2.263 3.572.377 3.571 1.76 3.571.506 3.572.106 3.57.492 3.572-2.352 3.571-2.12 3.571-1.115 7.143.948 3.571 10.431 3.571 1.693 3.571.245 7.143-.376 7.142.278 3.571.026 3.572-.123 7.142.275 3.571.285 7.143.133h0" fill="none" stroke="#2ca02c" stroke-dasharray="12.8,3.2,2,3.2" stroke-width="2" id="line2d_37"/><path clip-path="url(#pee681d32a3)" d="M49.807 190.606l3.571-30.16 3.572-16.81 3.57-5.795 3.572 7.058 3.571 2.668 7.143 4.797 3.57 1.374 7.143 1.538 3.571-2.649 3.572-4.476 3.57-3.231 3.572-4.21 3.571-1.89 3.571 3.103 3.572 6.63 3.57 17.31 3.572 8.028 3.571.108 3.571-.051 3.572 6.509 3.57 2.132 3.572-2.486 3.571 1.624 3.571 1.07 3.572-4.044 3.57-8.159 3.572 6.073 3.571-1.286 3.571-12.98 3.572 1.346 3.57 2.114 3.572 24.96 3.571-5.397 3.571-4.11 3.572 15.572 3.57 21.877 3.572 9.656 3.571-.491 3.571-1.539 3.572 6.013 3.57 20.478 3.572 9.89 3.571-2.396 3.571 1.508 3.572-8.64 7.142-29.685 3.571-6.907 3.571 6.983 3.572 4.68 3.57 4.983 3.572 3.29 3.571-1.683 3.571-.939 3.572 5.33 3.57 2.987 3.572 8.091 3.571 3.483 3.571.842 3.572-1.444 3.57-1.008 3.572-8.045 3.571-.756 3.571 1.325 3.572-2.786 3.57-3.094 3.572-8.251 3.571-.159 3.571-4.127 3.572 5.836 3.57-12.947 3.572 7.932 3.571 1.196 3.571-.536 3.572-1.157 3.57-6.157 3.572.186 3.571-5.857 3.571 9.645 3.572 1.66 3.57-.16 3.572-13.235 3.571-15.357 3.571-21.532 3.572.952 3.57 6.254 3.572-10.58 3.571-5.278 3.571-8.11 3.572-15.881 3.57-3.437 3.572 9.904 3.571-10.54 3.571 6.488 3.572 29.566 3.57-21.79 3.572-29.283 3.571-1.21 3.571-9.46 3.572-5.383 3.57 14.757 3.572-24.65 3.571 3.781 3.571 3.045 3.572 1.768 3.57.46 3.572 10.394 3.571-4.469 3.571-3.236 3.572.692 3.57 4.746 3.572-24.231 3.571-17.38 7.143 24.291 3.57-5.02 3.572 7.225 3.571 4.465 3.571-.354 3.572 6.464 3.57-4.854 3.572-4.03 3.571 3.518 3.571-3.648L503.35 107l3.57 7.07 3.572 10.73 7.142-27.826 3.572-8.324 3.57 15.615 3.572.03 3.571-1.259 3.571 2.995 3.572 7.074 3.57-3.235 3.572-4.14 3.571 9.449 3.571.958 3.572-3.436 3.57-6.044 3.572 10.587 3.571-5.762 3.571 20.652 3.572-24.637 3.57-40.276 3.572-2.657 3.571 12.685 3.571 2.971 3.572-1.791 3.57-6.574 3.572 12.294 3.571 14.241 3.571 16.066 3.572 25.335 3.57 62.188 3.572-29.728 7.142-54.443 3.572-7.466 3.57 6.098 3.572 66.013 3.571-15.915 7.143-51.152 3.57 6.31 3.572-23.845 3.571 2.51 3.571-12.773 3.572 15.893 3.57-8.275 3.572 75.842 3.571 46.622 3.571 7.3 3.572-8.26 3.57-28.131 3.572-20.187 3.571 7.11 3.571 28.497 3.572 5.226 3.57-6.236 3.572 30.369 3.571-28.142 3.571-32.469 3.572-27.048 3.57 9.375 3.572 38.707 3.571 4.475 3.571-3.91 3.572-10.878 3.57-7.463 3.572-4.518 3.571-15.045 3.571 20.473 3.572 36.724 3.57 27.682 3.572 16.452 3.571-1.019 3.571-16.838 3.572-12.594 3.57-10.751 3.572-8.543 3.571-8.119 3.571-8.703 3.572 13.745 3.57 19.927 3.572-2.83 3.571 25.245 3.571 8.453 3.572 2.914 3.57.246 3.572-15.524 3.571-5.639 3.571-5.312 7.143 36.833 3.571 5.96 3.571-2.73 3.571-12.249 3.572 2.235 3.57 8.936 3.572 1.47 3.571-3.315 3.571.275 3.572 2.275 3.57-2.807 3.572.844 3.571 2.517 3.571 1.1 3.572 1.373 3.57 1.236 3.572-4.742 3.571-4.22 3.571-2.078 3.572.671 3.57-.188 3.572 20.415 3.571 5.618 3.571 1.018 3.572-.14 3.57-.73 3.572.643 3.571.322 3.571.143 3.572-.271 3.57.211 3.572.39 3.571.854 3.571.355 3.572.122h0" fill="none" stroke="#d62728" stroke-dasharray="12.8,3.2,2,3.2" stroke-width="2" id="line2d_38"/><path clip-path="url(#pee681d32a3)" d="M49.807 154.909l3.571-40.128 3.572-11.878 3.57-5.037 3.572 4.127 3.571 2.502 3.571 2.09 3.572 3.674 3.57 2.119 3.572 4.863 3.571 3.915 3.571 3.033 3.572 1.656 3.57 2.993 3.572 8.075 3.571.845 3.571 7.512 3.572 15.472 3.57 20.799 3.572 8.141 3.571.515 3.571.748 3.572 5.634 3.57 1.424 3.572-3.49 3.571-.18 3.571-2.766 3.572-9.426 3.57-13.853 3.572 10.121 3.571 3.913 3.571-13.593 3.572-8.57 3.57-2.73 3.572 27.471 3.571-3.951 3.571-9.26 3.572 19.506 3.57 30.428 3.572 10.828 3.571-2.137 3.571 7.492 3.572 12.785 3.57 20.533 3.572 12.105 3.571 1.09 3.571 1.666 3.572-2.4 3.57-5.644 3.572-9.147 3.571-4.638 3.571 3.122 7.143 5.11 3.571 1.257 3.571-2.114 3.571-1.697 3.572 1.497 3.57 1.88 3.572 1.563 3.571.872 3.571-1.095 3.572-3.162 3.57-1.96 3.572-6.462 3.571.197 3.571-.352 3.572-2.942 3.57-4.87 3.572-6.93 3.571-2.422 3.571-6.027 3.572 6.51 3.57-15.413 3.572 4.928 3.571-.845 3.571-1.177 3.572-6.143 3.57-6.488 3.572 4.858 3.571-5.85 3.571 15.02 3.572 4.98 3.57-5.535 3.572-9.112 3.571-24.943 3.571-21.682 3.572 4.517 3.57 8.812 3.572-10.647 3.571-6.86 3.571-8.734 3.572-20.505 3.57 7.801 3.572 16.9 3.571 1.883 3.571-.552 3.572 27.413 3.57-33.077 3.572-31.526 3.571 5.633 3.571-14.267 3.572 7.346 3.57 22.172 3.572-28.328 3.571 7.084 3.571 5.687 3.572 7.448 3.57 3.793 3.572 10.04 3.571-7.462 3.571-2.43 3.572.693 3.57 12.06 3.572-45.567 3.571-11.746 3.571 26.197 3.572 16.206 3.57-4.243 3.572 18.392 3.571 8.313 3.571 4.729 3.572 1.013 3.57-10.063 3.572-.064 3.571 4.824 3.571 5.602 3.572 7.01 3.57 3.137 3.572 5.04 3.571-19.158 3.571-21.068 3.572.96 3.57 16.561 3.572 1.77 3.571-2.497 3.571 5.04 3.572 7.895 3.57-1.033 3.572-3.754 3.571 3.37 3.571-4.489 3.572-7.428 3.57-10.763 3.572 8.05 3.571-14.252 3.571 22.59 3.572-34.07 3.57-52.994 3.572 16.63 3.571 20.99 3.571-2.121 3.572-6.084 3.57-11.19 3.572 24.116 3.571 16.013 3.571 14.11 3.572 26.91 3.57 57.262 3.572-23.934 3.571-19.452 3.571-22.821 3.572-4.38 3.57 15.199 3.572 55.826 3.571-19.6 3.571-26.298 3.572-28.674 3.57 12.727 3.572-31.771 3.571 4.296 3.571-13.198 3.572 23.695 3.57-8.043 3.572 81.275 3.571 27.141 3.571 3.748 3.572-3.474 3.57-16.474 3.572-15.613 3.571 5.119 3.571 21.562 3.572.694 3.57-1.822 3.572 16.05 3.571-13.449 3.571-18.515 3.572-23.026 3.57 6.34 3.572 27.127 3.571 3.836 7.143-6.531 3.57-4.966 3.572-4.503 3.571-7.797 3.571 17.212 3.572 20.446 3.57 10.042 3.572 6.201 3.571.265 3.571-3.857 7.143-6.527 7.142-7.23 3.571-3.315 7.143 11.257 3.571-1.031 3.571 7.773 3.571 1.972 3.572.072 3.57.716 3.572-4.836 3.571-2.696 3.571-2.508 3.572 5.602 3.57 5.884 3.572 1.907 3.571-.497 3.571-2.984 3.572.647 3.57 2.142 3.572.193 3.571-1.15 7.143.528 3.57-1.138 3.572.011 3.571.855 10.714.33 7.142-3.173 3.571-.975 3.572.226 3.57-.081 3.572 7.013 3.571 1.197 3.571.184 10.714-.115 7.142.084 3.572-.066 7.142.15 7.142.223 3.572.019h0" fill="none" opacity=".4" stroke="#9467bd" stroke-dasharray="12.8,3.2,2,3.2" stroke-width="2" id="line2d_39"/><path clip-path="url(#pee681d32a3)" d="M49.807 221.327l3.571-48.669 7.143-11.227 3.571 7.108 3.571 1.794 3.571.748 3.572 4.367 3.57 1.164 3.572 3.52 3.571 6.789 3.571 6.494 7.143 8.055 3.571 6.467 3.571-.183 3.571 4.707 3.572 7.98 3.57-1.847 3.572 5.827 3.571 2.837 3.571 2.096 3.572.465 3.57-.91 3.572.396 3.571 2.736 3.571 1.854 3.572-2.185 3.57-8.349 3.572 11.652 3.571 5.188 3.571-7.602 3.572 1.283 3.57 3.828 3.572 19.464 7.142-1.995 7.143 21.444 3.571 6.254 3.571 1.2 3.571 1.077 3.572 2.152 3.57 3.588 3.572 2.378 7.142.519 3.572-.158 3.57-.622 3.572-1.107 3.571-.65 7.143.618 7.142.632 7.142-.4 3.572.09 3.57-.173 3.572.047 3.571.201 3.571-.025 3.572-.56 3.57-.213 3.572-.745 3.571.023 3.571.329 3.572-.11 3.57-.663 3.572-1.158 7.142-1.594 3.572.196 3.57-2.453 3.572 1.087 7.142.652 7.143-2.22 3.571 1.06 3.571-.663 3.571 2.083 3.572.097 3.57-1.352 3.572-3.572 3.571-2.473 3.571-4.835 3.572.771 3.57 2.6 3.572-3.909 3.571-2.592 3.571-5.174 3.572-10.2 3.57-7.253 3.572-.045 3.571-12.141 3.571 4.066 3.572 16.632 3.57-16.028 3.572-18.916 3.571 3 3.571-8.454 3.572-4.729 3.57 10.937 3.572-32.821 3.571 5.717 3.571.122 3.572 3.059 3.57-3.291 3.572 11.537 3.571-1.522 3.571-3.799 3.572 4.477 3.57 4.165 3.572-23.826 3.571-20.538 3.571 29.819 3.572 19.404 3.57-5.162 3.572 9.74 3.571 4.794 3.571-1.014 3.572 8.51 3.57-5.507 3.572-.457 3.571 4.549 3.571-1.886 3.572 6.926 3.57 5.498 3.572 10.465 3.571-9.363 3.571-11.278 3.572-2.366 3.57 17.436 3.572.36 3.571-.128 3.571 2.4 3.572 4.276 3.57-.927 3.572-5.037 3.571 3.412 3.571-3.105 3.572-7.611 3.57-5.454 3.572 6.4 3.571-6.607 3.571 8.205 3.572-27.591 3.57-61.536 3.572-3.347 3.571 20.783 3.571.695 3.572-5.525 3.57-13.416 3.572 7.137 3.571-1.608 3.571-5.988 3.572 9.117 3.57 49.644 3.572-16.298 3.571-19.85 3.571-25.805 3.572-5.185 3.57 6.668 3.572 57.442 3.571-16.137 3.571-20.898 3.572-23.122 3.57 6.38 3.572-23.987 3.571 2.436 3.571-12.702 3.572 15.873 3.57-12.767 3.572 74.208 3.571 32.28 3.571 6.527 3.572-3.315 3.57-20.967 3.572-17.564 3.571.463 3.571 23.492 3.572 3.091 3.57-.689 3.572 23.428 3.571-19.441 3.571-22.684 3.572-24.755 3.57 5.1 3.572 28.587 3.571 5.523 3.571-1.482 3.572-5.689 3.57-4.415 3.572-6.111 3.571-9.473 3.571 21.527 3.572 30.485 3.57 19.113 3.572 12.875 3.571.58 3.571-7.218 7.143-10.297 10.713-14.057 3.572 8.615 3.57 10.373 3.572-3.054 3.571 12.695 3.571 4.68 3.572 1.44 3.57 2.281 3.572-4.36 3.571-4.102 3.571-3.355 3.572 7.612 3.57 8.594 3.572 3.713 3.571-.708 3.571-3.667 3.572.601 3.57 2.976 3.572.644 3.571-1.642 3.571.078 3.572.892 3.57-1.344 3.572.028 3.571 1.375 3.571.584 3.572.407 3.57.54 7.143-3.184 3.571-1.093 3.572.021 3.57.647 3.572 7.456 3.571 1.633 3.571.3 3.572-.063 3.57-.181 3.572.193 7.142.106 3.572-.073 7.142.214 3.571.19 7.143.102h0" fill="none" opacity=".4" stroke="#1f77b4" stroke-dasharray="2,3.3" stroke-width="2" id="line2d_40"/><path clip-path="url(#pee681d32a3)" d="M49.857 295.074v-271.8" fill="none" stroke="#2ca02c" stroke-dasharray="19.2,4.8,3,4.8" stroke-width="3" id="line2d_41"/><path clip-path="url(#pee681d32a3)" d="M192.705 295.074v-271.8" fill="none" stroke="#9467bd" stroke-dasharray="11.1,4.8" stroke-width="3" id="line2d_42"/><path clip-path="url(#pee681d32a3)" d="M570.657 295.074v-271.8" fill="none" stroke="#d62728" stroke-dasharray="19.2,4.8,3,4.8" stroke-width="3" id="line2d_43"/><path d="M49.807 295.074v-271.8" fill="none" stroke="#000" stroke-linecap="square" stroke-width="1.25" id="patch_3"/><path d="M942.607 295.074v-271.8" fill="none" stroke="#000" stroke-linecap="square" stroke-width="1.25" id="patch_4"/><path d="M49.807 295.074h892.8" fill="none" stroke="#000" stroke-linecap="square" stroke-width="1.25" id="patch_5"/><path d="M49.807 23.274h892.8" fill="none" stroke="#000" stroke-linecap="square" stroke-width="1.25" id="patch_6"/><g id="text_15"><defs><path d="M5.516 54.688h42.672v-8.204L14.406 7.172h33.782V0H4.297v8.203l33.797 39.313H5.516z" id="DejaVuSans-7a"/><path d="M2.984 54.688H12.5L29.594 8.797l17.093 45.89h9.516L35.687 0H23.485z" id="DejaVuSans-76"/><path d="M40.578 39.313Q47.656 37.797 51.625 33q3.984-4.781 3.984-11.813 0-10.78-7.422-16.703-7.421-5.906-21.093-5.906-4.578 0-9.438.906-4.86.907-10.031 2.72v9.515q4.094-2.39 8.969-3.61 4.89-1.218 10.218-1.218 9.266 0 14.125 3.656 4.86 3.656 4.86 10.64 0 6.454-4.516 10.079-4.515 3.64-12.562 3.64h-8.5v8.11h8.89q7.266 0 11.125 2.906 3.86 2.906 3.86 8.375 0 5.61-3.985 8.61-3.968 3.015-11.39 3.015-4.063 0-8.703-.89-4.641-.876-10.203-2.72v8.782q5.624 1.562 10.53 2.344 4.907.78 9.25.78 11.235 0 17.766-5.109 6.547-5.093 6.547-13.78 0-6.063-3.468-10.235-3.47-4.172-9.86-5.782z" id="DejaVuSans-33"/><path d="M54.89 33.016V0h-8.984v32.719q0 7.765-3.031 11.61-3.031 3.858-9.078 3.858-7.281 0-11.484-4.64-4.204-4.625-4.204-12.64V0H9.08v75.984h9.03V46.188q3.235 4.937 7.594 7.374Q30.078 56 35.797 56q9.422 0 14.25-5.828 4.844-5.828 4.844-17.156z" id="DejaVuSans-68"/><path d="M48.781 52.594v-8.407q-3.812 2.11-7.64 3.157-3.828 1.047-7.735 1.047-8.75 0-13.593-5.547-4.829-5.532-4.829-15.547 0-10.016 4.829-15.563 4.843-5.53 13.593-5.53 3.907 0 7.735 1.046 3.828 1.047 7.64 3.156V2.094Q45.016.344 40.984-.531q-4.015-.89-8.562-.89-12.36 0-19.64 7.765-7.266 7.765-7.266 20.953 0 13.375 7.343 21.031Q20.22 56 33.016 56q4.14 0 8.093-.86 3.953-.843 7.672-2.546z" id="DejaVuSans-63"/><path d="M41.11 46.297q-1.516.875-3.297 1.281Q36.03 48 33.89 48q-7.625 0-11.703-4.953-4.079-4.953-4.079-14.234V0H9.08v54.688h9.03v-8.5q2.844 4.984 7.375 7.39Q30.031 56 36.531 56q.922 0 2.047-.125 1.125-.11 2.484-.36z" id="DejaVuSans-72"/><path d="M9.078 75.984h9.031V31.11l26.813 23.578H56.39l-29-25.578L57.625 0H45.906L18.11 26.703V0H9.08z" id="DejaVuSans-6b"/></defs><g transform="matrix(.14 0 0 -.14 53.428 17.838)"><use xlink:href="#DejaVuSans-7a"/><use x="52.49" xlink:href="#DejaVuSans-76"/><use x="111.67" xlink:href="#DejaVuSans-74"/><use x="150.879" xlink:href="#DejaVuSans-33"/><use x="214.502" xlink:href="#DejaVuSans-68"/><use x="277.881" xlink:href="#DejaVuSans-61"/><use x="339.16" xlink:href="#DejaVuSans-74"/><use x="378.369" xlink:href="#DejaVuSans-63"/><use x="433.35" xlink:href="#DejaVuSans-68"/><use x="496.729" xlink:href="#DejaVuSans-6c"/><use x="524.512" xlink:href="#DejaVuSans-75"/><use x="587.891" xlink:href="#DejaVuSans-72"/><use x="629.004" xlink:href="#DejaVuSans-6b"/><use x="686.867" xlink:href="#DejaVuSans-65"/><use x="748.391" xlink:href="#DejaVuSans-72"/></g></g><g transform="matrix(.14 0 0 -.14 196.276 17.838)" id="text_16"><use xlink:href="#DejaVuSans-7a"/><use x="52.49" xlink:href="#DejaVuSans-76"/><use x="111.67" xlink:href="#DejaVuSans-70"/><use x="175.146" xlink:href="#DejaVuSans-31"/><use x="238.77" xlink:href="#DejaVuSans-30"/><use x="302.393" xlink:href="#DejaVuSans-68"/><use x="365.771" xlink:href="#DejaVuSans-61"/><use x="427.051" xlink:href="#DejaVuSans-74"/><use x="466.26" xlink:href="#DejaVuSans-63"/><use x="521.24" xlink:href="#DejaVuSans-68"/></g><g transform="matrix(.14 0 0 -.14 574.228 17.838)" id="text_17"><use xlink:href="#DejaVuSans-7a"/><use x="52.49" xlink:href="#DejaVuSans-76"/><use x="111.67" xlink:href="#DejaVuSans-74"/><use x="150.879" xlink:href="#DejaVuSans-61"/><use x="212.158" xlink:href="#DejaVuSans-6e"/><use x="275.537" xlink:href="#DejaVuSans-74"/><use x="314.746" xlink:href="#DejaVuSans-69"/><use x="342.529" xlink:href="#DejaVuSans-6d"/><use x="439.941" xlink:href="#DejaVuSans-65"/><use x="501.465" xlink:href="#DejaVuSans-63"/><use x="556.445" xlink:href="#DejaVuSans-68"/></g><g id="legend_1"><path d="M957.035 290.409h138.385V28.774H957.035z" fill="#fff" opacity=".8" stroke="#ccc" id="patch_7"/><path d="M961.435 37.682h22" fill="none" opacity=".4" stroke="#1f77b4" stroke-linecap="square" stroke-width="2" id="line2d_44"/><g id="text_18"><defs><path d="M45.406 27.984q0 9.766-4.031 15.125-4.016 5.375-11.297 5.375-7.219 0-11.25-5.375-4.031-5.359-4.031-15.125 0-9.718 4.031-15.093t11.25-5.375q7.281 0 11.297 5.375 4.031 5.375 4.031 15.093zm8.985-21.203q0-13.953-6.203-20.765Q42-20.797 29.203-20.797q-4.734 0-8.937.703-4.203.703-8.157 2.172v8.735q3.954-2.141 7.813-3.157 3.86-1.031 7.86-1.031 8.843 0 13.234 4.61 4.39 4.609 4.39 13.937v4.453q-2.781-4.844-7.125-7.234Q33.938 0 27.875 0 17.828 0 11.672 7.656q-6.156 7.672-6.156 20.328 0 12.688 6.156 20.344Q17.828 56 27.875 56q6.063 0 10.406-2.39 4.344-2.391 7.125-7.22v8.297h8.985z" id="DejaVuSans-67"/></defs><g transform="matrix(.11 0 0 -.11 992.235 41.532)"><use xlink:href="#DejaVuSans-31"/><use x="63.623" xlink:href="#DejaVuSans-30"/><use x="127.246" xlink:href="#DejaVuSans-68"/><use x="190.625" xlink:href="#DejaVuSans-61"/><use x="251.904" xlink:href="#DejaVuSans-74"/><use x="291.113" xlink:href="#DejaVuSans-63"/><use x="346.094" xlink:href="#DejaVuSans-68"/><use x="409.473" xlink:href="#DejaVuSans-6c"/><use x="437.256" xlink:href="#DejaVuSans-69"/><use x="465.039" xlink:href="#DejaVuSans-6e"/><use x="528.418" xlink:href="#DejaVuSans-67"/></g></g><path d="M961.435 53.828h22" fill="none" opacity=".4" stroke="#ff7f0e" stroke-linecap="square" stroke-width="2" id="line2d_46"/><g id="text_19"><defs><path d="M32.172-5.078q-3.797-9.766-7.422-12.735-3.61-2.984-9.656-2.984H7.906v7.516h5.282q3.703 0 5.75 1.765Q21-9.766 23.483-3.219l1.61 4.094-22.11 53.813H12.5l17.094-42.766 17.093 42.766h9.516z" id="DejaVuSans-79"/></defs><g transform="matrix(.11 0 0 -.11 992.235 57.678)"><use xlink:href="#DejaVuSans-31"/><use x="63.623" xlink:href="#DejaVuSans-32"/><use x="127.246" xlink:href="#DejaVuSans-68"/><use x="190.625" xlink:href="#DejaVuSans-61"/><use x="251.904" xlink:href="#DejaVuSans-74"/><use x="291.113" xlink:href="#DejaVuSans-63"/><use x="346.094" xlink:href="#DejaVuSans-68"/><use x="409.473" xlink:href="#DejaVuSans-68"/><use x="472.852" xlink:href="#DejaVuSans-79"/><use x="532.031" xlink:href="#DejaVuSans-64"/><use x="595.508" xlink:href="#DejaVuSans-72"/><use x="636.621" xlink:href="#DejaVuSans-61"/><use x="697.9" xlink:href="#DejaVuSans-73"/></g></g><path d="M961.435 69.974h22" fill="none" opacity=".4" stroke="#2ca02c" stroke-linecap="square" stroke-width="2" id="line2d_48"/><g id="text_20"><defs><path d="M30.61 48.39q-7.22 0-11.422-5.64-4.204-5.64-4.204-15.453 0-9.813 4.172-15.453 4.188-5.64 11.453-5.64 7.188 0 11.375 5.655 4.203 5.672 4.203 15.438 0 9.719-4.203 15.406-4.187 5.688-11.375 5.688zm0 7.61q11.718 0 18.406-7.625 6.703-7.61 6.703-21.078 0-13.422-6.703-21.078-6.688-7.64-18.407-7.64-11.765 0-18.437 7.64-6.656 7.656-6.656 21.078 0 13.469 6.656 21.078Q18.844 56 30.609 56z" id="DejaVuSans-6f"/></defs><g transform="matrix(.11 0 0 -.11 992.235 73.824)"><use xlink:href="#DejaVuSans-31"/><use x="63.623" xlink:href="#DejaVuSans-32"/><use x="127.246" xlink:href="#DejaVuSans-70"/><use x="190.723" xlink:href="#DejaVuSans-6f"/><use x="251.904" xlink:href="#DejaVuSans-6f"/><use x="313.086" xlink:href="#DejaVuSans-6c"/><use x="340.869" xlink:href="#DejaVuSans-6d"/><use x="438.281" xlink:href="#DejaVuSans-75"/><use x="501.66" xlink:href="#DejaVuSans-74"/><use x="540.869" xlink:href="#DejaVuSans-61"/></g></g><path d="M961.435 86.12h22" fill="none" opacity=".4" stroke="#d62728" stroke-linecap="square" stroke-width="2" id="line2d_50"/><g transform="matrix(.11 0 0 -.11 992.235 89.97)" id="text_21"><use xlink:href="#DejaVuSans-32"/><use x="63.623" xlink:href="#DejaVuSans-68"/><use x="127.002" xlink:href="#DejaVuSans-61"/><use x="188.281" xlink:href="#DejaVuSans-74"/><use x="227.49" xlink:href="#DejaVuSans-63"/><use x="282.471" xlink:href="#DejaVuSans-68"/><use x="345.85" xlink:href="#DejaVuSans-6d"/><use x="443.262" xlink:href="#DejaVuSans-75"/><use x="506.641" xlink:href="#DejaVuSans-74"/><use x="545.85" xlink:href="#DejaVuSans-61"/></g><path d="M961.435 102.266h22" fill="none" opacity=".4" stroke="#9467bd" stroke-linecap="square" stroke-width="2" id="line2d_52"/><g id="text_22"><defs><path d="M48.688 27.297q0 9.906-4.079 15.547-4.078 5.64-11.203 5.64-7.14 0-11.218-5.64-4.079-5.64-4.079-15.547 0-9.906 4.078-15.547 4.079-5.64 11.22-5.64 7.124 0 11.202 5.64t4.078 15.547zM18.108 46.39q2.844 4.875 7.157 7.234Q29.594 56 35.594 56q9.968 0 16.187-7.906 6.235-7.907 6.235-20.797T51.78 6.484q-6.218-7.906-16.187-7.906-6 0-10.328 2.375-4.313 2.375-7.157 7.25V0H9.08v75.984h9.03z" id="DejaVuSans-62"/></defs><g transform="matrix(.11 0 0 -.11 992.235 106.116)"><use xlink:href="#DejaVuSans-33"/><use x="63.623" xlink:href="#DejaVuSans-62"/><use x="127.1" xlink:href="#DejaVuSans-61"/><use x="188.379" xlink:href="#DejaVuSans-73"/><use x="240.479" xlink:href="#DejaVuSans-65"/><use x="302.002" xlink:href="#DejaVuSans-70"/><use x="365.479" xlink:href="#DejaVuSans-6f"/><use x="426.66" xlink:href="#DejaVuSans-6f"/><use x="487.842" xlink:href="#DejaVuSans-6c"/><use x="515.625" xlink:href="#DejaVuSans-6c"/><use x="543.408" xlink:href="#DejaVuSans-69"/><use x="571.191" xlink:href="#DejaVuSans-6e"/><use x="634.57" xlink:href="#DejaVuSans-67"/><use x="698.047" xlink:href="#DejaVuSans-73"/></g></g><path d="M961.435 118.412h22" fill="none" opacity=".4" stroke="#1f77b4" stroke-dasharray="7.4,3.2" stroke-width="2" id="line2d_54"/><g transform="matrix(.11 0 0 -.11 992.235 122.262)" id="text_23"><use xlink:href="#DejaVuSans-68"/><use x="63.379" xlink:href="#DejaVuSans-79"/><use x="122.559" xlink:href="#DejaVuSans-64"/><use x="186.035" xlink:href="#DejaVuSans-72"/><use x="227.148" xlink:href="#DejaVuSans-61"/><use x="288.428" xlink:href="#DejaVuSans-73"/></g><path d="M961.435 134.558h22" fill="none" opacity=".4" stroke="#ff7f0e" stroke-dasharray="7.4,3.2" stroke-width="2" id="line2d_56"/><g transform="matrix(.11 0 0 -.11 992.235 138.408)" id="text_24"><use xlink:href="#DejaVuSans-6d"/><use x="97.412" xlink:href="#DejaVuSans-69"/><use x="125.195" xlink:href="#DejaVuSans-64"/><use x="188.672" xlink:href="#DejaVuSans-6d"/><use x="286.084" xlink:href="#DejaVuSans-61"/><use x="347.363" xlink:href="#DejaVuSans-73"/><use x="399.463" xlink:href="#DejaVuSans-73"/><use x="451.563" xlink:href="#DejaVuSans-6c"/><use x="479.346" xlink:href="#DejaVuSans-69"/><use x="507.129" xlink:href="#DejaVuSans-6e"/><use x="570.508" xlink:href="#DejaVuSans-67"/></g><path d="M961.435 150.704h22" fill="none" opacity=".4" stroke="#2ca02c" stroke-dasharray="7.4,3.2" stroke-width="2" id="line2d_58"/><g transform="matrix(.11 0 0 -.11 992.235 154.554)" id="text_25"><use xlink:href="#DejaVuSans-75"/><use x="63.379" xlink:href="#DejaVuSans-6c"/><use x="91.162" xlink:href="#DejaVuSans-74"/><use x="130.371" xlink:href="#DejaVuSans-72"/><use x="171.484" xlink:href="#DejaVuSans-61"/><use x="232.764" xlink:href="#DejaVuSans-73"/></g><path d="M961.435 166.85h22" fill="none" opacity=".4" stroke="#d62728" stroke-dasharray="7.4,3.2" stroke-width="2" id="line2d_60"/><g id="text_26"><defs><path d="M10.984 1.516V10.5q3.72-1.766 7.516-2.688 3.813-.921 7.484-.921 9.766 0 14.907 6.562 5.156 6.563 5.89 19.953-2.828-4.203-7.187-6.453-4.344-2.25-9.61-2.25-10.937 0-17.312 6.61-6.375 6.625-6.375 18.109 0 11.219 6.64 18 6.641 6.797 17.672 6.797 12.657 0 19.313-9.703 6.672-9.688 6.672-28.141 0-17.234-8.188-27.516Q40.234-1.42 26.422-1.42q-3.719 0-7.531.734-3.797.734-7.907 2.203zM30.61 32.422q6.641 0 10.516 4.531 3.89 4.547 3.89 12.469 0 7.86-3.89 12.422-3.875 4.562-10.516 4.562-6.64 0-10.515-4.562-3.875-4.563-3.875-12.422 0-7.922 3.875-12.469 3.875-4.531 10.515-4.531z" id="DejaVuSans-39"/></defs><g transform="matrix(.11 0 0 -.11 992.235 170.7)"><use xlink:href="#DejaVuSans-7a"/><use x="52.49" xlink:href="#DejaVuSans-76"/><use x="111.67" xlink:href="#DejaVuSans-65"/><use x="173.193" xlink:href="#DejaVuSans-39"/><use x="236.816" xlink:href="#DejaVuSans-70"/><use x="300.293" xlink:href="#DejaVuSans-6f"/><use x="361.475" xlink:href="#DejaVuSans-6f"/><use x="422.656" xlink:href="#DejaVuSans-6c"/><use x="450.439" xlink:href="#DejaVuSans-73"/><use x="502.539" xlink:href="#DejaVuSans-70"/><use x="566.016" xlink:href="#DejaVuSans-65"/><use x="627.539" xlink:href="#DejaVuSans-65"/><use x="689.063" xlink:href="#DejaVuSans-64"/></g></g><path d="M961.435 182.996h22" fill="none" stroke="#9467bd" stroke-dasharray="7.4,3.2" stroke-width="2" id="line2d_62"/><g transform="matrix(.11 0 0 -.11 992.235 186.846)" id="text_27"><use xlink:href="#DejaVuSans-7a"/><use x="52.49" xlink:href="#DejaVuSans-76"/><use x="111.67" xlink:href="#DejaVuSans-70"/><use x="175.146" xlink:href="#DejaVuSans-31"/><use x="238.77" xlink:href="#DejaVuSans-30"/><use x="302.393" xlink:href="#DejaVuSans-68"/><use x="365.771" xlink:href="#DejaVuSans-61"/><use x="427.051" xlink:href="#DejaVuSans-74"/><use x="466.26" xlink:href="#DejaVuSans-63"/><use x="521.24" xlink:href="#DejaVuSans-68"/></g><path d="M961.435 199.141h22" fill="none" opacity=".4" stroke="#1f77b4" stroke-dasharray="12.8,3.2,2,3.2" stroke-width="2" id="line2d_64"/><g transform="matrix(.11 0 0 -.11 992.235 202.991)" id="text_28"><use xlink:href="#DejaVuSans-7a"/><use x="52.49" xlink:href="#DejaVuSans-76"/><use x="111.67" xlink:href="#DejaVuSans-74"/><use x="150.879" xlink:href="#DejaVuSans-32"/><use x="214.502" xlink:href="#DejaVuSans-62"/><use x="277.979" xlink:href="#DejaVuSans-61"/><use x="339.258" xlink:href="#DejaVuSans-73"/><use x="391.357" xlink:href="#DejaVuSans-65"/><use x="452.881" xlink:href="#DejaVuSans-67"/><use x="516.357" xlink:href="#DejaVuSans-75"/><use x="579.736" xlink:href="#DejaVuSans-61"/><use x="641.016" xlink:href="#DejaVuSans-72"/><use x="682.113" xlink:href="#DejaVuSans-64"/><use x="745.59" xlink:href="#DejaVuSans-69"/><use x="773.373" xlink:href="#DejaVuSans-61"/><use x="834.652" xlink:href="#DejaVuSans-6e"/></g><path d="M961.435 215.287h22" fill="none" opacity=".4" stroke="#ff7f0e" stroke-dasharray="12.8,3.2,2,3.2" stroke-width="2" id="line2d_66"/><g transform="matrix(.11 0 0 -.11 992.235 219.137)" id="text_29"><use xlink:href="#DejaVuSans-7a"/><use x="52.49" xlink:href="#DejaVuSans-76"/><use x="111.67" xlink:href="#DejaVuSans-74"/><use x="150.879" xlink:href="#DejaVuSans-32"/><use x="214.502" xlink:href="#DejaVuSans-62"/><use x="277.979" xlink:href="#DejaVuSans-61"/><use x="339.258" xlink:href="#DejaVuSans-73"/><use x="391.357" xlink:href="#DejaVuSans-65"/><use x="452.881" xlink:href="#DejaVuSans-75"/><use x="516.26" xlink:href="#DejaVuSans-6c"/><use x="544.043" xlink:href="#DejaVuSans-74"/><use x="583.252" xlink:href="#DejaVuSans-72"/><use x="624.365" xlink:href="#DejaVuSans-61"/></g><path d="M961.435 231.433h22" fill="none" stroke="#2ca02c" stroke-dasharray="12.8,3.2,2,3.2" stroke-width="2" id="line2d_68"/><g transform="matrix(.11 0 0 -.11 992.235 235.283)" id="text_30"><use xlink:href="#DejaVuSans-7a"/><use x="52.49" xlink:href="#DejaVuSans-76"/><use x="111.67" xlink:href="#DejaVuSans-74"/><use x="150.879" xlink:href="#DejaVuSans-33"/><use x="214.502" xlink:href="#DejaVuSans-68"/><use x="277.881" xlink:href="#DejaVuSans-61"/><use x="339.16" xlink:href="#DejaVuSans-74"/><use x="378.369" xlink:href="#DejaVuSans-63"/><use x="433.35" xlink:href="#DejaVuSans-68"/><use x="496.729" xlink:href="#DejaVuSans-6c"/><use x="524.512" xlink:href="#DejaVuSans-75"/><use x="587.891" xlink:href="#DejaVuSans-72"/><use x="629.004" xlink:href="#DejaVuSans-6b"/><use x="686.867" xlink:href="#DejaVuSans-65"/><use x="748.391" xlink:href="#DejaVuSans-72"/></g><path d="M961.435 247.58h22" fill="none" stroke="#d62728" stroke-dasharray="12.8,3.2,2,3.2" stroke-width="2" id="line2d_70"/><g transform="matrix(.11 0 0 -.11 992.235 251.43)" id="text_31"><use xlink:href="#DejaVuSans-7a"/><use x="52.49" xlink:href="#DejaVuSans-76"/><use x="111.67" xlink:href="#DejaVuSans-74"/><use x="150.879" xlink:href="#DejaVuSans-61"/><use x="212.158" xlink:href="#DejaVuSans-6e"/><use x="275.537" xlink:href="#DejaVuSans-74"/><use x="314.746" xlink:href="#DejaVuSans-69"/><use x="342.529" xlink:href="#DejaVuSans-6d"/><use x="439.941" xlink:href="#DejaVuSans-65"/><use x="501.465" xlink:href="#DejaVuSans-63"/><use x="556.445" xlink:href="#DejaVuSans-68"/></g><path d="M961.435 263.725h22" fill="none" opacity=".4" stroke="#9467bd" stroke-dasharray="12.8,3.2,2,3.2" stroke-width="2" id="line2d_72"/><g transform="matrix(.11 0 0 -.11 992.235 267.575)" id="text_32"><use xlink:href="#DejaVuSans-7a"/><use x="52.49" xlink:href="#DejaVuSans-76"/><use x="111.67" xlink:href="#DejaVuSans-74"/><use x="150.879" xlink:href="#DejaVuSans-6d"/><use x="248.291" xlink:href="#DejaVuSans-61"/><use x="309.57" xlink:href="#DejaVuSans-63"/><use x="364.551" xlink:href="#DejaVuSans-72"/><use x="405.633" xlink:href="#DejaVuSans-6f"/></g><path d="M961.435 279.871h22" fill="none" opacity=".4" stroke="#1f77b4" stroke-dasharray="2,3.3" stroke-width="2" id="line2d_74"/><g transform="matrix(.11 0 0 -.11 992.235 283.721)" id="text_33"><use xlink:href="#DejaVuSans-7a"/><use x="52.49" xlink:href="#DejaVuSans-76"/><use x="111.67" xlink:href="#DejaVuSans-74"/><use x="150.879" xlink:href="#DejaVuSans-70"/><use x="214.355" xlink:href="#DejaVuSans-31"/><use x="277.979" xlink:href="#DejaVuSans-68"/><use x="341.357" xlink:href="#DejaVuSans-61"/><use x="402.637" xlink:href="#DejaVuSans-74"/><use x="441.846" xlink:href="#DejaVuSans-63"/><use x="496.826" xlink:href="#DejaVuSans-68"/><use x="560.205" xlink:href="#DejaVuSans-6c"/><use x="587.988" xlink:href="#DejaVuSans-75"/><use x="651.367" xlink:href="#DejaVuSans-72"/><use x="692.48" xlink:href="#DejaVuSans-6b"/><use x="750.344" xlink:href="#DejaVuSans-65"/><use x="811.867" xlink:href="#DejaVuSans-72"/></g></g></g></g><defs><clipPath id="pee681d32a3"><path d="M49.807 23.274h892.8v271.8h-892.8z"/></clipPath></defs></svg>