<svg height="450.711" viewBox="0 0 1102.62 338.034" width="1470.16" xmlns="http://www.w3.org/2000/svg" xmlns:xlink="http://www.w3.org/1999/xlink"><defs><style>*{stroke-linecap:butt;stroke-linejoin:round}</style></defs><g id="figure_1"><path d="M0 338.034h1102.62V0H0z" fill="#fff" id="patch_1"/><g id="axes_1"><path d="M49.807 295.074h892.8v-271.8h-892.8z" fill="#fff" id="patch_2"/><g id="matplotlib.axis_1"><g id="xtick_1"><path clip-path="url(#p9ee6f795ed)" d="M49.807 295.074v-271.8" fill="none" stroke="#b0b0b0" stroke-dasharray="3.7,1.6" id="line2d_1"/><g id="line2d_2"><defs><path d="M0 0v6" id="m933a5b31e2" stroke="#000" stroke-width="1.25"/></defs><use x="49.807" xlink:href="#m933a5b31e2" y="295.074" stroke="#000" stroke-width="1.25"/></g><g id="text_1"><defs><path d="M31.781 66.406q-7.61 0-11.453-7.5Q16.5 51.422 16.5 36.375q0-14.984 3.828-22.484 3.844-7.5 11.453-7.5 7.672 0 11.5 7.5 3.844 7.5 3.844 22.484 0 15.047-3.844 22.531-3.828 7.5-11.5 7.5zm0 7.813q12.266 0 18.735-9.703 6.468-9.688 6.468-28.141 0-18.406-6.468-28.11-6.47-9.687-18.735-9.687-12.25 0-18.718 9.688-6.47 9.703-6.47 28.109 0 18.453 6.47 28.14Q19.53 74.22 31.78 74.22z" id="DejaVuSans-30"/><path d="M10.688 12.406H21V0H10.687z" id="DejaVuSans-2e"/></defs><g transform="matrix(.11 0 0 -.11 41.06 312.932)"><use xlink:href="#DejaVuSans-30"/><use x="63.623" xlink:href="#DejaVuSans-2e"/><use x="95.41" xlink:href="#DejaVuSans-30"/></g></g></g><g id="xtick_2"><path clip-path="url(#p9ee6f795ed)" d="M161.407 295.074v-271.8" fill="none" stroke="#b0b0b0" stroke-dasharray="3.7,1.6" id="line2d_3"/><use x="161.407" xlink:href="#m933a5b31e2" y="295.074" stroke="#000" stroke-width="1.25" id="line2d_4"/><g id="text_2"><defs><path d="M19.188 8.297h34.421V0H7.33v8.297q5.609 5.812 15.296 15.594 9.703 9.797 12.188 12.64 4.734 5.313 6.609 9 1.89 3.688 1.89 7.25 0 5.813-4.078 9.469-4.078 3.672-10.625 3.672-4.64 0-9.797-1.61-5.14-1.609-11-4.89v9.969Q13.767 71.78 18.938 73q5.188 1.219 9.485 1.219 11.328 0 18.062-5.672 6.735-5.656 6.735-15.125 0-4.5-1.688-8.531-1.672-4.016-6.125-9.485-1.218-1.422-7.765-8.187-6.532-6.766-18.453-18.922z" id="DejaVuSans-32"/><path d="M10.797 72.906h38.719v-8.312H19.828v-17.86q2.14.735 4.281 1.094 2.157.36 4.313.36 12.203 0 19.328-6.688 7.14-6.688 7.14-18.11 0-11.765-7.328-18.296-7.328-6.516-20.656-6.516-4.593 0-9.36.781-4.75.782-9.827 2.344v9.922q4.39-2.39 9.078-3.563 4.687-1.171 9.906-1.171 8.453 0 13.375 4.437 4.938 4.438 4.938 12.063 0 7.609-4.938 12.047-4.922 4.453-13.375 4.453-3.953 0-7.89-.875-3.922-.875-8.016-2.735z" id="DejaVuSans-35"/></defs><g transform="matrix(.11 0 0 -.11 152.66 312.932)"><use xlink:href="#DejaVuSans-32"/><use x="63.623" xlink:href="#DejaVuSans-2e"/><use x="95.41" xlink:href="#DejaVuSans-35"/></g></g></g><g id="xtick_3"><path clip-path="url(#p9ee6f795ed)" d="M273.007 295.074v-271.8" fill="none" stroke="#b0b0b0" stroke-dasharray="3.7,1.6" id="line2d_5"/><use x="273.007" xlink:href="#m933a5b31e2" y="295.074" stroke="#000" stroke-width="1.25" id="line2d_6"/><g transform="matrix(.11 0 0 -.11 264.26 312.932)" id="text_3"><use xlink:href="#DejaVuSans-35"/><use x="63.623" xlink:href="#DejaVuSans-2e"/><use x="95.41" xlink:href="#DejaVuSans-30"/></g></g><g id="xtick_4"><path clip-path="url(#p9ee6f795ed)" d="M384.607 295.074v-271.8" fill="none" stroke="#b0b0b0" stroke-dasharray="3.7,1.6" id="line2d_7"/><use x="384.607" xlink:href="#m933a5b31e2" y="295.074" stroke="#000" stroke-width="1.25" id="line2d_8"/><g id="text_4"><defs><path d="M8.203 72.906h46.875v-4.203L28.61 0H18.312L43.22 64.594H8.203z" id="DejaVuSans-37"/></defs><g transform="matrix(.11 0 0 -.11 375.86 312.932)"><use xlink:href="#DejaVuSans-37"/><use x="63.623" xlink:href="#DejaVuSans-2e"/><use x="95.41" xlink:href="#DejaVuSans-35"/></g></g></g><g id="xtick_5"><path clip-path="url(#p9ee6f795ed)" d="M496.207 295.074v-271.8" fill="none" stroke="#b0b0b0" stroke-dasharray="3.7,1.6" id="line2d_9"/><use x="496.207" xlink:href="#m933a5b31e2" y="295.074" stroke="#000" stroke-width="1.25" id="line2d_10"/><g id="text_5"><defs><path d="M12.406 8.297h16.11v55.625l-17.532-3.516v8.985l17.438 3.515h9.86V8.296H54.39V0H12.406z" id="DejaVuSans-31"/></defs><g transform="matrix(.11 0 0 -.11 483.961 312.932)"><use xlink:href="#DejaVuSans-31"/><use x="63.623" xlink:href="#DejaVuSans-30"/><use x="127.246" xlink:href="#DejaVuSans-2e"/><use x="159.033" xlink:href="#DejaVuSans-30"/></g></g></g><g id="xtick_6"><path clip-path="url(#p9ee6f795ed)" d="M607.807 295.074v-271.8" fill="none" stroke="#b0b0b0" stroke-dasharray="3.7,1.6" id="line2d_11"/><use x="607.807" xlink:href="#m933a5b31e2" y="295.074" stroke="#000" stroke-width="1.25" id="line2d_12"/><g transform="matrix(.11 0 0 -.11 595.561 312.932)" id="text_6"><use xlink:href="#DejaVuSans-31"/><use x="63.623" xlink:href="#DejaVuSans-32"/><use x="127.246" xlink:href="#DejaVuSans-2e"/><use x="159.033" xlink:href="#DejaVuSans-35"/></g></g><g id="xtick_7"><path clip-path="url(#p9ee6f795ed)" d="M719.407 295.074v-271.8" fill="none" stroke="#b0b0b0" stroke-dasharray="3.7,1.6" id="line2d_13"/><use x="719.407" xlink:href="#m933a5b31e2" y="295.074" stroke="#000" stroke-width="1.25" id="line2d_14"/><g transform="matrix(.11 0 0 -.11 707.161 312.932)" id="text_7"><use xlink:href="#DejaVuSans-31"/><use x="63.623" xlink:href="#DejaVuSans-35"/><use x="127.246" xlink:href="#DejaVuSans-2e"/><use x="159.033" xlink:href="#DejaVuSans-30"/></g></g><g id="xtick_8"><path clip-path="url(#p9ee6f795ed)" d="M831.007 295.074v-271.8" fill="none" stroke="#b0b0b0" stroke-dasharray="3.7,1.6" id="line2d_15"/><use x="831.007" xlink:href="#m933a5b31e2" y="295.074" stroke="#000" stroke-width="1.25" id="line2d_16"/><g transform="matrix(.11 0 0 -.11 818.761 312.932)" id="text_8"><use xlink:href="#DejaVuSans-31"/><use x="63.623" xlink:href="#DejaVuSans-37"/><use x="127.246" xlink:href="#DejaVuSans-2e"/><use x="159.033" xlink:href="#DejaVuSans-35"/></g></g><g id="xtick_9"><path clip-path="url(#p9ee6f795ed)" d="M942.607 295.074v-271.8" fill="none" stroke="#b0b0b0" stroke-dasharray="3.7,1.6" id="line2d_17"/><use x="942.607" xlink:href="#m933a5b31e2" y="295.074" stroke="#000" stroke-width="1.25" id="line2d_18"/><g transform="matrix(.11 0 0 -.11 930.361 312.932)" id="text_9"><use xlink:href="#DejaVuSans-32"/><use x="63.623" xlink:href="#DejaVuSans-30"/><use x="127.246" xlink:href="#DejaVuSans-2e"/><use x="159.033" xlink:href="#DejaVuSans-30"/></g></g><g id="text_10"><defs><path d="M59.516 10.406v19.578h-16.11v8.11h25.875V6.78Q63.578 2.734 56.687.656 49.813-1.422 42-1.422q-17.094 0-26.75 9.985-9.64 10-9.64 27.812 0 17.875 9.64 27.86 9.656 9.984 26.75 9.984 7.125 0 13.547-1.766 6.422-1.75 11.844-5.172v-10.5q-5.47 4.64-11.625 6.985-6.157 2.343-12.938 2.343-13.39 0-20.11-7.468-6.702-7.47-6.702-22.266 0-14.75 6.703-22.219 6.718-7.469 20.11-7.469 5.218 0 9.312.907 4.109.906 7.375 2.812z" id="DejaVuSans-47"/><path d="M34.281 27.484q-10.89 0-15.093-2.484-4.204-2.484-4.204-8.5 0-4.781 3.157-7.594 3.156-2.797 8.562-2.797 7.485 0 12 5.297 4.516 5.297 4.516 14.078v2zm17.922 3.72V0H43.22v8.297Q40.14 3.328 35.547.953q-4.594-2.375-11.234-2.375-8.391 0-13.36 4.719Q6 8.016 6 15.922q0 9.219 6.172 13.906 6.187 4.688 18.437 4.688h12.61v.89q0 6.203-4.078 9.594-4.078 3.39-11.453 3.39-4.688 0-9.141-1.124-4.438-1.125-8.531-3.375v8.312q4.921 1.906 9.562 2.844 4.64.953 9.031.953 11.875 0 17.735-6.156 5.86-6.14 5.86-18.64z" id="DejaVuSans-61"/><path d="M52 44.188q3.375 6.062 8.063 8.937Q64.75 56 71.093 56q8.548 0 13.188-5.984 4.64-5.97 4.64-17V0h-9.03v32.719q0 7.86-2.797 11.656-2.781 3.813-8.485 3.813-6.984 0-11.046-4.641-4.047-4.625-4.047-12.64V0h-9.032v32.719q0 7.906-2.78 11.687-2.782 3.782-8.595 3.782-6.89 0-10.953-4.657-4.047-4.656-4.047-12.625V0H9.08v54.688h9.03v-8.5q3.078 5.03 7.375 7.421Q29.781 56 35.687 56q5.97 0 10.141-3.031Q50 49.953 52 44.187z" id="DejaVuSans-6d"/><path d="M56.203 29.594v-4.39H14.891q.593-9.282 5.593-14.142 5-4.859 13.938-4.859 5.172 0 10.031 1.266 4.86 1.265 9.656 3.812v-8.5Q49.266.734 44.187-.344 39.11-1.422 33.892-1.422q-13.094 0-20.735 7.61-7.64 7.625-7.64 20.625 0 13.421 7.25 21.296Q20.016 56 32.328 56q11.031 0 17.453-7.11 6.422-7.093 6.422-19.296zm-8.984 2.64q-.094 7.36-4.125 11.75-4.032 4.407-10.672 4.407-7.516 0-12.031-4.25-4.516-4.25-5.203-11.97z" id="DejaVuSans-65"/><path d="M-.297 72.906h61.672v-8.312H35.5V0h-9.906v64.594H-.296z" id="DejaVuSans-54"/><path d="M9.422 54.688h8.984V0H9.422zm0 21.296h8.984v-11.39H9.422z" id="DejaVuSans-69"/><path d="M31 75.875q-6.531-11.219-9.719-22.219-3.172-10.984-3.172-22.265 0-11.266 3.203-22.328Q24.517-2 31-13.188h-7.813Q15.875-1.704 12.235 9.375q-3.64 11.078-3.64 22.016 0 10.89 3.61 21.922 3.624 11.046 10.983 22.562z" id="DejaVuSans-28"/><path d="M9.813 72.906h14.703l18.593-49.61 18.703 49.61h14.704V0H66.89v64.016l-18.797-50h-9.907l-18.796 50V0H9.813z" id="DejaVuSans-4d"/><path d="M54.89 33.016V0h-8.984v32.719q0 7.765-3.031 11.61-3.031 3.858-9.078 3.858-7.281 0-11.484-4.64-4.204-4.625-4.204-12.64V0H9.08v54.688h9.03v-8.5q3.235 4.937 7.594 7.374Q30.078 56 35.797 56q9.422 0 14.25-5.828 4.844-5.828 4.844-17.156z" id="DejaVuSans-6e"/><path d="M8.5 21.578v33.11h8.984V21.922q0-7.766 3.016-11.656 3.031-3.875 9.094-3.875 7.265 0 11.484 4.64 4.234 4.64 4.234 12.656v31h8.985V0h-8.984v8.406Q42.047 3.422 37.718 1q-4.313-2.422-10.032-2.422-9.421 0-14.312 5.86Q8.5 10.296 8.5 21.578zM31.11 56z" id="DejaVuSans-75"/><path d="M18.313 70.219V54.688h18.5v-6.985h-18.5V18.016q0-6.688 1.828-8.594 1.828-1.906 7.453-1.906h9.218V0h-9.218q-10.407 0-14.36 3.875-3.953 3.89-3.953 14.14v29.688H2.687v6.984h6.594V70.22z" id="DejaVuSans-74"/><path d="M44.281 53.078v-8.5q-3.797 1.953-7.906 2.922-4.094.984-8.5.984-6.688 0-10.031-2.047-3.344-2.046-3.344-6.156 0-3.125 2.39-4.906 2.391-1.781 9.626-3.39l3.078-.688q9.562-2.047 13.593-5.781 4.032-3.735 4.032-10.422 0-7.625-6.032-12.078-6.03-4.438-16.578-4.438-4.39 0-9.156.86Q10.688.296 5.422 2v9.281q4.984-2.594 9.812-3.89 4.829-1.282 9.579-1.282 6.343 0 9.75 2.172 3.421 2.172 3.421 6.125 0 3.656-2.468 5.61-2.453 1.953-10.813 3.765l-3.125.735q-8.344 1.75-12.062 5.39-3.704 3.64-3.704 9.985 0 7.718 5.47 11.906Q16.75 56 26.811 56q4.97 0 9.36-.734 4.406-.72 8.11-2.188z" id="DejaVuSans-73"/><path d="M8.016 75.875h7.812q7.313-11.516 10.953-22.563 3.64-11.03 3.64-21.921 0-10.938-3.64-22.016-3.64-11.078-10.953-22.563H8.016Q14.5-2 17.703 9.063q3.203 11.063 3.203 22.329 0 11.28-3.203 22.265-3.203 11-9.687 22.219z" id="DejaVuSans-29"/></defs><g transform="matrix(.12 0 0 -.12 431.366 328.338)"><use xlink:href="#DejaVuSans-47"/><use x="77.49" xlink:href="#DejaVuSans-61"/><use x="138.77" xlink:href="#DejaVuSans-6d"/><use x="236.182" xlink:href="#DejaVuSans-65"/><use x="297.705" xlink:href="#DejaVuSans-20"/><use x="329.492" xlink:href="#DejaVuSans-54"/><use x="390.529" xlink:href="#DejaVuSans-69"/><use x="418.313" xlink:href="#DejaVuSans-6d"/><use x="515.725" xlink:href="#DejaVuSans-65"/><use x="577.248" xlink:href="#DejaVuSans-20"/><use x="609.035" xlink:href="#DejaVuSans-28"/><use x="648.049" xlink:href="#DejaVuSans-4d"/><use x="734.328" xlink:href="#DejaVuSans-69"/><use x="762.111" xlink:href="#DejaVuSans-6e"/><use x="825.49" xlink:href="#DejaVuSans-75"/><use x="888.869" xlink:href="#DejaVuSans-74"/><use x="928.078" xlink:href="#DejaVuSans-65"/><use x="989.602" xlink:href="#DejaVuSans-73"/><use x="1041.701" xlink:href="#DejaVuSans-29"/></g></g></g><g id="matplotlib.axis_2"><g id="ytick_1"><path clip-path="url(#p9ee6f795ed)" d="M49.807 295.074h892.8" fill="none" stroke="#b0b0b0" stroke-dasharray="3.7,1.6" id="line2d_19"/><g id="line2d_20"><defs><path d="M0 0h-6" id="m696cda8ee3" stroke="#000" stroke-width="1.25"/></defs><use x="49.807" xlink:href="#m696cda8ee3" y="295.074" stroke="#000" stroke-width="1.25"/></g><g transform="matrix(.11 0 0 -.11 22.814 299.253)" id="text_11"><use xlink:href="#DejaVuSans-30"/><use x="63.623" xlink:href="#DejaVuSans-2e"/><use x="95.41" xlink:href="#DejaVuSans-30"/></g></g><g id="ytick_2"><path clip-path="url(#p9ee6f795ed)" d="M49.807 240.714h892.8" fill="none" stroke="#b0b0b0" stroke-dasharray="3.7,1.6" id="line2d_21"/><use x="49.807" xlink:href="#m696cda8ee3" y="240.714" stroke="#000" stroke-width="1.25" id="line2d_22"/><g transform="matrix(.11 0 0 -.11 22.814 244.893)" id="text_12"><use xlink:href="#DejaVuSans-30"/><use x="63.623" xlink:href="#DejaVuSans-2e"/><use x="95.41" xlink:href="#DejaVuSans-32"/></g></g><g id="ytick_3"><path clip-path="url(#p9ee6f795ed)" d="M49.807 186.354h892.8" fill="none" stroke="#b0b0b0" stroke-dasharray="3.7,1.6" id="line2d_23"/><use x="49.807" xlink:href="#m696cda8ee3" y="186.354" stroke="#000" stroke-width="1.25" id="line2d_24"/><g id="text_13"><defs><path d="M37.797 64.313L12.89 25.39h24.906zm-2.594 8.593H47.61V25.391h10.407v-8.203H47.609V0h-9.812v17.188H4.89v9.515z" id="DejaVuSans-34"/></defs><g transform="matrix(.11 0 0 -.11 22.814 190.533)"><use xlink:href="#DejaVuSans-30"/><use x="63.623" xlink:href="#DejaVuSans-2e"/><use x="95.41" xlink:href="#DejaVuSans-34"/></g></g></g><g id="ytick_4"><path clip-path="url(#p9ee6f795ed)" d="M49.807 131.994h892.8" fill="none" stroke="#b0b0b0" stroke-dasharray="3.7,1.6" id="line2d_25"/><use x="49.807" xlink:href="#m696cda8ee3" y="131.994" stroke="#000" stroke-width="1.25" id="line2d_26"/><g id="text_14"><defs><path d="M33.016 40.375q-6.641 0-10.532-4.547-3.875-4.531-3.875-12.437 0-7.86 3.875-12.438 3.891-4.562 10.532-4.562 6.64 0 10.515 4.562 3.875 4.578 3.875 12.438 0 7.906-3.875 12.437-3.875 4.547-10.515 4.547zm19.578 30.922v-8.984q-3.719 1.75-7.5 2.671-3.782.938-7.5.938-9.766 0-14.922-6.594-5.14-6.594-5.875-19.922 2.875 4.25 7.219 6.516 4.359 2.266 9.578 2.266 10.984 0 17.36-6.672 6.374-6.657 6.374-18.125 0-11.235-6.64-18.032-6.641-6.78-17.672-6.78-12.657 0-19.344 9.687-6.688 9.703-6.688 28.109 0 17.281 8.204 27.563 8.203 10.28 22.015 10.28 3.719 0 7.5-.734t7.89-2.187z" id="DejaVuSans-36"/></defs><g transform="matrix(.11 0 0 -.11 22.814 136.173)"><use xlink:href="#DejaVuSans-30"/><use x="63.623" xlink:href="#DejaVuSans-2e"/><use x="95.41" xlink:href="#DejaVuSans-36"/></g></g></g><g id="ytick_5"><path clip-path="url(#p9ee6f795ed)" d="M49.807 77.634h892.8" fill="none" stroke="#b0b0b0" stroke-dasharray="3.7,1.6" id="line2d_27"/><use x="49.807" xlink:href="#m696cda8ee3" y="77.634" stroke="#000" stroke-width="1.25" id="line2d_28"/><g id="text_15"><defs><path d="M31.781 34.625q-7.031 0-11.062-3.766-4.016-3.765-4.016-10.343 0-6.594 4.016-10.36Q24.75 6.391 31.78 6.391q7.032 0 11.078 3.78 4.063 3.798 4.063 10.345 0 6.578-4.031 10.343-4.016 3.766-11.11 3.766zm-9.86 4.188q-6.343 1.562-9.89 5.906Q8.5 49.079 8.5 55.329q0 8.733 6.219 13.812 6.234 5.078 17.062 5.078 10.89 0 17.094-5.078 6.203-5.079 6.203-13.813 0-6.25-3.547-10.61-3.531-4.343-9.828-5.906 7.125-1.656 11.094-6.5 3.984-4.828 3.984-11.796 0-10.61-6.468-16.282-6.47-5.656-18.532-5.656-12.047 0-18.531 5.656-6.469 5.672-6.469 16.282 0 6.968 4 11.797 4.016 4.843 11.14 6.5zM18.314 54.39q0-5.657 3.53-8.828 3.548-3.172 9.938-3.172 6.36 0 9.938 3.172 3.593 3.171 3.593 8.828 0 5.672-3.593 8.843-3.578 3.172-9.938 3.172-6.39 0-9.937-3.172-3.532-3.172-3.532-8.843z" id="DejaVuSans-38"/></defs><g transform="matrix(.11 0 0 -.11 22.814 81.813)"><use xlink:href="#DejaVuSans-30"/><use x="63.623" xlink:href="#DejaVuSans-2e"/><use x="95.41" xlink:href="#DejaVuSans-38"/></g></g></g><g id="ytick_6"><path clip-path="url(#p9ee6f795ed)" d="M49.807 23.274h892.8" fill="none" stroke="#b0b0b0" stroke-dasharray="3.7,1.6" id="line2d_29"/><use x="49.807" xlink:href="#m696cda8ee3" y="23.274" stroke="#000" stroke-width="1.25" id="line2d_30"/><g transform="matrix(.11 0 0 -.11 22.814 27.453)" id="text_16"><use xlink:href="#DejaVuSans-31"/><use x="63.623" xlink:href="#DejaVuSans-2e"/><use x="95.41" xlink:href="#DejaVuSans-30"/></g></g><g id="text_17"><defs><path d="M28.61 0L.78 72.906h10.297l23.11-61.375 23.14 61.375h10.25L39.797 0z" id="DejaVuSans-56"/><path d="M9.422 75.984h8.984V0H9.422z" id="DejaVuSans-6c"/><path d="M9.813 72.906h9.859v-29.89h35.844v29.89h9.859V0h-9.86v34.719H19.673V0h-9.86z" id="DejaVuSans-48"/><path d="M45.406 46.39v29.594h8.985V0h-8.985v8.203Q42.578 3.328 38.25.953q-4.313-2.375-10.375-2.375-9.906 0-16.14 7.906-6.22 7.922-6.22 20.813 0 12.89 6.22 20.797Q17.968 56 27.874 56q6.063 0 10.375-2.375 4.328-2.36 7.156-7.234zm-30.61-19.093q0-9.906 4.079-15.547 4.078-5.64 11.203-5.64 7.125 0 11.219 5.64 4.11 5.64 4.11 15.547 0 9.906-4.11 15.547-4.094 5.64-11.219 5.64-7.125 0-11.203-5.64-4.078-5.64-4.078-15.547z" id="DejaVuSans-64"/><path d="M39.406 66.219q-10.75 0-17.078-8.016-6.312-8-6.312-21.828 0-13.766 6.312-21.781 6.328-8 17.078-8 10.735 0 17.016 8 6.281 8.015 6.281 21.781 0 13.828-6.281 21.828-6.281 8.016-17.016 8.016zm0 8q15.328 0 24.5-10.281 9.188-10.282 9.188-27.563 0-17.234-9.188-27.516-9.172-10.28-24.5-10.28-15.375 0-24.593 10.25-9.204 10.265-9.204 27.546t9.204 27.563q9.218 10.28 24.593 10.28z" id="DejaVuSans-4f"/><path d="M18.11 8.203v-29H9.077v75.484h9.031v-8.296q2.844 4.875 7.157 7.234Q29.594 56 35.594 56q9.968 0 16.187-7.906 6.235-7.907 6.235-20.797T51.78 6.484q-6.218-7.906-16.187-7.906-6 0-10.328 2.375-4.313 2.375-7.157 7.25zm30.578 19.094q0 9.906-4.079 15.547-4.078 5.64-11.203 5.64-7.14 0-11.218-5.64-4.079-5.64-4.079-15.547 0-9.906 4.078-15.547 4.079-5.64 11.22-5.64 7.124 0 11.202 5.64t4.078 15.547z" id="DejaVuSans-70"/></defs><g transform="matrix(0 -.12 -.12 0 16.318 216.455)"><use xlink:href="#DejaVuSans-56"/><use x="68.299" xlink:href="#DejaVuSans-61"/><use x="129.578" xlink:href="#DejaVuSans-6c"/><use x="157.361" xlink:href="#DejaVuSans-75"/><use x="220.74" xlink:href="#DejaVuSans-65"/><use x="282.264" xlink:href="#DejaVuSans-20"/><use x="314.051" xlink:href="#DejaVuSans-48"/><use x="389.246" xlink:href="#DejaVuSans-65"/><use x="450.77" xlink:href="#DejaVuSans-61"/><use x="512.049" xlink:href="#DejaVuSans-64"/><use x="575.525" xlink:href="#DejaVuSans-20"/><use x="607.313" xlink:href="#DejaVuSans-4f"/><use x="686.023" xlink:href="#DejaVuSans-75"/><use x="749.402" xlink:href="#DejaVuSans-74"/><use x="788.611" xlink:href="#DejaVuSans-70"/><use x="852.088" xlink:href="#DejaVuSans-75"/><use x="915.467" xlink:href="#DejaVuSans-74"/></g></g></g><path clip-path="url(#p9ee6f795ed)" d="M49.807 209.368l4.464-11.22 4.464 1.534 4.464-3.962 4.464-17.015 4.464-1.683 4.464-4.71 4.464-7.561 4.464.454 4.464 3.228 4.464 2.599 4.464 2.836 4.464 4.29 4.464 6.607 4.464 14.683 4.464 3.33 4.464 5.624 4.464 7.61 4.464 6.403 4.464-10.307 4.464-9.995 4.464-8.523 8.928-9.83 4.464-9.497 4.464-1.87 4.464-.35 4.464-1.733 4.464-13.515 4.464-29.086 4.464-.888 4.464-1.126 4.464-5.997 4.464-2.544 4.464-14.518 4.464.77 4.464 15.758 4.464-.484 4.464 13.242 4.464-4.19 4.464-6.995 4.464 18.508 4.464 25.212 4.464 11.016 4.464 54.76 4.464-12.356 4.464 6.711 4.464-5.574 4.464 2.418 4.464 31.663 4.464 1.228 4.464 11.503 4.464 9.47 4.464 5.17 4.464 2.53 4.464-.376 4.464-1.005 4.464.46 4.464 1.469 4.464 1.23 4.464-.143 4.464-1.421 4.464-1.824 4.464-.17 4.464-.511 4.464.157 4.464.3 4.464-.467 4.464-.67 4.464-.865 4.464-.524 4.464 1.064 4.464-2.735 4.464-.432 4.464.431 4.464 1.625 4.464-.606 4.464-1.388 4.464.54 4.464-4.054 4.464-1.113 4.464 1.196 4.464-.964 4.464-1.83 4.464-3.744 4.464-4.156 4.464.302 4.464-1.505 4.464-2.693 4.464-1.782 4.464-1.186 4.464-1.974 4.464 1.755 4.464 2.662 4.464.536 4.464-1.006 4.464 1.478 4.464 20.196 4.464-9.882 4.464-13.182 4.464 11.828 4.464-19.129 4.464-1.887 4.464-1.374 4.464-30.276 4.464-9.125 4.464 8.423 4.464 5.591 4.464-6.632 4.464-8.751 4.464 14.033 4.464 4.536 4.464-2.063 4.464-10.483 4.464 38.685 4.464 3.826 4.464-5.234 4.464 4.06 4.464 5.958 4.464-21.476 4.464-51.832 4.464 12.737 4.464-12.667 4.464 9.978 4.464 30.96 4.464-13.4 4.464-11.552 4.464 1.327 4.464 24.64 4.464-14.329 4.464-.395 4.464-24.457 4.464 8.585 4.464 2.962 4.464.543 4.464-.212 4.464 1.81 4.464-9.595 4.464-4.052 4.464 1.187 4.464 1.966 4.464-2.06 4.464-3.047 4.464 14.15 4.464-26.692 4.464-22.943 4.464 4.654 4.464 9.14 4.464-1.182 4.464-.724 4.464-19.598 4.464 27.262 4.464 28.38 4.464-23.21 4.464 22.443 4.464 7.487 4.464 3.259 4.464 16.668 4.464-66.111 4.464-54.54 4.464-6.987 4.464-21.081 4.464-5.925 4.464-8.45 4.464-13.22 4.464-1.669 4.464-3.925 4.464-1.068 4.464-2.677 8.928-3.68 4.464-1.6 4.464-2.236 4.464-.225 4.464-1.771 4.464 1.262 4.464-.069 4.464.365 4.464.97 4.464 6.597 4.464 2.446 4.464-7.391 4.464 1.473 4.464-7.4 4.464-3.091 4.464 1.712 8.928 9.542 4.464-3.902 4.464-5.583 4.464.865 4.464-.378 4.464.495 4.464-1.804 4.464-.262 4.464-.458 4.464-.84 4.464-.192 8.928.14 8.928-.5 13.392-.439 62.496-.009h40.176" fill="none" opacity=".4" stroke="#1f77b4" stroke-linecap="square" stroke-width="2" id="line2d_31"/><path clip-path="url(#p9ee6f795ed)" d="M49.807 207.206l4.464-21.64 4.464-10.62L63.2 164.86l4.464-19.008 4.464-.307 4.464-3.166 4.464-5.767 4.464 2.171 4.464 3.83 4.464 2.26 4.464 1.734 4.464 2.699 4.464 5.022 4.464 11.22 4.464 2.404 4.464 6.562 4.464 11.202 4.464 9.552 4.464 5.467 4.464-2.127 4.464-.515 4.464 1.935 4.464-.48 4.464-7.432 4.464-3.649 4.464-2.315 4.464-.118 4.464-9.381 4.464-18.378 4.464 9.687 4.464 2.098 4.464-7.188 4.464-6.6 4.464-36.013 4.464-5.83 4.464 12.329 4.464-1.426 4.464 22.306 4.464 11.512 4.464-3.745 4.464 27.012 4.464 31.637 4.464 18.912 4.464 43.77 4.464-1.077 4.464 2.804 4.464-2.75 4.464-5.083 4.464-.006 4.464-6.366 4.464.3 4.464 4.23 4.464 2.12 4.464-2.252 4.464-.994 4.464-4.035 4.464-2.683 4.464.484 8.928-6.077 4.464-3.78 4.464-8.334 8.928-5.953 4.464 1.214 4.464-.005 4.464-2.719 4.464-2.452 4.464-3.184 4.464-2.482 4.464 2.512 4.464-5.676 4.464-.486 4.464.962 4.464 6.566 4.464 1.184 4.464-4.017 4.464 3.878 4.464-6.2 4.464-1.504 4.464 3.078 4.464-4.173 4.464-7.49 4.464.909 4.464-6.946 4.464.74 4.464-5.077 4.464-6.623 4.464-14.505 4.464-7.78 4.464-7.315 4.464.865 4.464-5.617 4.464-16.003 4.464-7.773 4.464-7.543 4.464 59.06 4.464-26.956 4.464-15.158 4.464 29.37 4.464-38.548 4.464 4.097 4.464 2.107 4.464-30.468 4.464-8.641 4.464 16.982 4.464 3.094 4.464-6.72 4.464-2.448 4.464 15.344 4.464 7.39 4.464-5.947 4.464-2.706 4.464 74.817 4.464 7.683 4.464-8.763 4.464 4.962 4.464 15.896 4.464-34.418 4.464-59.622 4.464 20.677 4.464-12.173 4.464 10.418 4.464 27.96 4.464-12.613 4.464-7.798 4.464.622 4.464 21.911 4.464-18.894 4.464-4.453 4.464-26.986 4.464 3.595 4.464-3.451 4.464-10.197 4.464-1.62 4.464-9.1 4.464-13.148 4.464-7.287 4.464-6.813 4.464-1.496 4.464-3.929 4.464-3.25 4.464 5.488 4.464-18.726 4.464-11.508 4.464.654 4.464 3.049 4.464-1.46 4.464.188 4.464-6.596 4.464 10.479 4.464 16.675L732.8 62.13l4.464 16.627 8.928 11.546 4.464 20.596 4.464-50.635 4.464-15.327 4.464-2.077 4.464-6.336 4.464-.83 4.464-2.13 4.464-3 4.464-.42 4.464-1.301 4.464-.285 4.464-.77 4.464-.028 4.464-.68 4.464-.463 4.464-.906 4.464-.01 4.464-.485 4.464.396 4.464-.112 4.464.028 4.464.161 4.464 1.042 4.464.707 4.464-1.46 4.464 2.123 4.464-2.181 4.464-.653 4.464 2.464 4.464 4.002 4.464 1.653 4.464-4.013 4.464-3.465 4.464 1.125 4.464-.242 4.464.28 4.464-1.481 4.464.326 4.464-.092 4.464-1.004 4.464-.063 4.464.095 4.464.453 8.928-1.023 8.928-.457 4.464-.5 13.392-.046 89.28-.002h0" fill="none" opacity=".4" stroke="#ff7f0e" stroke-linecap="square" stroke-width="2" id="line2d_32"/><path clip-path="url(#p9ee6f795ed)" d="M49.807 159.127l4.464-18.963 4.464-10.682 4.464-6.743 4.464-17.523 4.464-4.176 4.464-4.752 4.464-6.27 4.464-.52 4.464 3.543 4.464 1.771 4.464 1.534 4.464 3.154 4.464 6.127 4.464 14.124 4.464 2.66 4.464 5.828 4.464 11.934 4.464 10.727 4.464 8.149 4.464-2.73 4.464-.836 4.464 3.093 4.464 1.205 4.464-4.876 4.464-2.603 4.464-.618 4.464 1.848 4.464-12.179 4.464-23.928 4.464 4.553 4.464 5.648 4.464-4.892 4.464-3.393 4.464-29.88 4.464-6.26 4.464 6.135 4.464-4.85 4.464 21.02 4.464 17.496 4.464-8.95 4.464 29.664 4.464 48.665 4.464 30.055 4.464 57.542 4.464 2.073 4.464 3.353 4.464-.862 8.928-6.575 4.464-8.05 4.464-3.124 4.464 2.246 4.464 2.777 4.464-.933 4.464-1.397 4.464-5.204 4.464-3.482 4.464.727 8.928-6.172 4.464-5.15 4.464-8.878 4.464-1.476 4.464-.31 4.464 2.499 4.464 1.908 4.464-1.18 4.464-1.012 4.464-1.358 4.464-1.623 4.464 3.688 4.464-6.172 4.464-.916 4.464.721 4.464 6.859 4.464 1.334 4.464-4.29 4.464 2.498 4.464-6.427 4.464-1.214 4.464 2.635 4.464-3.654 4.464-8.873 4.464-3.272 4.464-9.98 4.464.115 4.464-4.329 4.464-6.842 4.464-12.868 4.464-6.13 4.464-7.505 4.464.882 4.464.44 4.464-5.707 4.464-4.583 4.464-2.35 4.464 63.984 4.464-26.158 4.464-31.008 4.464 36.33 4.464-26.087 4.464 4.404 4.464 2.07 4.464-36.987 4.464-14.651 4.464 11.729 4.464 2.851 4.464-7.02 4.464-8.582 4.464 17.067 4.464 11.36 4.464-4.046 4.464-10.534 4.464 69.718 4.464 6.864 4.464-9.264 4.464 2.105 4.464 13.752 4.464-42.844 4.464-64.236 4.464 13.386 4.464-15.142 4.464 5.77 4.464 35.848 8.928-21.633 4.464.792 4.464 33.02 4.464-7.78 4.464-1.76 4.464-23.486 4.464 4.85 4.464 3.007 4.464-2.575 4.464.962 4.464-1.715 4.464-11.165 4.464-7.048 4.464-2.083 4.464 1.35 4.464-2.6 4.464-2.314 4.464 13.331 4.464-22.909 4.464-19.791 4.464 1.836 4.464 7.912 4.464.34 4.464 2.78 4.464-14.216 4.464 26.318 4.464 31.68 4.464-33.94 4.464 24.299 4.464 10.914 4.464 9.313 4.464 24.743 4.464-61.778 4.464-45.202 4.464-9.504 4.464-14.735 4.464-2.674 4.464-5.571 4.464-8.598 4.464-1.294 4.464-2.572 4.464-.757 4.464-1.654 4.464-1.21 4.464-1.03 4.464-.822 4.464-1.37 4.464-.2 4.464-.707 4.464.695 4.464-.05 4.464.292 4.464.682 4.464 3.187 4.464 2.202 4.464-3.974 4.464 3.17 4.464-5.646 4.464-2.231 4.464 1.354 4.464 4.66 4.464 5.438 4.464-3.692 4.464-5.957 4.464.8 4.464-.42 4.464.261 4.464-1.827 8.928-.473 4.464-.505 8.928-.314 4.464.266 8.928-.477 17.856-.434h98.208" fill="none" opacity=".4" stroke="#2ca02c" stroke-linecap="square" stroke-width="2" id="line2d_33"/><path clip-path="url(#p9ee6f795ed)" d="M49.807 182.533l4.464-30.103 4.464-16.543 4.464-13.18 4.464-18.623 4.464-1.539 4.464-3.43 4.464-5.334 4.464 1.646 4.464 2.814 4.464 1.488 4.464.991 4.464 1.994 4.464 4.56 4.464 12.179 4.464 2.99 4.464 5.794 4.464 10.315 4.464 10.692 4.464 8.666 4.464-.633 4.464.878 4.464 3.837 4.464 1.413 4.464-5.12 4.464-3.156 8.928-4.477 4.464-12.16 4.464-22.37 4.464 10.492 4.464 3.025 4.464-7.281 4.464-7.734 4.464-30.51 4.464-7.192 4.464 7.615 4.464-1.626 4.464 19.452 4.464 14.09 4.464-8.358 4.464 22.185 4.464 35.576 4.464 29.95 4.464 75.691 4.464 3.41 4.464 6.166 4.464.959 4.464-1.84 4.464 1.663 4.464-3.987 4.464-1.673 4.464 1.418 4.464 2.293 4.464.703 4.464.377 4.464-1.267 4.464-.66 4.464.832 4.464.26 4.464-.683 4.464-2.263 4.464-4.016 4.464-.33 4.464 1.211 4.464 1.958 4.464 1.52 4.464-.004 4.464-.424 4.464.204 4.464-.103 4.464 1.526 4.464-2.337 4.464-.235 4.464.716 4.464 2.799 4.464.944 4.464-.766 4.464.563 4.464-1.722 4.464-.167 4.464 1.276 4.464-.479 4.464-3.263 4.464-2.77 4.464-4.222 4.464-.385 4.464-1.986 4.464-3.835 4.464-8.3 4.464-5.37 4.464-8.339 4.464-4.806 4.464-6.28 4.464-22.477 4.464-17.178 4.464-14.248 4.464 57.242 4.464-18.344 4.464-24.835 4.464 36.929 4.464-11.542 4.464 12.588 4.464 9.699 4.464-15.412 4.464-9.034 4.464 10.83 4.464 5.867 4.464-2.534 4.464-4.503 4.464 13.797 4.464 7.51 4.464-.153 4.464-7.16 4.464 35.226 4.464 2.511 4.464-4.045 4.464.928 4.464 4.408 4.464-17.196 4.464-45.456 4.464 6.415 4.464-16.944 4.464-1.298 4.464 21.31 4.464-11.997 4.464-11.418 4.464-2.01 4.464 25.1 4.464-7.116 4.464-1.807 4.464-25.567 4.464 2.532 4.464.14 4.464-11.871 4.464-4.193 4.464-4.388 4.464-15.018 4.464-10.355 4.464-7.1 4.464.503 4.464-3.354 4.464-5.157 4.464 13.186 8.928-46.563 4.464 1.195 4.464 5.577 4.464-2.314 4.464 9.848 4.464-13.008 4.464 32.525 4.464 36.294 4.464-26.097 4.464 26.751 4.464 8.46 4.464 8.875 4.464 22.94 4.464-58.244 4.464-47.246 4.464-9.659 4.464-20.574 4.464-3.77 4.464-7.732 4.464-11.739 4.464-1.222 4.464-4 4.464-1.024 4.464-2.862 4.464-.632 4.464-1.838 4.464-1.42 4.464-3.23 4.464-.429 4.464-2.385 4.464 1.1 4.464-.644 4.464-.192 4.464.29 4.464 3.603 4.464 2.343 4.464-4.593 4.464 4.327 4.464-5.305 4.464-.842 4.464 8.197 4.464 17.117 4.464 9.728 4.464-13.29 4.464-15.559 4.464 4.45 4.464-1.527 4.464.098 4.464-7.172 4.464-1.245 4.464-.604 4.464-1.82 4.464-.067 4.464-.18 4.464 1.326 4.464-1.661 4.464-1.107L956 24.61l4.464-1.224 8.928-.102 93.744-.007h0" fill="none" opacity=".4" stroke="#d62728" stroke-linecap="square" stroke-width="2" id="line2d_34"/><path clip-path="url(#p9ee6f795ed)" d="M49.807 187.335l4.464-50.282 4.464-13.712 4.464-6.972 4.464-17.594 4.464-2.187 4.464-5.373 4.464-7.362 4.464.96 4.464-1.121 4.464.491 4.464 1.02 4.464 1.928 4.464 4.2 4.464 11.327 4.464 4.594 4.464 7.681 4.464 10.316 4.464 12.613 4.464 6.465 4.464-1.702 4.464-1.524 4.464.657 4.464-.913 4.464-6.593 4.464-2.725 4.464-.94 4.464-2.325 4.464-5.915 4.464-12.8 4.464 11.489 4.464-1.554 4.464-8.363 4.464-2.788 4.464-11.262 4.464-9.082 4.464 17.862 4.464 5.21 4.464 17.775 4.464 3.91 4.464-15.996 4.464 17.985 4.464 28.747 4.464 22.388 4.464 69.72 4.464-3.252 4.464 2.67 4.464-8.453 4.464-19.008 4.464.158 4.464-19.343 4.464-2.708 4.464 9.123 4.464 12.52 4.464 9.538 4.464 4.009 4.464-.202 4.464 1.186 4.464 4.442 4.464 8.055 4.464 2.855 4.464-2.73 4.464-3.231 4.464 3.92 4.464 5.169 4.464 3.138 4.464 3.482 4.464 1.322 4.464.563 4.464 2.67 4.464.707 4.464 2.924 4.464-2.778 4.464.634 4.464 2.151 4.464 3.31 4.464.866 4.464-.401 4.464.92 4.464-1.308 4.464-.379 4.464 1.28 4.464-.01 4.464-1.383 4.464.187 4.464-3.428 4.464-.244 4.464-1.253 8.928-4.84 4.464-1.283 4.464-3.115 4.464-1.257 4.464-.038 4.464-3.866 4.464-6.171 4.464-1.271 4.464 25.279 4.464-6.267 4.464-14.377 4.464 13.338 4.464-17.598 4.464-3.708 4.464.56 4.464-25.935 4.464-15.62 4.464 6.332 4.464 11.574 8.928-2.163 4.464 9.433 4.464 5.203 4.464-.762 4.464-7.28 4.464 34.198 4.464 2.808 4.464-5.1 4.464-1.618 4.464 4.113 4.464-21.154 4.464-63.048 4.464-12.105 4.464-20.735 4.464-3.997 4.464 40.173 4.464-12.067 4.464-14.212 4.464-.548 4.464 38.646 4.464-3.66 4.464.24 4.464-31.793 4.464 1.934 4.464-3.237 4.464-11.281 4.464-5.753 4.464 5.599 4.464-9.927 4.464-6.581 4.464 1.92 4.464 6.36 4.464.124 4.464-5.414 4.464 16.534 4.464-17.297 4.464-23.248 4.464 4.07 4.464 8.246 4.464 2.483 4.464 15.228 4.464-17.456 4.464 26.54 4.464 29.832 4.464-20.89 4.464 17.369 4.464 10.095 4.464 5.144 4.464 21.636 4.464-66.52 4.464-69.68 4.464-3.83 4.464-15.487 8.928-10.879 4.464-6.886 4.464-.834 4.464-2.228 4.464-.755 4.464-1.57 4.464-.796 4.464-.527 4.464-1.09 4.464-1.998 4.464.161 4.464-1.614 4.464.886 4.464-.207 4.464-.057 4.464.369 4.464 3.8 4.464 1.409 4.464-3.891 4.464.607 4.464-3.646 4.464-1.709 4.464 2.245 4.464 7.448 4.464 8.144 4.464-5.03 4.464-8.931 4.464 1.426 4.464-.367 4.464.583 4.464-2.606 4.464-.5 4.464-.963 4.464-1.325 4.464-.359 8.928.318 13.392-1.086L956 23.52l4.464-.238 62.496-.01 40.176.001h0" fill="none" opacity=".4" stroke="#9467bd" stroke-linecap="square" stroke-width="2" id="line2d_35"/><path clip-path="url(#p9ee6f795ed)" d="M49.807 272.952l4.464 12.746 4.464 2.05 4.464-3.224 4.464-10.1 4.464-3.842 4.464-4.351 4.464-4.548 4.464-3.609 4.464-8.843 4.464-3.024 8.928-9.583 4.464-2.743 4.464-3.255 4.464-2.102 4.464 2.777 4.464 6.54 4.464 7.496 4.464 7.259 4.464-1.746 4.464-1.252 4.464.664 4.464-.03 4.464-3.19 4.464-1.142 4.464.882 4.464 6.983 4.464-.164L179.263 242l4.464-1.262 4.464-.692 4.464-3.395 4.464-2.343 4.464-22.279 4.464-2.374 4.464 14.479 4.464-8.94 4.464 11.063 4.464 4.687 4.464-4.592 4.464 23.429 4.464 22.396 4.464 7.1 4.464 11.069 4.464-2.108 4.464-.863 4.464-4.189 4.464-7.864 4.464-8.986 4.464-18.69 4.464-6.85 4.464-.057 4.464 1.466 4.464-7.202 4.464-12.65 4.464-16.712 4.464-11.98 4.464-3.06 4.464.47 4.464-1.101 4.464-14.631 4.464-21.33 4.464.207 4.464-4.988 4.464 1.614 4.464 3.874 4.464-.856 4.464-6 4.464 5.577 4.464-1.013 4.464 8.603 4.464-9.625 4.464-.17 4.464 6.835L384.607 169l4.464 3.02 4.464-2.513 4.464 8.7 4.464-6.302 4.464-3.365 4.464 5.38 4.464-4.495 4.464-11.019 4.464-9.856 4.464-16.626 4.464-.029 4.464-6.662 4.464-8.347 4.464-11.308 4.464-6.359 4.464-6.63 4.464 1.252 4.464 1.69 4.464-3.01 4.464-8.049 4.464-.272 4.464 57.172 4.464-40.683 4.464-18.302 4.464 23.632 4.464-23.048 4.464 6.827 4.464 1.712 4.464-22.427 4.464-6.103 4.464 7.766 4.464 6.89 4.464-2.061 4.464.099 4.464 10.524 4.464 7.054 4.464-2.967 4.464-.949 4.464 80.306 4.464 13.59 4.464-5.202 4.464 6.413 4.464 18.7 4.464-43.342 4.464-63.932 4.464 13.794 4.464-10.69 4.464 13.07 4.464 42.953 4.464-11.207 4.464-5.068 4.464 5.604 4.464 26.02 4.464-23.694 4.464-.94 4.464-30.42 4.464 6.775 4.464-3.068 4.464-9.884 4.464-4.671 4.464-4.082 4.464-12.883 4.464-6.02 4.464-5.774 4.464.919 4.464-3.298 4.464-3.729 4.464 6.898 4.464-18.164 4.464-11.372 4.464 3.762 4.464 5.14 4.464-1.973 4.464 1.782 4.464-6.816 4.464 14.803 4.464 19.366 4.464-13.685 4.464 24.087 4.464 8.355 4.464 7.142 4.464 23.921 4.464-64.546 4.464-21.63 4.464-1.759 4.464-7.045 4.464-.98 4.464-2.622 4.464-3.357 4.464-.38 4.464-1.34 4.464-.277 4.464-.768 4.464-.103 4.464-.695 4.464-.524 4.464-.84 4.464.115 4.464-.532 4.464.573 4.464-.053 4.464.149 4.464.373 4.464 2.05 4.464.814 4.464-2.521 4.464 1.376 4.464-2.889 4.464-1.267 4.464.864 4.464 2.013 4.464 1.17 8.928-3.78 4.464.401 4.464-.147 4.464.082 4.464-.625 4.464.096 4.464-.113 4.464-.326 8.928-.045 4.464.102 13.392-.352 17.856-.21h93.744" fill="none" stroke="#1f77b4" stroke-dasharray="7.4,3.2" stroke-width="2" id="line2d_36"/><path clip-path="url(#p9ee6f795ed)" d="M49.807 209.45l4.464-48.743 4.464-11.94 4.464-7.96 4.464-25.482 4.464-.943 4.464-6.386 4.464-10.567 4.464 2.874 4.464 2.064 4.464 2.257 4.464 3.224 4.464 3.527 4.464 5.225 4.464 11.95 4.464 2.88 4.464 7.441 4.464 11.196 4.464 11.861 4.464-2.686 4.464-4.272 4.464-2.21 4.464.619 4.464-1.43 4.464-8.84 8.928-7.54 4.464-6.392 4.464-11.092 4.464-18.827 4.464 13.683 4.464 1.079 4.464-5.48 4.464-.408 4.464-13.189 4.464-6.016 4.464 19.964 4.464 4.359 4.464 22.09 4.464 12.41 4.464-11.144 4.464 24.04 4.464 37.306 4.464 23.39 4.464 53.407 4.464-4.837 4.464 1.018 4.464-7.636 4.464-14.023 4.464.327 4.464-16.503 4.464.158 4.464 9.498 4.464 8.726 4.464 4.39 4.464-.996 4.464-2.945 4.464-.37 4.464 4.098 4.464 5.45 4.464 1.358 4.464-5.097 4.464-6.497 4.464 3.6 4.464 2.474 4.464 3.572 4.464 3.158 4.464.334 4.464-1.431 4.464 2.338 4.464-.134 4.464 3.047 4.464-4.79 4.464-.883 4.464 2.034 4.464 4.248 4.464.77 4.464-1.656 4.464.876 4.464-4.596 4.464-1.14 4.464 2.318 4.464-1.141 4.464-4.501 4.464-1.347 4.464-7.762 4.464.748 4.464-2.85 4.464-4.826 4.464-5.007 4.464-2.983 4.464-4.46 4.464 1.408 4.464 2.757 4.464-1.647 4.464-5.496 4.464 1.62 4.464 41.73 4.464-14.71 4.464-18.858 4.464 19.627 4.464-34.464 4.464-4.533 4.464-2.297 4.464-43.375 4.464-15.461 4.464 13.553 4.464 10.656 4.464-6.952 4.464-5.891 4.464 17.056 4.464 7.432 4.464-8.899 4.464-9.726 4.464 58.79 4.464 7.014 4.464-6.637 4.464 1.62 4.464 11.6 4.464-35.874 4.464-76.357 4.464 11.589 4.464-13.743 4.464 10.54 4.464 47.144 4.464-15.029 4.464-11.633 4.464 3.826 4.464 38.646 4.464-15.224 4.464 3.02 4.464-33.658 4.464 11.5 4.464.98 4.464-2.786 4.464-2.324 4.464 3.063 4.464-12.898 4.464-5.274 4.464.948 4.464 4.642 4.464-3.567 4.464-6.09 4.464 18.733 4.464-32.266 4.464-26.07 4.464 9.626 4.464 11.39 4.464-1.477 4.464 5.032 4.464-21.364 8.928 75.824 4.464-32.675 4.464 21.093 4.464 7.392 4.464.644 4.464 25.106 4.464-95.419 4.464-45.58 4.464-1.65 4.464-14.54 4.464-1.828 4.464-4.515 4.464-7.209 4.464-.285 4.464-2.493 4.464-.275 4.464-1.652 4.464-.707 4.464-1.611 4.464-1.298 4.464-1.797 4.464.25 4.464-1.517 4.464 1.171 4.464-.334 4.464.08 4.464.598 4.464 5.12 4.464 2.068 4.464-5.626 4.464 3.542 4.464-6.07 4.464-2.413 4.464 3.225 4.464 7.17 4.464 4.112 4.464-6.93 4.464-6.07 4.464 1.742 4.464-.664 4.464.44 4.464-2.195 4.464.399 4.464-.637 4.464-1.336 4.464-.188 8.928.207 8.928-.69 17.856-.544h98.208" fill="none" opacity=".4" stroke="#ff7f0e" stroke-dasharray="7.4,3.2" stroke-width="2" id="line2d_37"/><path clip-path="url(#p9ee6f795ed)" d="M49.807 274.045l4.464 4.113 4.464 3.322 4.464-3.11 4.464-12.518 4.464-3.95 4.464-6.062 4.464-7.297 4.464-2.122 4.464-8.487 4.464-1.637 4.464-2.466 4.464-2.03 4.464.3 4.464 3.495 4.464 1.296 4.464 4.488 4.464 6.228 4.464 7.58 4.464 4.193 4.464-.727 4.464-.558 4.464.31 4.464-.55 4.464-4.535 4.464-2.134 4.464-1.272 4.464 1.225 4.464-.947 4.464-6.152 4.464 6.184 4.464-.718 4.464-2.944 4.464-2.772 4.464-17.366 4.464-6.74 4.464 18.219 4.464-1.87 4.464 7.84 4.464 2.151 4.464-8.415 4.464 13.827 4.464 16.539 4.464 8.156 4.464 14.069 4.464-.978 4.464.245 4.464-1.776 4.464-3.872 4.464-1.657 4.464-7.503 4.464-1.6 4.464 2.119 4.464 3.136 4.464.924 4.464-2.374 4.464-2.874 4.464-1.975 4.464.525 4.464 2.181 4.464.257 4.464-4.704 4.464-6.452 4.464 1.051 4.464-1.209 4.464.965 4.464 2.052 4.464-.408 4.464-2.926 4.464 1.844 4.464-.504 4.464 2.668 4.464-4.47 4.464-1.32 4.464 1.665 4.464 3.447 4.464.927 4.464-.922 4.464 1.609 4.464-3.313 4.464-1.791 4.464 2.183 4.464-.986 4.464-5.967 4.464-2.25 4.464-7.196 4.464.699 4.464-3.136 4.464-6.18 4.464-7.892 4.464-5.39 4.464-6.763 4.464-.438 4.464 2.633 4.464-.2 4.464-7.257 4.464 4.156 4.464 42.697 4.464-13.5 4.464-15.64 4.464 21.424 4.464-25.31 4.464-2.82 4.464.498 4.464-35.08 4.464-16.387 4.464 6.995 4.464 11.997 4.464-6.374 4.464-7.802 4.464 12.263 4.464 9.934 4.464-3.338 4.464-5.98 4.464 46.269 4.464 5.098 4.464-6.184 4.464-1.822 4.464 7.514 4.464-27.548 4.464-71.187 4.464-.467 4.464-15.226 4.464 3.478 4.464 42.169 4.464-15.995 4.464-13.727 4.464 1.65 4.464 40.256 4.464-13.412 4.464 1.568 4.464-34.645 4.464 7.078 4.464-.97 4.464-5.436 4.464-4.048 4.464 3.738 4.464-10.357 4.464-3.868 4.464 3.279 4.464 5.892 4.464-1.96 4.464-5.229 4.464 17.699 4.464-26.066 4.464-23.66 8.928 21.656 4.464.398 4.464 9.159 4.464-20.053 4.464 24.398 4.464 20.795 4.464-26.918 4.464 14.64 4.464 9.866 4.464 4.122 4.464 24.16 4.464-71.42 4.464-45.888 4.464-1.93 4.464-11.933 4.464-3.846 4.464-4.025 4.464-5.89 4.464-.78 4.464-1.676 4.464-.567 4.464-1.085 4.464-.598 4.464-.417 4.464-.687 4.464-1.229 4.464.597 4.464-.825 4.464.843 4.464-.025 4.464.143 4.464.555 4.464 4.81 4.464.916 4.464-4.333 4.464.032 4.464-3.6 4.464-1.825 4.464 1.08 4.464 3.138 4.464 2.834 4.464-2.409 4.464-3.479 4.464.6 4.464-.117 4.464.251 4.464-1.111 4.464-.123 4.464-.31 4.464-.546 4.464-.143 8.928.133 13.392-.494 17.856-.232h93.744" fill="none" opacity=".4" stroke="#2ca02c" stroke-dasharray="7.4,3.2" stroke-width="2" id="line2d_38"/><path clip-path="url(#p9ee6f795ed)" d="M49.807 161.402l4.464-20.81 4.464-10.512 4.464-4.302 4.464-1.903 4.464.188 4.464.538 4.464.129 4.464.265 4.464 3.815 4.464.628 4.464-1.29 4.464-.312 4.464 1.63 4.464 5.338 4.464 2.119 4.464 4.487 4.464 6.81 4.464 7.454 4.464 2.65 4.464-5.284 4.464-5.71 4.464-3.12 4.464-4.264 4.464-8.94 4.464-1.986 4.464 1.51 4.464 3.727 4.464-9.225 4.464-19.193 4.464-2.855 4.464 1.38 4.464-2.966 4.464 1.157 4.464-4.108 4.464 1.556 4.464 12.872 4.464-.784 4.464 15.292 4.464 3.386 4.464-4.534 4.464 21.934 4.464 27.707 4.464 11.024 4.464 59.101 4.464-2.213 4.464 7.672 4.464-2.845 4.464.735 4.464 16.207 4.464-2.616 4.464 7.565 4.464 7.026 4.464 3.805 4.464 1.463 4.464-.212 4.464-.669 4.464.924 4.464 1.578 4.464.14 4.464-.4 4.464-1.061 4.464.03 4.464-.17 4.464-.982 4.464.022 4.464-.266 4.464-.818 4.464.882 4.464-1.496 4.464-.83 4.464.388 4.464-2.97 8.928.729 4.464 1.861 4.464-.19 4.464-1.135 4.464.947 4.464-2.511 4.464.069 4.464.993 4.464-.55 4.464 1.318 4.464 1.162 4.464-1.435 4.464-.445 4.464-1.722 4.464-2.29 4.464-3.43 4.464-1.341 4.464-2.404 4.464-1.265 4.464.048 4.464-5.97 4.464-1.55 4.464-1.968 4.464 16.745 8.928-23.227 4.464 13.392 4.464-19.712 4.464-.811 4.464-.485 4.464-28.845 4.464-6.636 4.464 10.242 4.464 1.643 4.464-9.434 4.464-12.052 4.464 15.212 4.464 2.727 4.464-1.641 4.464-9.495 4.464 34.539 4.464 3.372 4.464-5.215 4.464 4.905 4.464 8.621 4.464-12.604 4.464-38.524 4.464 15.211 4.464-9.886 4.464 7.605 4.464 28.29 4.464-11.011 4.464-11.495 4.464-.325 4.464 21.35 4.464-12.205 4.464.361 4.464-19.661 4.464 5.738 4.464.616 4.464-1.158 4.464-2.346 4.464 1.793 4.464-8.411 4.464-4.616 4.464-.345 4.464-1.163 4.464-5.427 4.464-6.924 4.464 10.57 4.464-23.002 4.464-7.908 4.464 4.667 4.464 9.779 4.464 7.542 4.464-1.93 4.464-15.177 4.464 17.388 4.464 12.733 4.464-36.923 4.464 7.754 4.464 6.33 4.464 3.685 4.464 17.626 4.464-65.352 4.464-37.387 4.464-7.727 4.464-17.391 4.464-4.417 4.464-7.435 4.464-11.984 4.464-2.008 4.464-3.64 4.464-1.088 4.464-2.468 4.464-1.385 4.464-1.615 4.464-1.066 4.464-1.279 4.464-.183 4.464-1.082 4.464 1.137 4.464-.017 4.464.567 4.464 1.18 4.464 6.918 4.464 2.35 4.464-7.475 4.464.275 4.464-7.588 4.464-2.675 4.464 1.194 8.928 6.079 4.464-2.42 4.464-3.708 4.464.465 4.464-.384 4.464.476 4.464-1.194 8.928-.624 4.464-.574 4.464-.153 8.928.185 13.392-.59 13.392-.293 98.208-.003h0" fill="none" opacity=".4" stroke="#d62728" stroke-dasharray="7.4,3.2" stroke-width="2" id="line2d_39"/><path clip-path="url(#p9ee6f795ed)" d="M49.807 136.375l4.464-15.233 4.464-6.95 4.464-5.307 4.464-14.92 4.464-5.5 4.464-3.944 4.464-3.671 4.464-2.198 4.464 1.066 4.464.902 4.464.367 4.464 1.532 4.464 3.85 4.464 8.997 4.464 3.652 4.464 6.483 4.464 9.567 4.464 11.72 4.464 14.19 4.464-1.711 4.464-1.403 4.464 1.952 4.464.59 4.464-4.408 4.464-2.447 4.464.518 4.464 4.073 4.464-8.048 4.464-22.145 4.464-2.845 4.464-.459 4.464-6.466 4.464-2.983 4.464-10.264 4.464-3.58 4.464 6.908 4.464-2.474 4.464 12.231 4.464-.565 4.464-9.958 4.464 16.637 4.464 32.265 4.464 16.289 4.464 62.202 4.464-13.033 4.464-1.814 4.464-22.31 4.464-19.571 4.464-4.182 4.464-20.782 4.464 1.396 8.928 20.221 4.464 3.75 4.464-2.926 4.464-10.268 4.464-2.735 4.464 3.368 4.464 6.806 4.464 1.267 4.464-3.727 4.464-4.504 4.464-.873 4.464 1.042 4.464 4.5 4.464 3.451 4.464 1.08 4.464 3.88 4.464-1.28 4.464-.79 4.464 7.299 4.464-7.79 4.464 1.721 4.464 3.226 4.464 10.227 4.464 1.105 4.464-1.79 4.464 7.363 4.464-5.372 4.464-1.81 4.464 2.584 4.464-2.266 4.464-2.037 4.464-.87 4.464-10.2 4.464-3.842 4.464-7.316 4.464-8.865 4.464-10.745 4.464-3.553 4.464-5.61 4.464-1.51 4.464 1.03 4.464-8.186 4.464-4.655 4.464-5.272 4.464 56.317 4.464-16.137 4.464-10.972 4.464 38.292 4.464-20.541 4.464 7.22 4.464 2.646 4.464-38.28 4.464-11.483 4.464 12.53 4.464 9.39 4.464-1.725 4.464-2.254 4.464 21.743 4.464 7.497 4.464-1.774 4.464-20.257 4.464 64.233 4.464 9.218 4.464-8.25 4.464 5.65 4.464 11.421 4.464-48.443 4.464-63.869 4.464 7.125 4.464-15.934 4.464 6.116 4.464 35.68 4.464-10.473 4.464-8.044 4.464 3.111 4.464 23.848 4.464-10.325 4.464-.613 4.464-23.159 4.464 3.493 4.464-2.12 4.464-6.201 4.464-3.564 4.464-.368 4.464-9.726 4.464-5.328 4.464-3.638 4.464-.7 4.464-2.262 4.464-2.932 4.464 7.729 4.464-13.517 4.464-8.29 4.464-.534 4.464 5.014 4.464 1.873 4.464 1.459 4.464-7.088 4.464 15.39 4.464 28.421 4.464-17.1 4.464 25.619 4.464 7.67 4.464 7.178 4.464 21.415 4.464-60.123 4.464-32.007 4.464-5.543 4.464-9.52 4.464-1.787 8.928-8.37 4.464-.56 4.464-1.746 4.464-.385 4.464-1.173 4.464-.278 4.464-1.082 4.464-.553 8.928-.926 4.464-.864 4.464.51 4.464-.116 4.464.189 4.464.419 4.464 2.39 4.464 1.806 4.464-3.116 4.464 2.717 4.464-4.504 4.464-1.793 4.464 1.06 4.464 2.749 4.464 2.015 4.464-2.426 4.464-2.784 4.464.756 4.464-.223 4.464.203 4.464-1.22 4.464-.022 4.464-.237 4.464-.431 17.856-.302 17.856-.553 53.568-.012h49.104" fill="none" opacity=".4" stroke="#9467bd" stroke-dasharray="7.4,3.2" stroke-width="2" id="line2d_40"/><path clip-path="url(#p9ee6f795ed)" d="M49.807 154.364l4.464-14.887 4.464 5.694 4.464.377 4.464-18.104 4.464-5.478 4.464-4.878 4.464-5.488 4.464-.552 4.464 4.263 4.464 2.679 4.464 2.14 4.464 3.945 4.464 7.346 4.464 15.084 4.464 3.052 4.464 6.466 4.464 11.915 4.464 11.563 4.464 9.7 4.464-2.2 4.464-.772 4.464 2.812 4.464 1.15 4.464-4.618 4.464-2.56 4.464.047 4.464 2.242 4.464-7.995 4.464-22.072 4.464 6.51 4.464 1.167 4.464-8.765 4.464-3.932 4.464-28.297 4.464-8.233 4.464 14.825 4.464-1.198 4.464 22.111 4.464 6.154 4.464-18.673 4.464 23.187 4.464 40.394 4.464 21.302 4.464 52.818 4.464-2.57 4.464 2.536 4.464-3.986 4.464-8.97 4.464-1.004 4.464-14.306 4.464-.616 4.464 7.124 4.464 6.453 4.464 1.983 4.464-1.214 4.464-3.519 4.464-.45 4.464 3.215 4.464 1.403 4.464-.326 4.464-3.553 4.464-4.395 4.464 1.4 4.464 2.147 4.464 3.164 4.464 2.64 8.928.982 4.464.91 4.464-.256 4.464 2.7 4.464-3.623 4.464.378 4.464 1.947 4.464 3.87 4.464.457 4.464-1.523 4.464 1.254 4.464-3.675 4.464-1.078 4.464 1.45 4.464-1.333 4.464-2.561 4.464-1.943 4.464-6.319 4.464-.217 4.464-2.17 4.464-3.201 4.464-3.719 4.464-1.18 4.464-2.783 4.464 1.125 4.464 2.066 4.464-2.22 4.464-2.768 4.464-.693 4.464 30.703 4.464-11.135 4.464-14.173 4.464 15.936 4.464-21.327 4.464-2.767 4.464-2.228 4.464-35.287 4.464-12.747 4.464 12.1 4.464 6.304 4.464-5.242 4.464-4.736 4.464 19.084 4.464 6.444 4.464-7.833 4.464-14.966 4.464 51.138 4.464 4.803 4.464-6.297 4.464 1.79 4.464 7.804 4.464-31.158 4.464-63.228 4.464 9.854 4.464-16.448 4.464 6.902 4.464 39.128 4.464-13.433 4.464-11.45 4.464 2.087 4.464 32.252 4.464-10.355 4.464.59 4.464-26.403 4.464 7.344 4.464.996 4.464-3.979 4.464-2.261 4.464 1.372 4.464-12.09 4.464-6.219 4.464-1.299 4.464 1.681 4.464-3.675 4.464-5.968 4.464 15.45 4.464-26.198 4.464-20.128 4.464 2.364 4.464 9.067 4.464.466 4.464-1.134 4.464-18.65 4.464 26.23 4.464 33.279 4.464-30.205 4.464 29.024 4.464 11.672 4.464 6.427 4.464 23.35 4.464-77.317 4.464-53.838 4.464-8.162 4.464-16.466 4.464-3.58 4.464-6.418 4.464-8.352 4.464-1.169 4.464-2.374 4.464-.704 8.928-2.69 4.464-.868 4.464-.694 4.464-.978 4.464-.087 4.464-.825 4.464.495 4.464-.119 4.464.112 4.464.333 4.464 2.55 4.464 1.253 4.464-2.921 4.464 1.146 4.464-3.343 4.464-1.237 4.464.995 4.464 3.634 4.464 4.579 4.464-2.944 4.464-4.454 4.464.737 4.464-.334 4.464.462 4.464-1.555 4.464-.04 4.464-.382 4.464-.645 4.464-.18 4.464-.056 4.464.152 8.928-.372 17.856-.33h98.208" fill="none" opacity=".4" stroke="#1f77b4" stroke-dasharray="12.8,3.2,2,3.2" stroke-width="2" id="line2d_41"/><path clip-path="url(#p9ee6f795ed)" d="M49.807 157.161l4.464-24.985 8.928-7.178 4.464-12.46 4.464-2.517 4.464-4.692 4.464-5.78 4.464-.082 4.464-1.146 4.464.367 4.464-.408 4.464.511 4.464 3.219 4.464 10.007 4.464 3.096 4.464 6.43 4.464 12.15 4.464 11.185 4.464 15.934 4.464-.476 4.464-.835 4.464 1.54 4.464-.015 4.464-5.463 4.464-2.459 4.464.486 4.464 4.742 4.464-4.482 4.464-14.033 4.464 8.001 4.464.637 4.464-8.319 4.464-4.687 4.464-28.436 4.464-5.83 4.464 12.197 4.464-.257 4.464 18.705 4.464 5.284 4.464-13.846 4.464 17.053 4.464 34.298 4.464 26.278 4.464 61.536 4.464-3.999 4.464 3.24 4.464-6.085 4.464-11.725 4.464-1.296 4.464-12.717 4.464 1.974 4.464 11.916 4.464 8.821 4.464 3.14 4.464-1.523 4.464-4.586 4.464-1.931 4.464 3.665 4.464.448 4.464-1.063 4.464-2.871 4.464-3.288 4.464 2.192 4.464 1.007 4.464 2.951 4.464 1.479 4.464-.834 4.464.666 4.464.316 4.464-1.613 4.464 1.871 4.464-4.077 4.464.168 4.464 2.72 4.464 4.784 4.464 1.199 4.464-1.994 4.464 2.73 4.464-2.246 4.464-.168 4.464 2.22 4.464-1.887 4.464-.818 4.464 5.169 4.464-3.209 4.464.915 4.464-2.164 4.464-2.863 4.464-5.477 8.928-4.185 4.464 1.625 4.464 1.818 4.464-2.335 4.464-1.509 4.464-.583 4.464 24.972 4.464-14.048 4.464-18.166 4.464 16.652 4.464-22.206 4.464-3.563 4.464-3.349 4.464-36.499 4.464-11.967 4.464 12.157 4.464 3.584 4.464-8.33 4.464-8.056 4.464 17.793 4.464 11.021 4.464-4.583 4.464-7.22 4.464 55.926 4.464 6.535 4.464-4.078 4.464 3.035 4.464 8.326 4.464-19.886 4.464-51.268 4.464 12.29 4.464-14.664 4.464 6.395 4.464 30.762 4.464-12.02 4.464-10.262 4.464.08 4.464 25.406 4.464-13.014 4.464-2.514 4.464-25.664 4.464 3.906 4.464.66 4.464-6.001 4.464-1.694 4.464-3.286 4.464-11.878 4.464-6.62 4.464-3.278 4.464.944 4.464-3.817 4.464-3.407 4.464 15.817 4.464-26.841 4.464-21.416 4.464 2.261 4.464 6.694 4.464-2.225 4.464-3.168 4.464-19.433 4.464 18.186 4.464 16.51 4.464-35.349 4.464 15.247 4.464 10.096 4.464 6.47 4.464 22.475 4.464-70.19 4.464-32.897 4.464-5.562 4.464-8.835 4.464-1.959 4.464-3.152 4.464-4.256 4.464-.523 4.464-1.184 4.464-.334 8.928-1.258 8.928-.746 4.464-.78 4.464.06 4.464-.282 4.464.362 4.464.011 4.464.224 4.464.404 4.464 2.4 4.464.607 4.464-2.437 4.464-.17 4.464-2.093 4.464-.65 4.464.28 4.464.872 4.464 1.039 4.464-.677 4.464-1.103 4.464.213 4.464-.087 4.464.213 4.464-.446 4.464.01 13.392-.37 22.32-.147 22.32-.13 89.28-.001h0" fill="none" opacity=".4" stroke="#ff7f0e" stroke-dasharray="12.8,3.2,2,3.2" stroke-width="2" id="line2d_42"/><path clip-path="url(#p9ee6f795ed)" d="M49.807 165.737l4.464-22.064 4.464-14.06 4.464-4.101 4.464-8.296 8.928-9.276 4.464-4.17 4.464-2.386 4.464.371 4.464 1.43 4.464.112 4.464 1.631 4.464 4.789 4.464 9.742 4.464 1.255 4.464 4.842 8.928 21.474 4.464 18.214 8.928-1.163 4.464 3.036 4.464 1.547 4.464-3.82 4.464-2.29 4.464 1.83 4.464 9.195 4.464-4.829 4.464-22.312 4.464-3.015 4.464.564 4.464-7.742 4.464-4.267 4.464-27.206 4.464-3.517 4.464 8.73 4.464-4.459 4.464 22.143 4.464 17.631 4.464-9.714 4.464 31.997 4.464 48.549 4.464 24.823 4.464 40.297 4.464-1.553 4.464.252 4.464-7.4 4.464-12.153 4.464-17.653 4.464-20.218 4.464-4.645 4.464 6.946 4.464 5.455 4.464-2.79 4.464-1.528 4.464-11.91 4.464-6.997 4.464 1.376 8.928-4.74 4.464-6.153 4.464-8.438 4.464-2.7 4.464-1.226 4.464 3.166 4.464 1.709 4.464-1.187 4.464 2.258 4.464-2.888 4.464-2.514 4.464 4.521 4.464-9.556 4.464-.304 4.464 2.287 4.464 11.188 4.464 3.445 4.464-4.068 4.464 5.231 4.464-8.51 4.464-1.516 4.464 3.32 8.928-9.872 4.464-3.814 4.464-16.074 4.464-7.202 8.928-22.42 4.464-17.887 4.464-6.21 4.464-7.941 4.464-2.654 4.464-1.796 4.464-9.055 4.464-4.853 4.464-3.624 4.464 52.554 4.464-24.839 4.464-10.652L496.207 133l4.464-20.352 4.464 9.8 4.464 4.2 4.464-34.044 4.464-10.804 4.464 9.754 4.464 5.457 4.464-2.799 4.464-2.373 4.464 17.294 4.464 8.588 4.464-3.485 4.464-12.31 4.464 76.71 4.464 9.657 4.464-10.63 4.464 4.505 4.464 16.988 4.464-53.986 4.464-63.822 4.464 8.714 4.464-14.503 4.464 5.33 4.464 35.386 4.464-8.25 4.464-7.669 4.464 2.973 4.464 29.888 4.464-8.254 4.464.635 4.464-25.484 4.464 3.813 4.464-3.268 4.464-8.092 4.464-3.419 4.464-.724 4.464-8.89 4.464-4.657 4.464-2.56 4.464.776 4.464-2.625 4.464-3.682 4.464 7.891 4.464-14.559 4.464-8.11 4.464 2.008 4.464 5.86 4.464 1.506 4.464 3.628 4.464-7.571 4.464 16.48 4.464 19.93 4.464-22.256 4.464 19.878 4.464 7.554 4.464 6.841 4.464 22.466 4.464-62.132 4.464-23.404 4.464-4.242 4.464-5.497 4.464-.813 4.464-2.083 4.464-2.587 4.464-.25 4.464-.791 4.464-.15 4.464-.478 4.464-.188 4.464-.397 4.464-.241 4.464-.412 4.464-.108 4.464-.25 4.464.232 4.464-.023 8.928.357 4.464.83 4.464.525 4.464-1.285 4.464.574 4.464-1.502 4.464-.45 4.464.312 8.928 2.061 4.464-.869 4.464-1.146 4.464.24 4.464-.088 4.464.073 4.464-.416 8.928-.067 8.928-.182 49.104-.212h84.816" fill="none" stroke="#2ca02c" stroke-dasharray="12.8,3.2,2,3.2" stroke-width="2" id="line2d_43"/><path clip-path="url(#p9ee6f795ed)" d="M49.807 169.62l4.464-25.285 4.464-11.657 4.464-5.714 4.464-3.209 4.464 1.396 4.464-.148 4.464.28 4.464 2.113 4.464-2.487 4.464-.796 4.464-3.88 4.464-4.5 4.464-2.877 4.464-4.113 4.464-1.596 4.464 1.724 4.464 5.036 4.464 6.913 4.464 10.29 4.464.921 4.464 1.51 4.464 3.478 4.464 1.397 4.464-4.025 4.464-2.543 4.464.136 4.464 1.303 4.464-6.212 4.464-14.125 4.464 7.349 4.464.864 4.464-6.847 4.464-5.025 4.464-21.816 4.464-5.945 4.464 7.453 4.464-3.3 4.464 11.11 4.464 6.09 4.464-2.709 4.464 19.427 4.464 31.015 4.464 16.803 4.464 60.868 4.464-16.72 4.464-5.166 4.464-18.335 4.464-22.563 4.464-2.953 4.464-17.46 4.464.683 4.464 7.801 4.464 8.077 4.464-1.511 4.464-3.094 4.464-6.999 4.464-5.268 4.464.769 4.464 1.218 4.464-.434 4.464-6.434 4.464-9.145 8.928 8.975 4.464 3.505 4.464 3.908 4.464.146 4.464-3.562 4.464 3.318 4.464-.379 4.464 5.859 4.464-6.942 4.464-.621 4.464 4.812 4.464 7.723 4.464 1.719 4.464-1.84 4.464 3.794 4.464-3.484 4.464-.656 4.464 4.9 4.464-1.533 4.464-6.756 4.464 5 4.464-7.15 4.464 3.985 4.464-2.023 4.464-5.492 4.464-7.011 4.464-4.545 4.464-6.114 4.464-.903 4.464-3.217 8.928-22.715 4.464-5.366 4.464 51.992 4.464-14.959 4.464-12.157 4.464 29.167 4.464-2.722 4.464 11.088 4.464 6.312 4.464-32.578 4.464-12.964 4.464 9.754 4.464 7.33 4.464-4.25 4.464.41 4.464 15.684 4.464 6.03 4.464-1.228 4.464-9.891 4.464 62.317 4.464 7.257 4.464-9.843 4.464 3.209 4.464 12.904 4.464-36.024 4.464-66.733 4.464-.048 4.464-14.034 4.464 2.629 4.464 30.144 4.464-11.621 4.464-9.45 4.464-.48 4.464 22.687 4.464-9.905 4.464-.064 4.464-22.863 4.464 3.802 4.464-.904 4.464-7.487 4.464-3.462 4.464-1.414 4.464-10.174 4.464-6.297 4.464-4.004 4.464.727 4.464-1.736 4.464-2.15 4.464 6.414 4.464-14.399 4.464-11.943 4.464.416 4.464 2.69 4.464-1.556 4.464 1.76 4.464-6.176 4.464 12.611 4.464 27.707 4.464.57 4.464 38.005 4.464 13.91 4.464 6.874 4.464 24.547 4.464-64.102 4.464-45.279 4.464-4.159 4.464-12.145 4.464-3.123 4.464-4.524 4.464-5.762 4.464-.972 4.464-1.845 4.464-.628 4.464-1.201 4.464-1.086 4.464-.75 4.464-.607 4.464-1.152 4.464-.162 4.464-.754 4.464.415 4.464-.029 4.464.089 4.464.248 4.464 1.547 4.464 1.086 4.464-1.696 4.464 1.516 4.464-2.651 4.464-1.43 4.464 1.217 4.464 3.405 4.464 3.87 4.464-2.71 4.464-4.41 4.464.535 4.464-.2 4.464.203 4.464-1.21 8.928-.467 4.464-.542 4.464-.147 4.464.012 4.464.126 13.392-.542 17.856-.229h93.744" fill="none" stroke="#d62728" stroke-dasharray="12.8,3.2,2,3.2" stroke-width="2" id="line2d_44"/><path clip-path="url(#p9ee6f795ed)" d="M49.807 151.521l4.464-21.741 4.464-13.716 4.464-9.4 4.464-16.12 4.464-2.966 4.464-2.499 4.464-3.186 4.464.529 4.464 6.134 4.464 3.171 4.464 1.833 4.464 2.396 4.464 4.54 4.464 9.568 4.464 1.308 4.464 5.039 4.464 11.85 4.464 10.991 4.464 17.691 4.464-.554 4.464.229 4.464 3.518 4.464 1.72 4.464-4.004 4.464-2.627 4.464.255 4.464 5.327 4.464-8.673 4.464-24.46 4.464 3.332 4.464 2.7 4.464-7.444 4.464-3.661 4.464-29.97 4.464-5.441 4.464 6.795 4.464-3.925 4.464 21.376 4.464 10.516 4.464-13.002 4.464 24.562 4.464 43.3 4.464 26.794 4.464 59.619 4.464-5.673 4.464.421 4.464-11.567 4.464-18.107 4.464-16.195 4.464-26.103 4.464-4.634 4.464 10.745 4.464 8.904 4.464 1.814 4.464-3.47 4.464-11.804 4.464-5.086 4.464 5.073 4.464-2.206 4.464-2.918 4.464-5.85 4.464-6.244 4.464.011 4.464-.628 4.464 4.376 4.464.804 4.464-2.372 4.464 2.985 4.464-4.412 4.464-3.658 4.464 5.227 4.464-8.288 4.464.624 4.464 1.94 4.464 11.627 4.464 3.008 4.464-4.39 4.464 7.24 4.464-5.885 4.464.82 4.464 3.99 4.464-4.949 4.464-2.187 4.464 7.063 4.464-8.014 4.464-1.447 8.928-13.57 4.464-12.742 4.464-3.303 4.464-4.617 4.464.249 4.464 3.11 4.464-5.187 4.464 2.477 4.464-1.893 4.464 63.544 4.464-20.771 4.464-9.718 4.464 40.11 4.464-28.533 4.464 3.17 4.464 1.3 4.464-44.43 4.464-15.073 4.464 16.785 4.464 2.145 4.464-6.363 4.464-7.165 4.464 22.993 4.464 7.742 4.464-8.667 4.464-19.052 4.464 67.473 4.464 4.622 4.464-12.584 4.464 3.211 4.464 14.922 4.464-55.406 4.464-64.945 4.464 15.644 4.464-13.72 4.464 9.66 4.464 36.622 4.464-11.306 4.464-10.625 4.464 1.436 4.464 28.198 4.464-13.828 4.464-.524L634.591 113l4.464 5.013 4.464-.336 4.464-4.419 4.464-2.453 4.464-1.077 4.464-9.355 4.464-5.297 4.464-2.179 4.464-.912 8.928-7.823 4.464 7.956 4.464-18.264 4.464-6.635 4.464 1.638 4.464 6.966 4.464 3.886 4.464-1.26 4.464-9.39 4.464 16.625 4.464 22.529 4.464-27.498 4.464 20.634 4.464 7.242 4.464 8.989 4.464 25.998 4.464-63.79 4.464-23.757 4.464-6.43 4.464-9.062 4.464-1.425 4.464-3.58 4.464-4.706 4.464-.683 4.464-1.46 4.464-.348 4.464-.91 4.464-.412 4.464-.636 17.856-1.26 4.464.353 4.464-.067 4.464.222 4.464.391 4.464 1.946 4.464 1.353 4.464-2.342 4.464 2.163 4.464-3.715 4.464-1.142 4.464 1.07 4.464 2.963 4.464 2.293 4.464-2.664 4.464-2.95 4.464.696 4.464-.241 4.464.202 4.464-1.167 4.464-.047 4.464-.214 4.464-.33 8.928-.115 4.464.132 8.928-.316 22.32-.318h93.744" fill="none" opacity=".4" stroke="#9467bd" stroke-dasharray="12.8,3.2,2,3.2" stroke-width="2" id="line2d_45"/><path clip-path="url(#p9ee6f795ed)" d="M49.807 223.99l4.464-24.597 4.464-6.552 4.464-9.414 4.464-18.365 4.464 2.57 4.464-2.16 4.464-6.837 4.464 5.134 4.464 6.975 4.464 4.71 4.464 5 4.464 5.937 4.464 7.86 4.464 13.769 4.464 3.11 4.464 6.349 4.464 8.673 4.464 9.022 4.464.525 4.464-2.25 4.464-1.1 4.464.582 4.464-.887 4.464-5.974 4.464-2.49 4.464-1.935 4.464-3.64 4.464-10.32 4.464-25.006 4.464 7.558 4.464-1.549 4.464-7.401 4.464-3.785 4.464-23.803 4.464-15.173 4.464 16.463 4.464-.241 4.464 22.768 4.464 12.348 4.464-10.984 4.464 22.653 4.464 28.408 4.464 18.543 4.464 36.645 4.464 1.108 4.464 2.319 4.464-.063 4.464-1.64 4.464 1.006 4.464-3.887 4.464-1.163 4.464 1.024 4.464 1.635 4.464.603 4.464-.968 4.464-1.234 4.464-.578 4.464.284 4.464.49 4.464.043 4.464-3.178 4.464-3.964 4.464.477 4.464-.564 4.464 1.16 4.464 1.678 4.464.25 4.464-1.196 4.464 1.446 4.464.29 4.464 1.338 4.464-2.148 4.464-.477 4.464.814 4.464 1.577 4.464.38 4.464-.735 4.464.114 4.464-2.541 4.464-.588 4.464 1.13 4.464-.558 4.464-4.058 4.464-6.176 4.464-7.394 4.464-1.328 4.464-3.3 4.464-5.334 4.464-8.36 4.464-5.864 4.464-8.542 4.464-3.55 4.464-1.732 4.464-8.297 4.464-13.782 4.464-1.757 4.464 40.06 4.464-27.111 4.464-24.226 4.464 26.907 4.464-13.005 4.464 12.307 4.464 9.481 4.464-14.8 4.464-6.41 4.464 7.293 4.464 8.135 4.464-2.692 4.464-4.356 4.464 11.55 4.464 7.487 4.464.41 4.464-4.24 4.464 31.437 4.464 3.987 4.464-3.025 4.464.437 4.464 5.46 4.464-12.813 4.464-43.455 4.464-.445 4.464-13.63 4.464-.148 4.464 28.177 8.928-22.118 4.464 1.46 4.464 28.146 4.464-7.615 4.464 1.855 4.464-22.915 4.464 5.418 4.464-.3 4.464-7 4.464-4.716 4.464 1.93 4.464-9.866 4.464-5.323 4.464.071 4.464 3.76 4.464-2.546 4.464-5.552 4.464 12.5 4.464-22.455 4.464-20.778 8.928 17.546 4.464-.785 4.464 3.462 4.464-18.222 4.464 23.736 4.464 17.955 4.464-25.995 4.464 17.07 4.464 8.314 4.464 4.197 4.464 17.786 4.464-57.637 4.464-49.434 4.464-2.768 4.464-17.892 4.464-4.937 4.464-7.182 4.464-13.612 4.464-1.58 4.464-4.241 4.464-1.26 4.464-3.215 4.464-1.28 4.464-1.68 4.464-2.265 4.464-3.315 4.464.958 4.464-3.647 4.464 2.103 4.464-.606 4.464-.048 4.464.998 4.464 7.186 4.464 1.783 4.464-8.544 4.464.67 4.464-8.484 4.464-4.109 4.464 4.845 4.464 12.018 4.464 8.601 4.464-8.555 4.464-12.175 4.464 1.624 4.464-.726 4.464.652 4.464-3.68 4.464-.802 4.464-1.081 4.464-1.744 4.464-.468 8.928.641 8.928-1.474 8.928-.725 4.464-.716 13.392-.05 89.28-.003h0" fill="none" opacity=".4" stroke="#1f77b4" stroke-dasharray="2,3.3" stroke-width="2" id="line2d_46"/><path clip-path="url(#p9ee6f795ed)" d="M49.87 295.074v-271.8" fill="none" stroke="#d62728" stroke-dasharray="19.2,4.8,3,4.8" stroke-width="3" id="line2d_47"/><path clip-path="url(#p9ee6f795ed)" d="M496.27 295.074v-271.8" fill="none" stroke="#1f77b4" stroke-dasharray="11.1,4.8" stroke-width="3" id="line2d_48"/><path clip-path="url(#p9ee6f795ed)" d="M615.31 295.074v-271.8" fill="none" stroke="#2ca02c" stroke-dasharray="19.2,4.8,3,4.8" stroke-width="3" id="line2d_49"/><path d="M49.807 295.074v-271.8" fill="none" stroke="#000" stroke-linecap="square" stroke-width="1.25" id="patch_3"/><path d="M942.607 295.074v-271.8" fill="none" stroke="#000" stroke-linecap="square" stroke-width="1.25" id="patch_4"/><path d="M49.807 295.074h892.8" fill="none" stroke="#000" stroke-linecap="square" stroke-width="1.25" id="patch_5"/><path d="M49.807 23.274h892.8" fill="none" stroke="#000" stroke-linecap="square" stroke-width="1.25" id="patch_6"/><g id="text_18"><defs><path d="M5.516 54.688h42.672v-8.204L14.406 7.172h33.782V0H4.297v8.203l33.797 39.313H5.516z" id="DejaVuSans-7a"/><path d="M2.984 54.688H12.5L29.594 8.797l17.093 45.89h9.516L35.687 0H23.485z" id="DejaVuSans-76"/><path d="M48.781 52.594v-8.407q-3.812 2.11-7.64 3.157-3.828 1.047-7.735 1.047-8.75 0-13.593-5.547-4.829-5.532-4.829-15.547 0-10.016 4.829-15.563 4.843-5.53 13.593-5.53 3.907 0 7.735 1.046 3.828 1.047 7.64 3.156V2.094Q45.016.344 40.984-.531q-4.015-.89-8.562-.89-12.36 0-19.64 7.765-7.266 7.765-7.266 20.953 0 13.375 7.343 21.031Q20.22 56 33.016 56q4.14 0 8.093-.86 3.953-.843 7.672-2.546z" id="DejaVuSans-63"/><path d="M54.89 33.016V0h-8.984v32.719q0 7.765-3.031 11.61-3.031 3.858-9.078 3.858-7.281 0-11.484-4.64-4.204-4.625-4.204-12.64V0H9.08v75.984h9.03V46.188q3.235 4.937 7.594 7.374Q30.078 56 35.797 56q9.422 0 14.25-5.828 4.844-5.828 4.844-17.156z" id="DejaVuSans-68"/></defs><g transform="matrix(.14 0 0 -.14 54.333 17.838)"><use xlink:href="#DejaVuSans-7a"/><use x="52.49" xlink:href="#DejaVuSans-76"/><use x="111.67" xlink:href="#DejaVuSans-74"/><use x="150.879" xlink:href="#DejaVuSans-61"/><use x="212.158" xlink:href="#DejaVuSans-6e"/><use x="275.537" xlink:href="#DejaVuSans-74"/><use x="314.746" xlink:href="#DejaVuSans-69"/><use x="342.529" xlink:href="#DejaVuSans-6d"/><use x="439.941" xlink:href="#DejaVuSans-65"/><use x="501.465" xlink:href="#DejaVuSans-63"/><use x="556.445" xlink:href="#DejaVuSans-68"/></g></g><g id="text_19"><defs><path d="M32.172-5.078q-3.797-9.766-7.422-12.735-3.61-2.984-9.656-2.984H7.906v7.516h5.282q3.703 0 5.75 1.765Q21-9.766 23.483-3.219l1.61 4.094-22.11 53.813H12.5l17.094-42.766 17.093 42.766h9.516z" id="DejaVuSans-79"/><path d="M41.11 46.297q-1.516.875-3.297 1.281Q36.03 48 33.89 48q-7.625 0-11.703-4.953-4.079-4.953-4.079-14.234V0H9.08v54.688h9.03v-8.5q2.844 4.984 7.375 7.39Q30.031 56 36.531 56q.922 0 2.047-.125 1.125-.11 2.484-.36z" id="DejaVuSans-72"/></defs><g transform="matrix(.14 0 0 -.14 500.733 17.838)"><use xlink:href="#DejaVuSans-68"/><use x="63.379" xlink:href="#DejaVuSans-79"/><use x="122.559" xlink:href="#DejaVuSans-64"/><use x="186.035" xlink:href="#DejaVuSans-72"/><use x="227.148" xlink:href="#DejaVuSans-61"/><use x="288.428" xlink:href="#DejaVuSans-73"/></g></g><g id="text_20"><defs><path d="M40.578 39.313Q47.656 37.797 51.625 33q3.984-4.781 3.984-11.813 0-10.78-7.422-16.703-7.421-5.906-21.093-5.906-4.578 0-9.438.906-4.86.907-10.031 2.72v9.515q4.094-2.39 8.969-3.61 4.89-1.218 10.218-1.218 9.266 0 14.125 3.656 4.86 3.656 4.86 10.64 0 6.454-4.516 10.079-4.515 3.64-12.562 3.64h-8.5v8.11h8.89q7.266 0 11.125 2.906 3.86 2.906 3.86 8.375 0 5.61-3.985 8.61-3.968 3.015-11.39 3.015-4.063 0-8.703-.89-4.641-.876-10.203-2.72v8.782q5.624 1.562 10.53 2.344 4.907.78 9.25.78 11.235 0 17.766-5.109 6.547-5.093 6.547-13.78 0-6.063-3.468-10.235-3.47-4.172-9.86-5.782z" id="DejaVuSans-33"/><path d="M9.078 75.984h9.031V31.11l26.813 23.578H56.39l-29-25.578L57.625 0H45.906L18.11 26.703V0H9.08z" id="DejaVuSans-6b"/></defs><g transform="matrix(.14 0 0 -.14 619.773 17.838)"><use xlink:href="#DejaVuSans-7a"/><use x="52.49" xlink:href="#DejaVuSans-76"/><use x="111.67" xlink:href="#DejaVuSans-74"/><use x="150.879" xlink:href="#DejaVuSans-33"/><use x="214.502" xlink:href="#DejaVuSans-68"/><use x="277.881" xlink:href="#DejaVuSans-61"/><use x="339.16" xlink:href="#DejaVuSans-74"/><use x="378.369" xlink:href="#DejaVuSans-63"/><use x="433.35" xlink:href="#DejaVuSans-68"/><use x="496.729" xlink:href="#DejaVuSans-6c"/><use x="524.512" xlink:href="#DejaVuSans-75"/><use x="587.891" xlink:href="#DejaVuSans-72"/><use x="629.004" xlink:href="#DejaVuSans-6b"/><use x="686.867" xlink:href="#DejaVuSans-65"/><use x="748.391" xlink:href="#DejaVuSans-72"/></g></g><g id="legend_1"><path d="M957.035 290.409h138.385V28.774H957.035z" fill="#fff" opacity=".8" stroke="#ccc" id="patch_7"/><path d="M961.435 37.682h22" fill="none" opacity=".4" stroke="#1f77b4" stroke-linecap="square" stroke-width="2" id="line2d_50"/><g id="text_21"><defs><path d="M45.406 27.984q0 9.766-4.031 15.125-4.016 5.375-11.297 5.375-7.219 0-11.25-5.375-4.031-5.359-4.031-15.125 0-9.718 4.031-15.093t11.25-5.375q7.281 0 11.297 5.375 4.031 5.375 4.031 15.093zm8.985-21.203q0-13.953-6.203-20.765Q42-20.797 29.203-20.797q-4.734 0-8.937.703-4.203.703-8.157 2.172v8.735q3.954-2.141 7.813-3.157 3.86-1.031 7.86-1.031 8.843 0 13.234 4.61 4.39 4.609 4.39 13.937v4.453q-2.781-4.844-7.125-7.234Q33.938 0 27.875 0 17.828 0 11.672 7.656q-6.156 7.672-6.156 20.328 0 12.688 6.156 20.344Q17.828 56 27.875 56q6.063 0 10.406-2.39 4.344-2.391 7.125-7.22v8.297h8.985z" id="DejaVuSans-67"/></defs><g transform="matrix(.11 0 0 -.11 992.235 41.532)"><use xlink:href="#DejaVuSans-31"/><use x="63.623" xlink:href="#DejaVuSans-30"/><use x="127.246" xlink:href="#DejaVuSans-68"/><use x="190.625" xlink:href="#DejaVuSans-61"/><use x="251.904" xlink:href="#DejaVuSans-74"/><use x="291.113" xlink:href="#DejaVuSans-63"/><use x="346.094" xlink:href="#DejaVuSans-68"/><use x="409.473" xlink:href="#DejaVuSans-6c"/><use x="437.256" xlink:href="#DejaVuSans-69"/><use x="465.039" xlink:href="#DejaVuSans-6e"/><use x="528.418" xlink:href="#DejaVuSans-67"/></g></g><path d="M961.435 53.828h22" fill="none" opacity=".4" stroke="#ff7f0e" stroke-linecap="square" stroke-width="2" id="line2d_52"/><g transform="matrix(.11 0 0 -.11 992.235 57.678)" id="text_22"><use xlink:href="#DejaVuSans-31"/><use x="63.623" xlink:href="#DejaVuSans-32"/><use x="127.246" xlink:href="#DejaVuSans-68"/><use x="190.625" xlink:href="#DejaVuSans-61"/><use x="251.904" xlink:href="#DejaVuSans-74"/><use x="291.113" xlink:href="#DejaVuSans-63"/><use x="346.094" xlink:href="#DejaVuSans-68"/><use x="409.473" xlink:href="#DejaVuSans-68"/><use x="472.852" xlink:href="#DejaVuSans-79"/><use x="532.031" xlink:href="#DejaVuSans-64"/><use x="595.508" xlink:href="#DejaVuSans-72"/><use x="636.621" xlink:href="#DejaVuSans-61"/><use x="697.9" xlink:href="#DejaVuSans-73"/></g><path d="M961.435 69.974h22" fill="none" opacity=".4" stroke="#2ca02c" stroke-linecap="square" stroke-width="2" id="line2d_54"/><g id="text_23"><defs><path d="M30.61 48.39q-7.22 0-11.422-5.64-4.204-5.64-4.204-15.453 0-9.813 4.172-15.453 4.188-5.64 11.453-5.64 7.188 0 11.375 5.655 4.203 5.672 4.203 15.438 0 9.719-4.203 15.406-4.187 5.688-11.375 5.688zm0 7.61q11.718 0 18.406-7.625 6.703-7.61 6.703-21.078 0-13.422-6.703-21.078-6.688-7.64-18.407-7.64-11.765 0-18.437 7.64-6.656 7.656-6.656 21.078 0 13.469 6.656 21.078Q18.844 56 30.609 56z" id="DejaVuSans-6f"/></defs><g transform="matrix(.11 0 0 -.11 992.235 73.824)"><use xlink:href="#DejaVuSans-31"/><use x="63.623" xlink:href="#DejaVuSans-32"/><use x="127.246" xlink:href="#DejaVuSans-70"/><use x="190.723" xlink:href="#DejaVuSans-6f"/><use x="251.904" xlink:href="#DejaVuSans-6f"/><use x="313.086" xlink:href="#DejaVuSans-6c"/><use x="340.869" xlink:href="#DejaVuSans-6d"/><use x="438.281" xlink:href="#DejaVuSans-75"/><use x="501.66" xlink:href="#DejaVuSans-74"/><use x="540.869" xlink:href="#DejaVuSans-61"/></g></g><path d="M961.435 86.12h22" fill="none" opacity=".4" stroke="#d62728" stroke-linecap="square" stroke-width="2" id="line2d_56"/><g transform="matrix(.11 0 0 -.11 992.235 89.97)" id="text_24"><use xlink:href="#DejaVuSans-32"/><use x="63.623" xlink:href="#DejaVuSans-68"/><use x="127.002" xlink:href="#DejaVuSans-61"/><use x="188.281" xlink:href="#DejaVuSans-74"/><use x="227.49" xlink:href="#DejaVuSans-63"/><use x="282.471" xlink:href="#DejaVuSans-68"/><use x="345.85" xlink:href="#DejaVuSans-6d"/><use x="443.262" xlink:href="#DejaVuSans-75"/><use x="506.641" xlink:href="#DejaVuSans-74"/><use x="545.85" xlink:href="#DejaVuSans-61"/></g><path d="M961.435 102.266h22" fill="none" opacity=".4" stroke="#9467bd" stroke-linecap="square" stroke-width="2" id="line2d_58"/><g id="text_25"><defs><path d="M48.688 27.297q0 9.906-4.079 15.547-4.078 5.64-11.203 5.64-7.14 0-11.218-5.64-4.079-5.64-4.079-15.547 0-9.906 4.078-15.547 4.079-5.64 11.22-5.64 7.124 0 11.202 5.64t4.078 15.547zM18.108 46.39q2.844 4.875 7.157 7.234Q29.594 56 35.594 56q9.968 0 16.187-7.906 6.235-7.907 6.235-20.797T51.78 6.484q-6.218-7.906-16.187-7.906-6 0-10.328 2.375-4.313 2.375-7.157 7.25V0H9.08v75.984h9.03z" id="DejaVuSans-62"/></defs><g transform="matrix(.11 0 0 -.11 992.235 106.116)"><use xlink:href="#DejaVuSans-33"/><use x="63.623" xlink:href="#DejaVuSans-62"/><use x="127.1" xlink:href="#DejaVuSans-61"/><use x="188.379" xlink:href="#DejaVuSans-73"/><use x="240.479" xlink:href="#DejaVuSans-65"/><use x="302.002" xlink:href="#DejaVuSans-70"/><use x="365.479" xlink:href="#DejaVuSans-6f"/><use x="426.66" xlink:href="#DejaVuSans-6f"/><use x="487.842" xlink:href="#DejaVuSans-6c"/><use x="515.625" xlink:href="#DejaVuSans-6c"/><use x="543.408" xlink:href="#DejaVuSans-69"/><use x="571.191" xlink:href="#DejaVuSans-6e"/><use x="634.57" xlink:href="#DejaVuSans-67"/><use x="698.047" xlink:href="#DejaVuSans-73"/></g></g><path d="M961.435 118.412h22" fill="none" stroke="#1f77b4" stroke-dasharray="7.4,3.2" stroke-width="2" id="line2d_60"/><g transform="matrix(.11 0 0 -.11 992.235 122.262)" id="text_26"><use xlink:href="#DejaVuSans-68"/><use x="63.379" xlink:href="#DejaVuSans-79"/><use x="122.559" xlink:href="#DejaVuSans-64"/><use x="186.035" xlink:href="#DejaVuSans-72"/><use x="227.148" xlink:href="#DejaVuSans-61"/><use x="288.428" xlink:href="#DejaVuSans-73"/></g><path d="M961.435 134.558h22" fill="none" opacity=".4" stroke="#ff7f0e" stroke-dasharray="7.4,3.2" stroke-width="2" id="line2d_62"/><g transform="matrix(.11 0 0 -.11 992.235 138.408)" id="text_27"><use xlink:href="#DejaVuSans-6d"/><use x="97.412" xlink:href="#DejaVuSans-69"/><use x="125.195" xlink:href="#DejaVuSans-64"/><use x="188.672" xlink:href="#DejaVuSans-6d"/><use x="286.084" xlink:href="#DejaVuSans-61"/><use x="347.363" xlink:href="#DejaVuSans-73"/><use x="399.463" xlink:href="#DejaVuSans-73"/><use x="451.563" xlink:href="#DejaVuSans-6c"/><use x="479.346" xlink:href="#DejaVuSans-69"/><use x="507.129" xlink:href="#DejaVuSans-6e"/><use x="570.508" xlink:href="#DejaVuSans-67"/></g><path d="M961.435 150.704h22" fill="none" opacity=".4" stroke="#2ca02c" stroke-dasharray="7.4,3.2" stroke-width="2" id="line2d_64"/><g transform="matrix(.11 0 0 -.11 992.235 154.554)" id="text_28"><use xlink:href="#DejaVuSans-75"/><use x="63.379" xlink:href="#DejaVuSans-6c"/><use x="91.162" xlink:href="#DejaVuSans-74"/><use x="130.371" xlink:href="#DejaVuSans-72"/><use x="171.484" xlink:href="#DejaVuSans-61"/><use x="232.764" xlink:href="#DejaVuSans-73"/></g><path d="M961.435 166.85h22" fill="none" opacity=".4" stroke="#d62728" stroke-dasharray="7.4,3.2" stroke-width="2" id="line2d_66"/><g id="text_29"><defs><path d="M10.984 1.516V10.5q3.72-1.766 7.516-2.688 3.813-.921 7.484-.921 9.766 0 14.907 6.562 5.156 6.563 5.89 19.953-2.828-4.203-7.187-6.453-4.344-2.25-9.61-2.25-10.937 0-17.312 6.61-6.375 6.625-6.375 18.109 0 11.219 6.64 18 6.641 6.797 17.672 6.797 12.657 0 19.313-9.703 6.672-9.688 6.672-28.141 0-17.234-8.188-27.516Q40.234-1.42 26.422-1.42q-3.719 0-7.531.734-3.797.734-7.907 2.203zM30.61 32.422q6.641 0 10.516 4.531 3.89 4.547 3.89 12.469 0 7.86-3.89 12.422-3.875 4.562-10.516 4.562-6.64 0-10.515-4.562-3.875-4.563-3.875-12.422 0-7.922 3.875-12.469 3.875-4.531 10.515-4.531z" id="DejaVuSans-39"/></defs><g transform="matrix(.11 0 0 -.11 992.235 170.7)"><use xlink:href="#DejaVuSans-7a"/><use x="52.49" xlink:href="#DejaVuSans-76"/><use x="111.67" xlink:href="#DejaVuSans-65"/><use x="173.193" xlink:href="#DejaVuSans-39"/><use x="236.816" xlink:href="#DejaVuSans-70"/><use x="300.293" xlink:href="#DejaVuSans-6f"/><use x="361.475" xlink:href="#DejaVuSans-6f"/><use x="422.656" xlink:href="#DejaVuSans-6c"/><use x="450.439" xlink:href="#DejaVuSans-73"/><use x="502.539" xlink:href="#DejaVuSans-70"/><use x="566.016" xlink:href="#DejaVuSans-65"/><use x="627.539" xlink:href="#DejaVuSans-65"/><use x="689.063" xlink:href="#DejaVuSans-64"/></g></g><path d="M961.435 182.996h22" fill="none" opacity=".4" stroke="#9467bd" stroke-dasharray="7.4,3.2" stroke-width="2" id="line2d_68"/><g transform="matrix(.11 0 0 -.11 992.235 186.846)" id="text_30"><use xlink:href="#DejaVuSans-7a"/><use x="52.49" xlink:href="#DejaVuSans-76"/><use x="111.67" xlink:href="#DejaVuSans-70"/><use x="175.146" xlink:href="#DejaVuSans-31"/><use x="238.77" xlink:href="#DejaVuSans-30"/><use x="302.393" xlink:href="#DejaVuSans-68"/><use x="365.771" xlink:href="#DejaVuSans-61"/><use x="427.051" xlink:href="#DejaVuSans-74"/><use x="466.26" xlink:href="#DejaVuSans-63"/><use x="521.24" xlink:href="#DejaVuSans-68"/></g><path d="M961.435 199.141h22" fill="none" opacity=".4" stroke="#1f77b4" stroke-dasharray="12.8,3.2,2,3.2" stroke-width="2" id="line2d_70"/><g transform="matrix(.11 0 0 -.11 992.235 202.991)" id="text_31"><use xlink:href="#DejaVuSans-7a"/><use x="52.49" xlink:href="#DejaVuSans-76"/><use x="111.67" xlink:href="#DejaVuSans-74"/><use x="150.879" xlink:href="#DejaVuSans-32"/><use x="214.502" xlink:href="#DejaVuSans-62"/><use x="277.979" xlink:href="#DejaVuSans-61"/><use x="339.258" xlink:href="#DejaVuSans-73"/><use x="391.357" xlink:href="#DejaVuSans-65"/><use x="452.881" xlink:href="#DejaVuSans-67"/><use x="516.357" xlink:href="#DejaVuSans-75"/><use x="579.736" xlink:href="#DejaVuSans-61"/><use x="641.016" xlink:href="#DejaVuSans-72"/><use x="682.113" xlink:href="#DejaVuSans-64"/><use x="745.59" xlink:href="#DejaVuSans-69"/><use x="773.373" xlink:href="#DejaVuSans-61"/><use x="834.652" xlink:href="#DejaVuSans-6e"/></g><path d="M961.435 215.287h22" fill="none" opacity=".4" stroke="#ff7f0e" stroke-dasharray="12.8,3.2,2,3.2" stroke-width="2" id="line2d_72"/><g transform="matrix(.11 0 0 -.11 992.235 219.137)" id="text_32"><use xlink:href="#DejaVuSans-7a"/><use x="52.49" xlink:href="#DejaVuSans-76"/><use x="111.67" xlink:href="#DejaVuSans-74"/><use x="150.879" xlink:href="#DejaVuSans-32"/><use x="214.502" xlink:href="#DejaVuSans-62"/><use x="277.979" xlink:href="#DejaVuSans-61"/><use x="339.258" xlink:href="#DejaVuSans-73"/><use x="391.357" xlink:href="#DejaVuSans-65"/><use x="452.881" xlink:href="#DejaVuSans-75"/><use x="516.26" xlink:href="#DejaVuSans-6c"/><use x="544.043" xlink:href="#DejaVuSans-74"/><use x="583.252" xlink:href="#DejaVuSans-72"/><use x="624.365" xlink:href="#DejaVuSans-61"/></g><path d="M961.435 231.433h22" fill="none" stroke="#2ca02c" stroke-dasharray="12.8,3.2,2,3.2" stroke-width="2" id="line2d_74"/><g transform="matrix(.11 0 0 -.11 992.235 235.283)" id="text_33"><use xlink:href="#DejaVuSans-7a"/><use x="52.49" xlink:href="#DejaVuSans-76"/><use x="111.67" xlink:href="#DejaVuSans-74"/><use x="150.879" xlink:href="#DejaVuSans-33"/><use x="214.502" xlink:href="#DejaVuSans-68"/><use x="277.881" xlink:href="#DejaVuSans-61"/><use x="339.16" xlink:href="#DejaVuSans-74"/><use x="378.369" xlink:href="#DejaVuSans-63"/><use x="433.35" xlink:href="#DejaVuSans-68"/><use x="496.729" xlink:href="#DejaVuSans-6c"/><use x="524.512" xlink:href="#DejaVuSans-75"/><use x="587.891" xlink:href="#DejaVuSans-72"/><use x="629.004" xlink:href="#DejaVuSans-6b"/><use x="686.867" xlink:href="#DejaVuSans-65"/><use x="748.391" xlink:href="#DejaVuSans-72"/></g><path d="M961.435 247.58h22" fill="none" stroke="#d62728" stroke-dasharray="12.8,3.2,2,3.2" stroke-width="2" id="line2d_76"/><g transform="matrix(.11 0 0 -.11 992.235 251.43)" id="text_34"><use xlink:href="#DejaVuSans-7a"/><use x="52.49" xlink:href="#DejaVuSans-76"/><use x="111.67" xlink:href="#DejaVuSans-74"/><use x="150.879" xlink:href="#DejaVuSans-61"/><use x="212.158" xlink:href="#DejaVuSans-6e"/><use x="275.537" xlink:href="#DejaVuSans-74"/><use x="314.746" xlink:href="#DejaVuSans-69"/><use x="342.529" xlink:href="#DejaVuSans-6d"/><use x="439.941" xlink:href="#DejaVuSans-65"/><use x="501.465" xlink:href="#DejaVuSans-63"/><use x="556.445" xlink:href="#DejaVuSans-68"/></g><path d="M961.435 263.725h22" fill="none" opacity=".4" stroke="#9467bd" stroke-dasharray="12.8,3.2,2,3.2" stroke-width="2" id="line2d_78"/><g transform="matrix(.11 0 0 -.11 992.235 267.575)" id="text_35"><use xlink:href="#DejaVuSans-7a"/><use x="52.49" xlink:href="#DejaVuSans-76"/><use x="111.67" xlink:href="#DejaVuSans-74"/><use x="150.879" xlink:href="#DejaVuSans-6d"/><use x="248.291" xlink:href="#DejaVuSans-61"/><use x="309.57" xlink:href="#DejaVuSans-63"/><use x="364.551" xlink:href="#DejaVuSans-72"/><use x="405.633" xlink:href="#DejaVuSans-6f"/></g><path d="M961.435 279.871h22" fill="none" opacity=".4" stroke="#1f77b4" stroke-dasharray="2,3.3" stroke-width="2" id="line2d_80"/><g transform="matrix(.11 0 0 -.11 992.235 283.721)" id="text_36"><use xlink:href="#DejaVuSans-7a"/><use x="52.49" xlink:href="#DejaVuSans-76"/><use x="111.67" xlink:href="#DejaVuSans-74"/><use x="150.879" xlink:href="#DejaVuSans-70"/><use x="214.355" xlink:href="#DejaVuSans-31"/><use x="277.979" xlink:href="#DejaVuSans-68"/><use x="341.357" xlink:href="#DejaVuSans-61"/><use x="402.637" xlink:href="#DejaVuSans-74"/><use x="441.846" xlink:href="#DejaVuSans-63"/><use x="496.826" xlink:href="#DejaVuSans-68"/><use x="560.205" xlink:href="#DejaVuSans-6c"/><use x="587.988" xlink:href="#DejaVuSans-75"/><use x="651.367" xlink:href="#DejaVuSans-72"/><use x="692.48" xlink:href="#DejaVuSans-6b"/><use x="750.344" xlink:href="#DejaVuSans-65"/><use x="811.867" xlink:href="#DejaVuSans-72"/></g></g></g></g><defs><clipPath id="p9ee6f795ed"><path d="M49.807 23.274h892.8v271.8h-892.8z"/></clipPath></defs></svg>