<svg height="450.711" viewBox="0 0 1097.662 338.034" width="1463.549" xmlns="http://www.w3.org/2000/svg" xmlns:xlink="http://www.w3.org/1999/xlink"><defs><style>*{stroke-linecap:butt;stroke-linejoin:round}</style></defs><g id="figure_1"><path d="M0 338.034h1097.662V0H0z" fill="#fff" id="patch_1"/><g id="axes_1"><path d="M49.807 295.074h892.8v-271.8h-892.8z" fill="#fff" id="patch_2"/><g id="matplotlib.axis_1"><g id="xtick_1"><path clip-path="url(#pd19c0a095e)" d="M49.807 295.074v-271.8" fill="none" stroke="#b0b0b0" stroke-dasharray="3.7,1.6" id="line2d_1"/><g id="line2d_2"><defs><path d="M0 0v6" id="mcd0b3c9def" stroke="#000" stroke-width="1.25"/></defs><use x="49.807" xlink:href="#mcd0b3c9def" y="295.074" stroke="#000" stroke-width="1.25"/></g><g id="text_1"><defs><path d="M31.781 66.406q-7.61 0-11.453-7.5Q16.5 51.422 16.5 36.375q0-14.984 3.828-22.484 3.844-7.5 11.453-7.5 7.672 0 11.5 7.5 3.844 7.5 3.844 22.484 0 15.047-3.844 22.531-3.828 7.5-11.5 7.5zm0 7.813q12.266 0 18.735-9.703 6.468-9.688 6.468-28.141 0-18.406-6.468-28.11-6.47-9.687-18.735-9.687-12.25 0-18.718 9.688-6.47 9.703-6.47 28.109 0 18.453 6.47 28.14Q19.53 74.22 31.78 74.22z" id="DejaVuSans-30"/></defs><use xlink:href="#DejaVuSans-30" transform="matrix(.11 0 0 -.11 46.308 312.932)"/></g></g><g id="xtick_2"><path clip-path="url(#pd19c0a095e)" d="M168.847 295.074v-271.8" fill="none" stroke="#b0b0b0" stroke-dasharray="3.7,1.6" id="line2d_3"/><use x="168.847" xlink:href="#mcd0b3c9def" y="295.074" stroke="#000" stroke-width="1.25" id="line2d_4"/><g id="text_2"><defs><path d="M19.188 8.297h34.421V0H7.33v8.297q5.609 5.812 15.296 15.594 9.703 9.797 12.188 12.64 4.734 5.313 6.609 9 1.89 3.688 1.89 7.25 0 5.813-4.078 9.469-4.078 3.672-10.625 3.672-4.64 0-9.797-1.61-5.14-1.609-11-4.89v9.969Q13.767 71.78 18.938 73q5.188 1.219 9.485 1.219 11.328 0 18.062-5.672 6.735-5.656 6.735-15.125 0-4.5-1.688-8.531-1.672-4.016-6.125-9.485-1.218-1.422-7.765-8.187-6.532-6.766-18.453-18.922z" id="DejaVuSans-32"/></defs><use xlink:href="#DejaVuSans-32" transform="matrix(.11 0 0 -.11 165.348 312.932)"/></g></g><g id="xtick_3"><path clip-path="url(#pd19c0a095e)" d="M287.887 295.074v-271.8" fill="none" stroke="#b0b0b0" stroke-dasharray="3.7,1.6" id="line2d_5"/><use x="287.887" xlink:href="#mcd0b3c9def" y="295.074" stroke="#000" stroke-width="1.25" id="line2d_6"/><g id="text_3"><defs><path d="M37.797 64.313L12.89 25.39h24.906zm-2.594 8.593H47.61V25.391h10.407v-8.203H47.609V0h-9.812v17.188H4.89v9.515z" id="DejaVuSans-34"/></defs><use xlink:href="#DejaVuSans-34" transform="matrix(.11 0 0 -.11 284.388 312.932)"/></g></g><g id="xtick_4"><path clip-path="url(#pd19c0a095e)" d="M406.927 295.074v-271.8" fill="none" stroke="#b0b0b0" stroke-dasharray="3.7,1.6" id="line2d_7"/><use x="406.927" xlink:href="#mcd0b3c9def" y="295.074" stroke="#000" stroke-width="1.25" id="line2d_8"/><g id="text_4"><defs><path d="M33.016 40.375q-6.641 0-10.532-4.547-3.875-4.531-3.875-12.437 0-7.86 3.875-12.438 3.891-4.562 10.532-4.562 6.64 0 10.515 4.562 3.875 4.578 3.875 12.438 0 7.906-3.875 12.437-3.875 4.547-10.515 4.547zm19.578 30.922v-8.984q-3.719 1.75-7.5 2.671-3.782.938-7.5.938-9.766 0-14.922-6.594-5.14-6.594-5.875-19.922 2.875 4.25 7.219 6.516 4.359 2.266 9.578 2.266 10.984 0 17.36-6.672 6.374-6.657 6.374-18.125 0-11.235-6.64-18.032-6.641-6.78-17.672-6.78-12.657 0-19.344 9.687-6.688 9.703-6.688 28.109 0 17.281 8.204 27.563 8.203 10.28 22.015 10.28 3.719 0 7.5-.734t7.89-2.187z" id="DejaVuSans-36"/></defs><use xlink:href="#DejaVuSans-36" transform="matrix(.11 0 0 -.11 403.428 312.932)"/></g></g><g id="xtick_5"><path clip-path="url(#pd19c0a095e)" d="M525.967 295.074v-271.8" fill="none" stroke="#b0b0b0" stroke-dasharray="3.7,1.6" id="line2d_9"/><use x="525.967" xlink:href="#mcd0b3c9def" y="295.074" stroke="#000" stroke-width="1.25" id="line2d_10"/><g id="text_5"><defs><path d="M31.781 34.625q-7.031 0-11.062-3.766-4.016-3.765-4.016-10.343 0-6.594 4.016-10.36Q24.75 6.391 31.78 6.391q7.032 0 11.078 3.78 4.063 3.798 4.063 10.345 0 6.578-4.031 10.343-4.016 3.766-11.11 3.766zm-9.86 4.188q-6.343 1.562-9.89 5.906Q8.5 49.079 8.5 55.329q0 8.733 6.219 13.812 6.234 5.078 17.062 5.078 10.89 0 17.094-5.078 6.203-5.079 6.203-13.813 0-6.25-3.547-10.61-3.531-4.343-9.828-5.906 7.125-1.656 11.094-6.5 3.984-4.828 3.984-11.796 0-10.61-6.468-16.282-6.47-5.656-18.532-5.656-12.047 0-18.531 5.656-6.469 5.672-6.469 16.282 0 6.968 4 11.797 4.016 4.843 11.14 6.5zM18.314 54.39q0-5.657 3.53-8.828 3.548-3.172 9.938-3.172 6.36 0 9.938 3.172 3.593 3.171 3.593 8.828 0 5.672-3.593 8.843-3.578 3.172-9.938 3.172-6.39 0-9.937-3.172-3.532-3.172-3.532-8.843z" id="DejaVuSans-38"/></defs><use xlink:href="#DejaVuSans-38" transform="matrix(.11 0 0 -.11 522.468 312.932)"/></g></g><g id="xtick_6"><path clip-path="url(#pd19c0a095e)" d="M645.007 295.074v-271.8" fill="none" stroke="#b0b0b0" stroke-dasharray="3.7,1.6" id="line2d_11"/><use x="645.007" xlink:href="#mcd0b3c9def" y="295.074" stroke="#000" stroke-width="1.25" id="line2d_12"/><g id="text_6"><defs><path d="M12.406 8.297h16.11v55.625l-17.532-3.516v8.985l17.438 3.515h9.86V8.296H54.39V0H12.406z" id="DejaVuSans-31"/></defs><g transform="matrix(.11 0 0 -.11 638.008 312.932)"><use xlink:href="#DejaVuSans-31"/><use x="63.623" xlink:href="#DejaVuSans-30"/></g></g></g><g id="xtick_7"><path clip-path="url(#pd19c0a095e)" d="M764.047 295.074v-271.8" fill="none" stroke="#b0b0b0" stroke-dasharray="3.7,1.6" id="line2d_13"/><use x="764.047" xlink:href="#mcd0b3c9def" y="295.074" stroke="#000" stroke-width="1.25" id="line2d_14"/><g transform="matrix(.11 0 0 -.11 757.048 312.932)" id="text_7"><use xlink:href="#DejaVuSans-31"/><use x="63.623" xlink:href="#DejaVuSans-32"/></g></g><g id="xtick_8"><path clip-path="url(#pd19c0a095e)" d="M883.087 295.074v-271.8" fill="none" stroke="#b0b0b0" stroke-dasharray="3.7,1.6" id="line2d_15"/><use x="883.087" xlink:href="#mcd0b3c9def" y="295.074" stroke="#000" stroke-width="1.25" id="line2d_16"/><g transform="matrix(.11 0 0 -.11 876.088 312.932)" id="text_8"><use xlink:href="#DejaVuSans-31"/><use x="63.623" xlink:href="#DejaVuSans-34"/></g></g><g id="text_9"><defs><path d="M59.516 10.406v19.578h-16.11v8.11h25.875V6.78Q63.578 2.734 56.687.656 49.813-1.422 42-1.422q-17.094 0-26.75 9.985-9.64 10-9.64 27.812 0 17.875 9.64 27.86 9.656 9.984 26.75 9.984 7.125 0 13.547-1.766 6.422-1.75 11.844-5.172v-10.5q-5.47 4.64-11.625 6.985-6.157 2.343-12.938 2.343-13.39 0-20.11-7.468-6.702-7.47-6.702-22.266 0-14.75 6.703-22.219 6.718-7.469 20.11-7.469 5.218 0 9.312.907 4.109.906 7.375 2.812z" id="DejaVuSans-47"/><path d="M34.281 27.484q-10.89 0-15.093-2.484-4.204-2.484-4.204-8.5 0-4.781 3.157-7.594 3.156-2.797 8.562-2.797 7.485 0 12 5.297 4.516 5.297 4.516 14.078v2zm17.922 3.72V0H43.22v8.297Q40.14 3.328 35.547.953q-4.594-2.375-11.234-2.375-8.391 0-13.36 4.719Q6 8.016 6 15.922q0 9.219 6.172 13.906 6.187 4.688 18.437 4.688h12.61v.89q0 6.203-4.078 9.594-4.078 3.39-11.453 3.39-4.688 0-9.141-1.124-4.438-1.125-8.531-3.375v8.312q4.921 1.906 9.562 2.844 4.64.953 9.031.953 11.875 0 17.735-6.156 5.86-6.14 5.86-18.64z" id="DejaVuSans-61"/><path d="M52 44.188q3.375 6.062 8.063 8.937Q64.75 56 71.093 56q8.548 0 13.188-5.984 4.64-5.97 4.64-17V0h-9.03v32.719q0 7.86-2.797 11.656-2.781 3.813-8.485 3.813-6.984 0-11.046-4.641-4.047-4.625-4.047-12.64V0h-9.032v32.719q0 7.906-2.78 11.687-2.782 3.782-8.595 3.782-6.89 0-10.953-4.657-4.047-4.656-4.047-12.625V0H9.08v54.688h9.03v-8.5q3.078 5.03 7.375 7.421Q29.781 56 35.687 56q5.97 0 10.141-3.031Q50 49.953 52 44.187z" id="DejaVuSans-6d"/><path d="M56.203 29.594v-4.39H14.891q.593-9.282 5.593-14.142 5-4.859 13.938-4.859 5.172 0 10.031 1.266 4.86 1.265 9.656 3.812v-8.5Q49.266.734 44.187-.344 39.11-1.422 33.892-1.422q-13.094 0-20.735 7.61-7.64 7.625-7.64 20.625 0 13.421 7.25 21.296Q20.016 56 32.328 56q11.031 0 17.453-7.11 6.422-7.093 6.422-19.296zm-8.984 2.64q-.094 7.36-4.125 11.75-4.032 4.407-10.672 4.407-7.516 0-12.031-4.25-4.516-4.25-5.203-11.97z" id="DejaVuSans-65"/><path d="M-.297 72.906h61.672v-8.312H35.5V0h-9.906v64.594H-.296z" id="DejaVuSans-54"/><path d="M9.422 54.688h8.984V0H9.422zm0 21.296h8.984v-11.39H9.422z" id="DejaVuSans-69"/><path d="M31 75.875q-6.531-11.219-9.719-22.219-3.172-10.984-3.172-22.265 0-11.266 3.203-22.328Q24.517-2 31-13.188h-7.813Q15.875-1.704 12.235 9.375q-3.64 11.078-3.64 22.016 0 10.89 3.61 21.922 3.624 11.046 10.983 22.562z" id="DejaVuSans-28"/><path d="M9.813 72.906h14.703l18.593-49.61 18.703 49.61h14.704V0H66.89v64.016l-18.797-50h-9.907l-18.796 50V0H9.813z" id="DejaVuSans-4d"/><path d="M54.89 33.016V0h-8.984v32.719q0 7.765-3.031 11.61-3.031 3.858-9.078 3.858-7.281 0-11.484-4.64-4.204-4.625-4.204-12.64V0H9.08v54.688h9.03v-8.5q3.235 4.937 7.594 7.374Q30.078 56 35.797 56q9.422 0 14.25-5.828 4.844-5.828 4.844-17.156z" id="DejaVuSans-6e"/><path d="M8.5 21.578v33.11h8.984V21.922q0-7.766 3.016-11.656 3.031-3.875 9.094-3.875 7.265 0 11.484 4.64 4.234 4.64 4.234 12.656v31h8.985V0h-8.984v8.406Q42.047 3.422 37.718 1q-4.313-2.422-10.032-2.422-9.421 0-14.312 5.86Q8.5 10.296 8.5 21.578zM31.11 56z" id="DejaVuSans-75"/><path d="M18.313 70.219V54.688h18.5v-6.985h-18.5V18.016q0-6.688 1.828-8.594 1.828-1.906 7.453-1.906h9.218V0h-9.218q-10.407 0-14.36 3.875-3.953 3.89-3.953 14.14v29.688H2.687v6.984h6.594V70.22z" id="DejaVuSans-74"/><path d="M44.281 53.078v-8.5q-3.797 1.953-7.906 2.922-4.094.984-8.5.984-6.688 0-10.031-2.047-3.344-2.046-3.344-6.156 0-3.125 2.39-4.906 2.391-1.781 9.626-3.39l3.078-.688q9.562-2.047 13.593-5.781 4.032-3.735 4.032-10.422 0-7.625-6.032-12.078-6.03-4.438-16.578-4.438-4.39 0-9.156.86Q10.688.296 5.422 2v9.281q4.984-2.594 9.812-3.89 4.829-1.282 9.579-1.282 6.343 0 9.75 2.172 3.421 2.172 3.421 6.125 0 3.656-2.468 5.61-2.453 1.953-10.813 3.765l-3.125.735q-8.344 1.75-12.062 5.39-3.704 3.64-3.704 9.985 0 7.718 5.47 11.906Q16.75 56 26.811 56q4.97 0 9.36-.734 4.406-.72 8.11-2.188z" id="DejaVuSans-73"/><path d="M8.016 75.875h7.812q7.313-11.516 10.953-22.563 3.64-11.03 3.64-21.921 0-10.938-3.64-22.016-3.64-11.078-10.953-22.563H8.016Q14.5-2 17.703 9.063q3.203 11.063 3.203 22.329 0 11.28-3.203 22.265-3.203 11-9.687 22.219z" id="DejaVuSans-29"/></defs><g transform="matrix(.12 0 0 -.12 431.366 328.338)"><use xlink:href="#DejaVuSans-47"/><use x="77.49" xlink:href="#DejaVuSans-61"/><use x="138.77" xlink:href="#DejaVuSans-6d"/><use x="236.182" xlink:href="#DejaVuSans-65"/><use x="297.705" xlink:href="#DejaVuSans-20"/><use x="329.492" xlink:href="#DejaVuSans-54"/><use x="390.529" xlink:href="#DejaVuSans-69"/><use x="418.313" xlink:href="#DejaVuSans-6d"/><use x="515.725" xlink:href="#DejaVuSans-65"/><use x="577.248" xlink:href="#DejaVuSans-20"/><use x="609.035" xlink:href="#DejaVuSans-28"/><use x="648.049" xlink:href="#DejaVuSans-4d"/><use x="734.328" xlink:href="#DejaVuSans-69"/><use x="762.111" xlink:href="#DejaVuSans-6e"/><use x="825.49" xlink:href="#DejaVuSans-75"/><use x="888.869" xlink:href="#DejaVuSans-74"/><use x="928.078" xlink:href="#DejaVuSans-65"/><use x="989.602" xlink:href="#DejaVuSans-73"/><use x="1041.701" xlink:href="#DejaVuSans-29"/></g></g></g><g id="matplotlib.axis_2"><g id="ytick_1"><path clip-path="url(#pd19c0a095e)" d="M49.807 295.074h892.8" fill="none" stroke="#b0b0b0" stroke-dasharray="3.7,1.6" id="line2d_17"/><g id="line2d_18"><defs><path d="M0 0h-6" id="md00251e1d8" stroke="#000" stroke-width="1.25"/></defs><use x="49.807" xlink:href="#md00251e1d8" y="295.074" stroke="#000" stroke-width="1.25"/></g><g id="text_10"><defs><path d="M10.688 12.406H21V0H10.687z" id="DejaVuSans-2e"/></defs><g transform="matrix(.11 0 0 -.11 22.814 299.253)"><use xlink:href="#DejaVuSans-30"/><use x="63.623" xlink:href="#DejaVuSans-2e"/><use x="95.41" xlink:href="#DejaVuSans-30"/></g></g></g><g id="ytick_2"><path clip-path="url(#pd19c0a095e)" d="M49.807 240.714h892.8" fill="none" stroke="#b0b0b0" stroke-dasharray="3.7,1.6" id="line2d_19"/><use x="49.807" xlink:href="#md00251e1d8" y="240.714" stroke="#000" stroke-width="1.25" id="line2d_20"/><g transform="matrix(.11 0 0 -.11 22.814 244.893)" id="text_11"><use xlink:href="#DejaVuSans-30"/><use x="63.623" xlink:href="#DejaVuSans-2e"/><use x="95.41" xlink:href="#DejaVuSans-32"/></g></g><g id="ytick_3"><path clip-path="url(#pd19c0a095e)" d="M49.807 186.354h892.8" fill="none" stroke="#b0b0b0" stroke-dasharray="3.7,1.6" id="line2d_21"/><use x="49.807" xlink:href="#md00251e1d8" y="186.354" stroke="#000" stroke-width="1.25" id="line2d_22"/><g transform="matrix(.11 0 0 -.11 22.814 190.533)" id="text_12"><use xlink:href="#DejaVuSans-30"/><use x="63.623" xlink:href="#DejaVuSans-2e"/><use x="95.41" xlink:href="#DejaVuSans-34"/></g></g><g id="ytick_4"><path clip-path="url(#pd19c0a095e)" d="M49.807 131.994h892.8" fill="none" stroke="#b0b0b0" stroke-dasharray="3.7,1.6" id="line2d_23"/><use x="49.807" xlink:href="#md00251e1d8" y="131.994" stroke="#000" stroke-width="1.25" id="line2d_24"/><g transform="matrix(.11 0 0 -.11 22.814 136.173)" id="text_13"><use xlink:href="#DejaVuSans-30"/><use x="63.623" xlink:href="#DejaVuSans-2e"/><use x="95.41" xlink:href="#DejaVuSans-36"/></g></g><g id="ytick_5"><path clip-path="url(#pd19c0a095e)" d="M49.807 77.634h892.8" fill="none" stroke="#b0b0b0" stroke-dasharray="3.7,1.6" id="line2d_25"/><use x="49.807" xlink:href="#md00251e1d8" y="77.634" stroke="#000" stroke-width="1.25" id="line2d_26"/><g transform="matrix(.11 0 0 -.11 22.814 81.813)" id="text_14"><use xlink:href="#DejaVuSans-30"/><use x="63.623" xlink:href="#DejaVuSans-2e"/><use x="95.41" xlink:href="#DejaVuSans-38"/></g></g><g id="ytick_6"><path clip-path="url(#pd19c0a095e)" d="M49.807 23.274h892.8" fill="none" stroke="#b0b0b0" stroke-dasharray="3.7,1.6" id="line2d_27"/><use x="49.807" xlink:href="#md00251e1d8" y="23.274" stroke="#000" stroke-width="1.25" id="line2d_28"/><g transform="matrix(.11 0 0 -.11 22.814 27.453)" id="text_15"><use xlink:href="#DejaVuSans-31"/><use x="63.623" xlink:href="#DejaVuSans-2e"/><use x="95.41" xlink:href="#DejaVuSans-30"/></g></g><g id="text_16"><defs><path d="M28.61 0L.78 72.906h10.297l23.11-61.375 23.14 61.375h10.25L39.797 0z" id="DejaVuSans-56"/><path d="M9.422 75.984h8.984V0H9.422z" id="DejaVuSans-6c"/><path d="M9.813 72.906h9.859v-29.89h35.844v29.89h9.859V0h-9.86v34.719H19.673V0h-9.86z" id="DejaVuSans-48"/><path d="M45.406 46.39v29.594h8.985V0h-8.985v8.203Q42.578 3.328 38.25.953q-4.313-2.375-10.375-2.375-9.906 0-16.14 7.906-6.22 7.922-6.22 20.813 0 12.89 6.22 20.797Q17.968 56 27.874 56q6.063 0 10.375-2.375 4.328-2.36 7.156-7.234zm-30.61-19.093q0-9.906 4.079-15.547 4.078-5.64 11.203-5.64 7.125 0 11.219 5.64 4.11 5.64 4.11 15.547 0 9.906-4.11 15.547-4.094 5.64-11.219 5.64-7.125 0-11.203-5.64-4.078-5.64-4.078-15.547z" id="DejaVuSans-64"/><path d="M39.406 66.219q-10.75 0-17.078-8.016-6.312-8-6.312-21.828 0-13.766 6.312-21.781 6.328-8 17.078-8 10.735 0 17.016 8 6.281 8.015 6.281 21.781 0 13.828-6.281 21.828-6.281 8.016-17.016 8.016zm0 8q15.328 0 24.5-10.281 9.188-10.282 9.188-27.563 0-17.234-9.188-27.516-9.172-10.28-24.5-10.28-15.375 0-24.593 10.25-9.204 10.265-9.204 27.546t9.204 27.563q9.218 10.28 24.593 10.28z" id="DejaVuSans-4f"/><path d="M18.11 8.203v-29H9.077v75.484h9.031v-8.296q2.844 4.875 7.157 7.234Q29.594 56 35.594 56q9.968 0 16.187-7.906 6.235-7.907 6.235-20.797T51.78 6.484q-6.218-7.906-16.187-7.906-6 0-10.328 2.375-4.313 2.375-7.157 7.25zm30.578 19.094q0 9.906-4.079 15.547-4.078 5.64-11.203 5.64-7.14 0-11.218-5.64-4.079-5.64-4.079-15.547 0-9.906 4.078-15.547 4.079-5.64 11.22-5.64 7.124 0 11.202 5.64t4.078 15.547z" id="DejaVuSans-70"/></defs><g transform="matrix(0 -.12 -.12 0 16.318 216.455)"><use xlink:href="#DejaVuSans-56"/><use x="68.299" xlink:href="#DejaVuSans-61"/><use x="129.578" xlink:href="#DejaVuSans-6c"/><use x="157.361" xlink:href="#DejaVuSans-75"/><use x="220.74" xlink:href="#DejaVuSans-65"/><use x="282.264" xlink:href="#DejaVuSans-20"/><use x="314.051" xlink:href="#DejaVuSans-48"/><use x="389.246" xlink:href="#DejaVuSans-65"/><use x="450.77" xlink:href="#DejaVuSans-61"/><use x="512.049" xlink:href="#DejaVuSans-64"/><use x="575.525" xlink:href="#DejaVuSans-20"/><use x="607.313" xlink:href="#DejaVuSans-4f"/><use x="686.023" xlink:href="#DejaVuSans-75"/><use x="749.402" xlink:href="#DejaVuSans-74"/><use x="788.611" xlink:href="#DejaVuSans-70"/><use x="852.088" xlink:href="#DejaVuSans-75"/><use x="915.467" xlink:href="#DejaVuSans-74"/></g></g></g><path clip-path="url(#pd19c0a095e)" d="M49.807 137.09l5.952-1.335 5.952 2.132 5.952 10.345 5.952 4.78 5.952 2.975 5.952-.12 5.952 1.166 5.952-.885 5.952-.6 5.952.994 5.952 2.46 5.952.518 5.952-1.325 5.952-10.914 5.952-5.66 5.952.874 5.952.496 5.952-1.723 5.952-14.549 5.952 4.544 5.952-13.576 5.952-11.318 5.952-6.807 5.952-2.948 5.952 1.42 5.952-2.815 5.952-6.832 5.952-3.804 5.952-2.386 5.952-7.412 5.952-10.51 5.952-5.713 11.904-.481 11.904-1.938 5.952 5.048 5.952 1.61 5.952-7.402 5.952-2.264 5.952-5.137 5.952-.98 5.952-1.498 5.952-4.58 5.952 4.603 5.952 11.173 5.952 2.39 5.952-4.065 5.952-5.57 5.952-2.956 5.952-.715 5.952.811 5.952.173 5.952.904 5.952-.577 5.952-1.72 5.952 1.12 5.952-2.171 5.952-.88 5.952-2.482 5.952-1.714 5.952-.307 5.952-2.021 5.952-.296 5.952-2.57 5.952-.662 5.952.386 5.952 3.066 5.952-1.575 5.952-1.119 5.952-1.959 5.952 1.104 5.952-2.3 5.952-1.048 5.952-.032 11.904 1.132 5.952.005 5.952 3.9 5.952.402 5.952 6.727 5.952-2.087 5.952 2.34 5.952 9.718 5.952 17.49 5.952 9.553 5.952-1.706 5.952-10.49 5.952-7.257 5.952-9.3 5.952-15.236 5.952-1.952 5.952 1.004 5.952-3.701 5.952 4.933 5.952.642 5.952-3.105 5.952 4.012 5.952-1.656 5.952 1.132 5.952-1.405 5.952-3.532 5.952 3.392 5.952-2.71 5.952-.258 5.952-.555 5.952-4.54 5.952 1.008 5.952-2.59 5.952-.237 5.952.688 5.952-.772 5.952-.326 5.952-.158 5.952.1 5.952 1.448 5.952.362 5.952-.222 5.952-1.407 17.856-.105 5.952.128 5.952.269 11.904-.174 11.904-.692 5.952 1.057 5.952-.114 5.952-.558 5.952-.394 5.952-.607 23.808-.187 29.76-.06 113.088-.006h0" fill="none" opacity=".4" stroke="#1f77b4" stroke-linecap="square" stroke-width="2" id="line2d_29"/><path clip-path="url(#pd19c0a095e)" d="M49.807 156.603l5.952-6.53 5.952-2.587 5.952.383 5.952-1.964 5.952-2.46 5.952.322 5.952-1.864h5.952l5.952 1.31 5.952-.681 5.952.534 5.952.379 5.952 1.56 5.952 3.71 5.952 2.67 5.952 5.079 5.952 8.282 5.952 2.57 5.952 10.6 5.952 9.875 5.952-15.377 5.952-15.988 5.952-8.932 5.952-6.695 5.952.317 5.952 2.81 5.952-6.146 5.952-3.651 5.952 3.029 5.952-3.754 5.952-9.7 5.952-2.39 5.952 6.572 11.904 16.093 5.952 9.594 5.952 16.487 5.952 5.379 5.952-9.052 5.952-.878 5.952-11.72 5.952-1.777 5.952-2.601 5.952 8.43 5.952 19.422 5.952 24.382 5.952 2.074 5.952-7.007 5.952 15.267 5.952 1.902 5.952-5.132 5.952-1.392 5.952-5.515 5.952-10.12 5.952-1.237 5.952-9.106 5.952 2.944 5.952-9.916 5.952-7.073 5.952-.943 5.952-3.586 5.952 8.974 5.952-7.526 5.952 6.55 5.952-6.811 5.952-4.762 5.952.72 5.952 23.015 5.952-5.905 5.952-2.94 5.952-12.15 5.952 14.589 5.952-9.063 5.952 10.768 11.904 19.054 5.952 12.965 5.952 8.668 5.952 11.436 5.952-13.786 5.952 12.933 5.952-16.992 5.952-5.127 5.952 16.11 5.952 20.107 5.952 2.182 5.952-9.449 5.952-22.022 5.952-30.065 5.952-19.862 5.952-36.176 5.952-3.572 5.952 7.92 5.952-12.246 5.952 34.145 5.952.444 5.952-13.893 5.952 29.945 5.952 1.033 5.952 7.409 5.952-6.068 5.952-26.039 5.952 13.302 5.952-20.072 5.952-6.617 5.952-.857 5.952-44.369 5.952 12.628 5.952-20.934 5.952-1.533 5.952 16.41 5.952-21.61 5.952-7.78 5.952-10.175 5.952 1.093 5.952 26.685 5.952-5.28 5.952-7.408 5.952-22.087 5.952 2.119 5.952-.309 5.952-1.317 5.952 2.374 5.952-1.386 5.952.103 5.952-.182 5.952-.884 5.952-6.766 5.952 7.757 5.952-1.829 5.952-5.31 5.952-3.686 5.952-10.39 5.952 2.758 5.952-.57 5.952-2.716 5.952-2.19 5.952-1.318 5.952.57 5.952-.982 11.904-1.054 83.328-.229 29.76-.003h0" fill="none" opacity=".4" stroke="#ff7f0e" stroke-linecap="square" stroke-width="2" id="line2d_30"/><path clip-path="url(#pd19c0a095e)" d="M49.807 165.95l5.952-4.44 5.952 3.812 5.952-2.392 5.952-9.677 5.952.766 5.952-1.926 5.952.105 11.904-3.788 5.952 1.961 5.952 1.663 5.952.423 5.952-.1 5.952-4.15 5.952-1.64 5.952 4.298 5.952 2.986 5.952-.83 5.952-7.043 5.952 5.383 5.952-14.513 5.952-13.038 5.952-7.212 5.952-1.353 5.952 2.208 5.952-.66 5.952-4.042 5.952-2.086 5.952 2.116 5.952-6.002 5.952-10.395 5.952-6.059 5.952 5.485 5.952-4.238 5.952-5.808 5.952 1.464 5.952 10.621 5.952 2.183 5.952-10.426 5.952-4.695 5.952-6.847 5.952-.318 5.952-2.757 5.952-1.055 5.952 8.988 5.952 15.182 5.952-1.296 5.952-10.317 5.952-7.125 5.952-3.365 5.952-2.527 5.952-3.735 5.952-5.304 5.952-5.979 5.952-3.928 5.952-2.57 5.952-.702 5.952-2.657 5.952-1.417 5.952-2.542 5.952-1.126 5.952.013 5.952-1.58 5.952-.052 5.952-2.857 5.952-.33 5.952 1.118 5.952 2.608 5.952-1.524 5.952-1.14 5.952-2.638 5.952 2.096 5.952-2.676 11.904 1.196 5.952 1.34 5.952 2.148 5.952 1.586 5.952 6.586 5.952-1.587 5.952 12.832 5.952-5.638 5.952 2.554 5.952 15.833 5.952 28.866 5.952 14.677 5.952.24 5.952-15.048 5.952-11.73 5.952-14.816 5.952-27.975 5.952-4.09 5.952.753 5.952-6.16 5.952 10.196 5.952 2.869 5.952-5.427 5.952 10.464 5.952-2.008 5.952 2.38 5.952-3.149 5.952-8.216 5.952 7.132 5.952-6.841 5.952-.13 5.952-1.73 5.952-11.494 5.952 2.172 5.952-5.288 5.952-.74 5.952 2.05 5.952-2.219 5.952-.888 5.952-.177 5.952.213 5.952 4.07 5.952.925 5.952-.832 5.952-3.82 5.952.222 5.952-.135 11.904.606 5.952.876 5.952-.557 5.952-.213 5.952-.617 5.952-1.135 5.952 4.664 5.952-.214 5.952-2.305 5.952-1.413 5.952-2.901 11.904-.197 5.952-.427 5.952-.295 5.952-.157 5.952.077 17.856-.209 113.088-.027h0" fill="none" opacity=".4" stroke="#2ca02c" stroke-linecap="square" stroke-width="2" id="line2d_31"/><path clip-path="url(#pd19c0a095e)" d="M49.807 178.893l5.952-14.084 5.952-7.751 5.952.252 5.952 2.312 5.952-1.49 5.952 1.836 5.952-1.697 5.952.187 5.952.702 5.952-1.856 5.952-.053 5.952-.304 5.952.754 5.952-1.596 5.952-2.448 5.952.793 5.952 3.306 5.952-3.704 5.952-8.791 5.952 6.424 5.952-18.391 5.952-15.965 5.952-7.658 5.952-4.495 5.952 1.291 5.952 2.03 5.952-5.772 5.952-3.104 5.952 3.382 5.952-3.147 5.952-11.022 5.952-5.411 5.952-1.113 5.952-5.213 5.952 2.245 5.952 2.542 5.952 7.327 5.952.49 5.952-10.385 5.952 5.323 5.952-3.475 5.952 2.573 5.952 2.08 5.952-3.74 5.952 12.63L323.6 116.6l5.952-.757 5.952-12.543 5.952-3.478 5.952-4.906 5.952-.218 5.952 1.049 11.904-4.264 5.952-.858 5.952-3.847 5.952 4.959 5.952-3.047 5.952 2.368 5.952-1.243 5.952-1.546 5.952 5.455 5.952-5.104 5.952 5.783 5.952-6.106 5.952-1.57 5.952 3.322 5.952 13.542 5.952-4.995 5.952-.913 5.952-6.99 5.952 10.512 5.952-9.334 5.952 1.823 5.952 1.952 5.952 6.928 5.952 11.864 5.952 6.458 5.952 19.168 5.952-15.353 5.952 25.33 5.952-12.684 5.952 6.875 5.952 26.397 5.952 38.816 5.952 12.462 5.952-.692 5.952-11.735 5.952-9.333 5.952-14.095 5.952-46.195 5.952 4.045 5.952 20.187 5.952-6.098 5.952 34.999 5.952-.239 5.952-13.405 5.952 27.423 5.952-7.71 5.952 5.424 5.952-6.892 5.952-17.661 5.952 14.424 5.952-21.228 5.952.984 5.952 4.69 5.952-45.329 5.952 23.023 5.952-19.65 5.952 2.695 5.952 26.135 5.952-28.315 5.952-7.56 5.952-10.064 5.952 6.75 5.952 48.601 5.952-6.283 5.952-12.702 5.952-36.387 5.952 12.971 5.952.206 5.952-4.527 5.952 1.137 5.952-10.919 5.952-7.336 5.952-5.16 5.952-7.25 5.952-17.237 5.952 10.895 5.952-3.877 5.952-8.236 5.952-7.756 5.952-29.745 5.952 8.214 5.952-2.08 5.952-8.53 5.952-6.279 5.952-4.291 5.952 2.705 5.952-3.224 11.904-4.563 5.952.02 5.952-.73 5.952-.445 11.904-.253 5.952.064 17.856-.154 11.904.025 11.904-.078 35.712-.008h0" fill="none" opacity=".4" stroke="#d62728" stroke-linecap="square" stroke-width="2" id="line2d_32"/><path clip-path="url(#pd19c0a095e)" d="M49.807 179.068l5.952-4.412 5.952-6.86 5.952-11.046 5.952-11.581 5.952.745 5.952.472 5.952 2.167 5.952 1.002 11.904 7.538 5.952 2.916 11.904 3.972 5.952.112 5.952-.273 5.952 2.456 5.952 2.937 5.952-1.83 5.952-2.252 5.952 2.186 5.952-16.045 5.952-14.858 5.952-7.308 5.952-.049 5.952 3.113 5.952 1.23 5.952-1.356 5.952-.02 5.952 8.613 5.952-1.379 5.952-8.465 5.952-5.003 5.952 5.359 5.952-8.853 5.952-3.901 5.952 4.008 5.952 10.007 5.952.118 5.952-10.692 5.952 2.649 5.952-3.154 5.952 1.741 5.952-1.48 5.952-.829 5.952 14.3 5.952 20.375 5.952.202 5.952-13.776 5.952-16.393 5.952-5.924 5.952-3.324 5.952-4.745 5.952-7.637 5.952-14.175 5.952-6.176 5.952-2.701 5.952-.95 5.952-2.02 5.952-1.103 5.952-5.685 5.952-2.82 5.952-1.205 5.952-3.574 5.952-2.194 5.952-5.448 5.952-1.038 5.952 1.03 5.952 2.62 5.952-.354 5.952-1.275 5.952-2.724 5.952 3.545 5.952-2.921 5.952 4.367 5.952-1.49 5.952 3.327 5.952 4.408 5.952 3.974 5.952 13.122 5.952-3.421 5.952 20.001 5.952-7.562 5.952 5.953 5.952 30.746 5.952 44.32 5.952 20.564 5.952-.184 5.952-12.023 5.952-5.49 5.952-18.576 5.952-51.729 5.952-7.817 5.952 3.937 5.952-23.962 5.952 21.156 5.952 1.878 5.952-16.844 5.952 18.986 5.952-6.617 5.952 4.404 5.952-7.57 5.952-18.968 5.952 13.47 5.952-14.118 5.952.342 5.952-1.433 5.952-25.42 5.952.371 5.952-11.335 5.952-2.32 5.952 2.917 5.952-4.556 5.952-2.18 5.952-.43 5.952.16 5.952 5.31 5.952 1.438 5.952-.87 5.952-6.364 5.952.253 5.952-.663 5.952.027 5.952.25 5.952.45 5.952-.934 5.952-.268 5.952-.53 5.952-1.052 5.952 3.453 5.952-.316 5.952-1.776 5.952-.953 5.952-2.169 11.904-.142 5.952-.371 11.904-.373 5.952.09 17.856-.218 113.088-.03h0" fill="none" stroke="#9467bd" stroke-linecap="square" stroke-width="2" id="line2d_33"/><path clip-path="url(#pd19c0a095e)" d="M49.807 268.977l5.952 14.867 5.952 2.243 5.952-.084 5.952-2.696 5.952-2.944 5.952-1.487 5.952-2.8 5.952-2.214 5.952-4.668 5.952-3.171 5.952-2.837 5.952-3.87 5.952-4.387 5.952-14.348 5.952-8.171 5.952-6.85 5.952-1.003 5.952-6.845 5.952-.718 5.952 6.074 11.904-24.416 5.952-5.281 5.952 3.41 5.952 6.259 5.952 9.921 5.952-1.195 5.952 1.22 5.952 14.491 5.952-1.946 5.952-14.635 5.952-11.584 5.952-1.107 5.952 1.416 5.952 4.165 5.952-3.887 5.952 10.245 5.952 4.019 5.952-16.06 5.952-3.46 5.952-23.484 5.952-9.63 5.952-6.758 5.952-13.16 5.952 18.453 5.952 31.162 5.952-.133 5.952-21.319 5.952-15.65 5.952-13.65 5.952-14.462 5.952-6.533 5.952-11.472 5.952-17.065 5.952-4.141 5.952-6.615 5.952.376 5.952-6.515 5.952-5.078 5.952-4.894 5.952-4.51 5.952 1.693 5.952-5.166 5.952.026 5.952-6.455 5.952-2.875 5.952.47 5.952 8.71 5.952-2.368 5.952-1.206 5.952-4.136 5.952 6.735 5.952-3.553 5.952 7.42 5.952 4.302 5.952 7.06 11.904 22.446 5.952 23.585 5.952-6.915 5.952 26.504 5.952-8.693 5.952 9.187 5.952 45.623 5.952 43.635 5.952 13.84 5.952 1.818 5.952-8.559 5.952-20.47 5.952-25.172 5.952-60.15 5.952-13.703 5.952 9.163 5.952-15.749 5.952 36.476 5.952 5.79 5.952-20.291 5.952 29.257 5.952-17.345 5.952 1.647 5.952-12.314 5.952-30.054 5.952 21.237 5.952-25.101 5.952-7.134 5.952-1.825 5.952-36.152 5.952 5.612 5.952-17.518 5.952-2.58 5.952 4.395 5.952-6.753 5.952-2.822 5.952-1.115 5.952.175 5.952 7.483 5.952-.304 5.952-2.775 5.952-5.803 5.952.6 11.904-.442 5.952.463 5.952.007 11.904-.923 5.952-.522 5.952-1.39 5.952 4.829 5.952-.296 5.952-1.892 5.952-1.372 5.952-3.284 5.952.165 5.952-.282 5.952-.583 5.952-.32 5.952-.164 11.904-.036 17.856-.074 107.136-.008h0" fill="none" opacity=".4" stroke="#1f77b4" stroke-dasharray="7.4,3.2" stroke-width="2" id="line2d_34"/><path clip-path="url(#pd19c0a095e)" d="M49.807 102.734l5.952-.089 5.952-3.104 5.952-2.893 5.952-2.368 5.952-.584 5.952.104 5.952-.67 5.952.445 5.952 2.743L109.327 95l5.952.29 5.952-.105 5.952.363 5.952-1.929 5.952-1.577 5.952 3.687 5.952.777 5.952-1.084 5.952-6.238 5.952 1.419 5.952-15.785 5.952-10.888 5.952-5.366 5.952-3.478 11.904.397 5.952-2.94 5.952-1.438 5.952 1.233 5.952-1.129 5.952-4.318 5.952-1.699 5.952-1.934 5.952-3.308 5.952.633 5.952.454 5.952 2.187 5.952-.206 5.952-3.951 5.952.344 5.952-1.651 5.952.078 5.952-.416 5.952-.246 5.952 2.354 5.952 5.597 5.952-.706 5.952-3.778 5.952-2.265 5.952-1.496 5.952-1.242 5.952-.968 5.952-1.77 5.952-.414 5.952.494 5.952-.399 5.952 1.196 5.952-.862 5.952-.173 5.952-.791 5.952-.673 5.952.217 5.952-.928 5.952.382 5.952-1.186 5.952-.403 5.952.235 5.952 2.352 5.952.002 5.952-.388 5.952-1.625 5.952 1.705 5.952-1.608 11.904.445 5.952.86 5.952 1.575 5.952 1.036 5.952 5.625 5.952-1.507 5.952 8.291 5.952-4.431 5.952 1.66 5.952 13.747 5.952 23.757 5.952 14.202 5.952-.031 5.952-14.867 5.952-10.346 5.952-12.77 5.952-20.18 5.952-2.755 5.952.788 5.952-3.198 5.952 6.85 5.952 1.112 5.952-4.027 5.952 6.11 5.952-1.839 5.952 2.513L650.96 41l5.952-6.141 5.952 4.949 5.952-4.034 5.952-.064 5.952-1.41 5.952-6.852 5.952 1.224 5.952-3.293 5.952-.327 5.952.721 5.952-.788 5.952-.144 5.952-.394 5.952-.02 5.952 1.336 5.952.39 5.952-.13 5.952-1.125 17.856-.175 17.856.297 11.904-.256 5.952-.46 5.952 1.254 5.952-.011 5.952-.736 5.952-.454 5.952-.81 71.424-.269 95.232-.004h0" fill="none" opacity=".4" stroke="#ff7f0e" stroke-dasharray="7.4,3.2" stroke-width="2" id="line2d_35"/><path clip-path="url(#pd19c0a095e)" d="M49.807 266.213l5.952 14.047 5.952 3.562 5.952.397 5.952-2.985 5.952-2.655 5.952-1.629 5.952-2.707 5.952-2.537 5.952-5.296 11.904-4.937 5.952-3.506 5.952-4.041 5.952-13.716 5.952-7.298 5.952-5.31 5.952.066 5.952-5.145 5.952-.04 5.952 10.283 5.952-5.646 5.952-7.196 5.952-2.889 5.952 4.059 5.952 4.783 5.952 5.505 5.952-1.316 5.952.252 5.952 10.712 5.952-2.341 5.952-13.337 5.952-12.423 5.952-1.18 5.952-7.753 5.952-1.977 5.952-4.428 5.952 8.961 5.952 1.152 5.952-21.219 5.952-4.467 5.952-23.7 5.952-10.262 5.952-7.65 5.952-18.25 5.952 16.59 5.952 31.502 5.952.971 11.904-43.056 5.952-12.312 5.952-8.102 5.952-3.736 5.952-7.718 5.952-11.577 5.952-2.495 5.952-4.211 5.952 1.882 5.952-4.74 5.952-3.551 5.952-5.646 5.952-4.46 5.952 1.367 5.952-5.573 5.952-.518 5.952-6.836 5.952-2.936 5.952.254 5.952 8.568 5.952-3.133 5.952-2.113 5.952-4.642 5.952 4.492 5.952-4.993 5.952.752 5.952-.207 5.952 1.882 5.952 3.966 5.952 2.747 5.952 9.668 5.952-2.393 5.952 17.477 5.952-5.768 5.952 8.475 5.952 40.748 5.952 53.991 5.952 22.556 5.952 6.067 5.952-7.041 5.952-16.139 5.952-28.098 5.952-62.91 5.952-10.156 5.952 7.696 5.952-13.575 5.952 30.384 5.952 4.347 5.952-19.973 5.952 22.84 5.952-19.433 5.952 3.846 5.952-8.968 5.952-18.751 5.952 16.588 5.952-20.086 5.952-2.41 5.952-1.323 5.952-23.816 5.952 3.248 5.952-10.41 5.952-1.253 5.952 2.97 5.952-3.717 5.952-1.226 5.952-.643 5.952-.012 5.952 4.703 5.952.087 5.952-1.702 5.952-3.557 5.952.502 11.904-.318 11.904.719 5.952-.378 5.952-.196 5.952-.325 5.952-1.092 5.952 3.474 5.952-.533 5.952-1.545 5.952-1.08 5.952-2.18 5.952-.005 23.808-.62 17.856-.039 59.52-.014 59.52-.001h0" fill="none" opacity=".4" stroke="#2ca02c" stroke-dasharray="7.4,3.2" stroke-width="2" id="line2d_36"/><path clip-path="url(#pd19c0a095e)" d="M49.807 120.262l5.952-11.554 5.952 3.272 5.952 5.975 5.952-.61 5.952 1.209 5.952-1.21 5.952.518 5.952-1.354 5.952-1.617 5.952 1.911 5.952 2.431 5.952 1.043 5.952-.253 5.952-6.562 5.952-3.068 5.952 1.435 5.952 1.568 5.952-.138 5.952-9.726 5.952 7.63 5.952-8.969 5.952-6.763 5.952-3.29 5.952.76 5.952 2.063 5.952-2.916 5.952-6.075 5.952-2.96 5.952-1.493 5.952-5.728 5.952-8.162 5.952-4 5.952 1.182 11.904-1.608 5.952-.137 5.952 5.09 5.952.377 5.952-8.88 5.952-4.162 5.952-5.371 5.952-1.092 5.952-2.233 5.952-3.816 5.952 4.385 5.952 10.66 5.952 2.22 5.952-3.082 5.952-3.637 5.952-2.862 5.952-.285 5.952.561 5.952-.317 5.952.085 5.952-.18 5.952-1.727 5.952 1.648 5.952-2.207 5.952-.502 5.952-2.61 5.952-1.871 5.952-.251 5.952-2.533 5.952-.007 5.952-2.867 5.952-.578 5.952.498 5.952 4.49 5.952-.827 5.952-1.23 5.952-2.5 5.952 2.328 5.952-3.271 5.952-1.117 5.952-.086 5.952.857 5.952.53 5.952-.598 5.952 5.034 5.952-.983 5.952 8.104 5.952-3.211 5.952 2.301 5.952 9.802 5.952 19.283 5.952 9.806 5.952-4.907 5.952-9.998 5.952-7.87 5.952-11.495 5.952-16.412 5.952-2.24 5.952.928 5.952-3.938 5.952 4.854 5.952.312 5.952-3.81 5.952 3.058 5.952-1.878 5.952.991 5.952-.986 5.952-2.97 5.952 3.518 5.952-2.4 5.952-.007 5.952-.759 5.952-4.09 5.952.828 5.952-2.176 5.952-.158 5.952.619 5.952-.598 11.904-.257 5.952.038 5.952 1.317 5.952.438 5.952-.084 5.952-1.237L770 24.805l5.952.072 5.952.241 5.952.528 11.904-.091 5.952-.314 5.952-.55 5.952 1.977 5.952-.38 5.952-1.034 5.952-.62 5.952-.98 11.904-.032 17.856-.272 11.904-.005 29.76-.057 95.232-.014h0" fill="none" opacity=".4" stroke="#d62728" stroke-dasharray="7.4,3.2" stroke-width="2" id="line2d_37"/><path clip-path="url(#pd19c0a095e)" d="M49.807 92.117l5.952-10.6 5.952 5.705 5.952 1.751 5.952-7.121 5.952.79 5.952-1.916 5.952.443 5.952-.61 5.952 1.744 5.952 2.064 11.904 5.713 5.952 3.26 5.952 4.29 5.952 2.293 5.952 8.881 5.952 5.745 5.952 3.866 5.952.704 5.952 10.052 5.952-15.413 5.952-13.755 5.952-7.431 5.952-2.933 5.952 1.127 5.952-1.49 5.952-6.006 5.952-4.568 5.952-3.038 5.952-5.88 5.952-8.753L240.271 57l5.952.548 5.952-3.95 5.952-1.29 5.952 2.343 5.952 6.69 5.952.655 5.952-8.347 5.952-.753 5.952-2.98 5.952.286 5.952-1.233 5.952-.752 5.952 6.526L323.6 65.92l5.952-.945 5.952-6.704 5.952-2.662 5.952-.527 5.952-1.426 5.952-1.745 5.952-3.437 5.952-1.327 5.952-.581 5.952-1.027 5.952 1.856 5.952-1.762 5.952-.712 5.952-1.748 5.952-1.363 5.952.674 5.952-1.881 5.952.294 5.952-2.689 5.952-.833 5.952.46 5.952 3.795 5.952-.168 5.952-.922 5.952-3.162 5.952 2.97 5.952-2.986 5.952 1.676 5.952.997 5.952 2.628 5.952 5.065 5.952 3.412 5.952 10.821 5.952-5.755 5.952 17.92 5.952-9.23 5.952 2.36 5.952 21.404 5.952 37.406 5.952 16.368 5.952-1.52 5.952-21.507 5.952-23.57 5.952-21.282 5.952-30.513 5.952-4.006 5.952.358 5.952-4.967 5.952 9.927 5.952 1.933 5.952-5.324 5.952 10.153 5.952.314 5.952 2.766 5.952-2.474 5.952-9.224 5.952 5.65 5.952-7.14 5.952.033 5.952-1.678 5.952-10.419 5.952 1.36 5.952-4.361 5.952-.44 5.952 1.43 5.952-1.563 5.952-.327 5.952-.58 5.952-.046 5.952 2.567 5.952.515 5.952-.386 5.952-2.277L770 25.708l5.952.075 5.952.333 5.952.54 11.904-.003 5.952-.356 5.952-.847 5.952 2.357 5.952-.128 5.952-1.351 5.952-.911 5.952-1.567 11.904-.09 11.904-.328 11.904-.043 23.808-.099 107.136-.016h0" fill="none" opacity=".4" stroke="#9467bd" stroke-dasharray="7.4,3.2" stroke-width="2" id="line2d_38"/><path clip-path="url(#pd19c0a095e)" d="M49.807 154.855l5.952-14.426 5.952-.35 5.952 2.202 5.952-1.956 5.952 2.162 11.904 1.688 5.952-.302 5.952.788 5.952 1.6 5.952 2.233 5.952 1.792 5.952 2.505 5.952.842 5.952-.076 5.952 5.284 5.952 4.116 5.952-.814 5.952-13.526 5.952 4.3 5.952-17.875 5.952-14.203 5.952-6.996 5.952.643 5.952 3.782 5.952.423 5.952-4.062 5.952-1.834 5.952 4.04 5.952-7.145 5.952-13.025 5.952-7.522 5.952 3.12 5.952-4.872 5.952-3.438 5.952 1.396 5.952 11.199 5.952 2.955 5.952-12.876 5.952-1.347 5.952-7.935 5.952-1.097 5.952-3.679 5.952-5.332 5.952 9.488 5.952 17.342 5.952-1.687 5.952-11.351 5.952-10.094 5.952-4.498 11.904-7.076 5.952-6.005 5.952-5.11 5.952-1.712 5.952-1.429 5.952.924 5.952-1.907 5.952-.808 5.952-2.098 5.952-1.55 5.952.324 5.952-2.013 5.952.32 5.952-2.578 5.952-.624 5.952.566 5.952 3.744 5.952.377 5.952-.382 5.952-2.209 5.952 4.023 5.952-2.225 5.952 4.116 5.952 2.555 5.952 4.54 5.952 7.588 5.952 6.705 5.952 21.747 5.952-3.207 5.952 24.81 5.952-13.538 5.952 1.51 5.952 23.333 5.952 39.79 5.952 14.224 5.952-7.547 5.952-24.958 5.952-25.68 5.952-22.167 5.952-38.12 5.952-5.703 5.952 1.5 5.952-8.826 5.952 12.949 5.952 2.224 5.952-6.893 5.952 14.274 5.952-3.111 5.952 4.365 5.952-4.08 5.952-12.376 5.952 9.868 5.952-8.876 5.952-.68 5.952-1.478 5.952-14.685 5.952 2.353 5.952-6.545 5.952-.895 5.952 1.876 5.952-2.507 5.952-.832 5.952-.519 5.952.05 5.952 3.134 5.952.164 5.952-.744 5.952-2.8 5.952.23 5.952-.244 5.952-.072 11.904.314 5.952-.238 11.904-.25 5.952-.637 5.952 2.34 5.952.113 5.952-1.221 5.952-.668 5.952-1.68 11.904-.064 11.904-.396 5.952-.076 11.904-.01 29.76-.058 95.232-.006h0" fill="none" opacity=".4" stroke="#1f77b4" stroke-dasharray="12.8,3.2,2,3.2" stroke-width="2" id="line2d_39"/><path clip-path="url(#pd19c0a095e)" d="M49.807 127.172l5.952-7.362 5.952-2.085 5.952-1.236 5.952-6.31 11.904-2.855 5.952-1.179 5.952-.686 5.952.939 5.952-.293 5.952 1.254 5.952.965 5.952 1.555 5.952-.555 5.952-1.494 5.952 2.822 5.952 1.288 5.952-2.62 5.952-8.742 5.952 2.012 5.952-16.775 5.952-12.174 5.952-5.423 5.952-1.36 5.952 2.317 5.952 3.772 5.952-1.501 5.952.674 5.952 9.758 5.952-.026 5.952-7.626 5.952-3.103 5.952.32 5.952-.804 5.952 2.273 5.952 2.982 5.952 10.403 5.952 3.365 5.952-9.916 5.952.598 5.952-7.274 5.952-1.118 5.952-2.71 5.952-1.624 5.952 9.932 5.952 17.265 5.952-1.119 5.952-10.886 5.952-4.02 5.952-3.48 5.952-6.296 5.952-3.673 5.952-6.267 5.952-2.514 5.952.836 5.952-1.55 5.952 3.343 5.952-2.815 5.952-1.283 5.952-1.952 5.952-2.092 5.952 1.682 5.952-3.034 5.952 1.002 5.952-4.245 5.952-1.778 5.952.55 5.952 7.17 5.952-1.041 5.952-.833 5.952-4.744 5.952 5.252 5.952-4.038 5.952 3.957 5.952 2.733 5.952 4.504 5.952 9.03 5.952 8.155 5.952 17.9 5.952-8.675 5.952 20.993 5.952-13.106 5.952 1.556 5.952 35.32 5.952 41.126 5.952 16.86 5.952-.195 5.952-20.808 5.952-25.055 5.952-23.762 5.952-41.002 5.952-6.636 5.952 4.799 5.952-7.352 5.952 26.375 5.952 4.02 5.952-15.758L633.103 102l5.952-5.282 5.952 6.914 5.952-4.724 5.952-20.073 5.952 11.75 5.952-15.72 5.952-2.575 5.952-3.453 5.952-25.506 5.952 4.15 5.952-11.085 5.952-1.013 5.952 5.013 5.952-5.576 5.952-1.476 5.952-2.536 5.952-.312 5.952 6.759 5.952-.269 5.952-2.032 5.952-5.69 5.952-.093 5.952-.335 5.952-.19 5.952.455 5.952.13 5.952-.19 5.952-.066 5.952-.412 5.952-1.558 5.952 2.67 5.952-.35 5.952-1.75 5.952-1.02 5.952-2.274 5.952.159 5.952-.116 11.904-.664 5.952-.175 5.952.074 11.904-.202 17.856-.066 89.28-.018h11.904" fill="none" opacity=".4" stroke="#ff7f0e" stroke-dasharray="12.8,3.2,2,3.2" stroke-width="2" id="line2d_40"/><path clip-path="url(#pd19c0a095e)" d="M49.807 110.855l5.952-9.211 5.952 3.651 5.952 3.399 5.952-1.36 5.952.791 5.952-.624 11.904-.362 5.952 2.548 5.952.227 5.952 1.596 5.952 1.31 5.952 1.858 5.952.216 5.952-.708 5.952 5.412 5.952 2.513 5.952-.999 5.952-3.998 5.952 5.356 5.952-17.867 5.952-13.781 5.952-6.103 5.952-1.571 11.904 3.178 5.952-4.531 5.952-2.388 5.952 3.041 5.952-2.828 5.952-8.845 5.952-4.084 5.952-2.263 5.952-7.598 5.952-.752 5.952.334 5.952 3.643 5.952-1.13 5.952-6.98 5.952 1.513 5.952-2.256 5.952 1.035 11.904.351 5.952 6.334 5.952 11.183 5.952-2.865 5.952-9.243 5.952-6.41 5.952-3.362 5.952-1.51 5.952-1.855 5.952-3.312 5.952-2.668 5.952-.546 5.952-.83 5.952 1.424 5.952-.97 5.952.283 5.952-.871 5.952-.757 5.952.713 5.952-1.33 5.952.655 5.952-2.187 5.952-.786 5.952.463 5.952 2.586 5.952-1.247 5.952-.57 5.952-2.245 5.952 1.878 5.952-2.219 5.952-.008 5.952.172 5.952.926 5.952 2.469 5.952 2.25 5.952 8.25 5.952-.956 5.952 15.007 5.952-5.345 5.952 3.553 5.952 20.209 5.952 33.438 5.952 17.126 5.952 5.505 5.952-17.852 5.952-18.544 5.952-18.925 5.952-31.74 5.952-4.847 5.952.887 5.952-4.647 5.952 11.268 5.952 2.18 5.952-5.682 5.952 10.511 5.952-2.046 5.952 3.89 5.952-3.143 5.952-10.198 5.952 5.713 5.952-7.116 5.952-.769 5.952-1.65 5.952-11.252 5.952 1.783 5.952-5.139 5.952-.622 5.952 1.452 5.952-1.709 5.952-.536 5.952-.767 5.952.105 5.952 2.676 5.952.693 5.952-.36 5.952-2.56 17.856-.427 11.904.406 17.856-.521 5.952-.664 5.952 1.671 5.952-.027 5.952-.981 5.952-.635 5.952-1.116 59.52-.4 107.136-.006h0" fill="none" opacity=".4" stroke="#2ca02c" stroke-dasharray="12.8,3.2,2,3.2" stroke-width="2" id="line2d_41"/><path clip-path="url(#pd19c0a095e)" d="M49.807 109.569l5.952-5.574 5.952 2.31 5.952.738 5.952-7.138 5.952-.114 5.952-1.679 5.952-.104 5.952-.846 5.952.516 5.952 1.567 5.952 2.441 5.952 1.808 5.952 1.943 5.952.098 5.952-.6 5.952 4.491 5.952 2.704 5.952-.536 5.952-8.825 5.952 3.619 5.952-15.735 5.952-11.524 5.952-5.288 5.952.031 5.952 2.672 5.952.798 5.952-3.029 5.952-.8 5.952 4.386 5.952-2.68 5.952-7.603 5.952-3.568 5.952 1.39 5.952-1.427 5.952-.652 5.952.836 5.952 6.762 5.952.947 5.952-10.811 5.952-1.003 5.952-4.931 5.952-.628 5.952-1.948 5.952-3.549 5.952 6.068 5.952 13.104 5.952.387 5.952-7.396 5.952-7.135 5.952-3.75 5.952-3.046 5.952-2.026 5.952-2.954 5.952-2.61 5.952-.803 5.952-1.338 5.952.893 5.952-1.393 5.952-.514 5.952-1.413 5.952-1.097 5.952.02 5.952-1.37 5.952.128 5.952-1.676 5.952-.518 5.952.317 5.952 2.016 5.952-.396 5.952-.207 5.952-1.483 5.952 1.951 5.952-1.51 5.952 1.002 5.952.69 5.952 1.726 5.952 2.901 5.952 2.176 5.952 9.673 5.952-.707 5.952 12.897 5.952-7.117 5.952 1.1 5.952 15.317 5.952 28.332 5.952 14.777 5.952-1.419 5.952-17.495 5.952-14.282 5.952-14.95 5.952-24.384 5.952-3.384 5.952 1.4 5.952-4.08 5.952 9.803 5.952 2.728 5.952-5.734 5.952 8.763 5.952-3.343 5.952 2.74 5.952-2.597 5.952-8.402 5.952 5.557 5.952-5.55 5.952-.516 5.952-1.407 5.952-8.642 5.952 1.181 5.952-3.935 5.952-.487 5.952.914 5.952-1.082 11.904-.733 5.952.069 5.952 1.741 5.952.468 5.952-.223 5.952-1.698 17.856-.153 5.952.206 5.952.384 17.856-.305 5.952-.545 5.952 1.913 5.952-.022 5.952-1.087 5.952-.617 5.952-1.152 11.904-.079 11.904-.24 17.856-.063 47.616-.034 77.376-.003h0" fill="none" opacity=".4" stroke="#d62728" stroke-dasharray="12.8,3.2,2,3.2" stroke-width="2" id="line2d_42"/><path clip-path="url(#pd19c0a095e)" d="M49.807 123.414l5.952-6.968 5.952 5.394 5.952 3.07 5.952-4.825 5.952-.311 5.952-1.708 5.952-.792 5.952-1.49 5.952-1.203 5.952.94 5.952 1.418 5.952.807 5.952.997 5.952-1.361 5.952-.633 5.952 4.958 5.952 3.309 5.952-.283 5.952-9.329 5.952 5.921 5.952-13.45 5.952-9.94 5.952-3.98 5.952 2.974 5.952 4.119 5.952.852 5.952-3.299 5.952-.294 5.952 7.682 5.952-1.942 5.952-8.782 5.952-3.906 5.952 1.703 5.952-3.887 5.952-.954 5.952.523 5.952 7.321 5.952-.568 5.952-16.392 5.952-.716 5.952-7.27 5.952-1.84 5.952-3.401 5.952-7.052 5.952 7.368 5.952 17.302 5.952 1.637 5.952-9.22 5.952-12.118 5.952-5.585 5.952-4.056 5.952-2.897 5.952-3.922 5.952-5.012 11.904-3.553 5.952.517 5.952-1.597 5.952-.728 5.952-1.538 5.952-.986 5.952-.017 5.952-1.32 5.952.286 5.952-1.578 5.952-.46 5.952.407 5.952 1.89 11.904-.543 5.952-1.69 5.952 1.988 5.952-1.661 5.952.715 5.952.295 5.952 1.433 5.952 2.487 5.952 1.66 5.952 8.629 5.952-.655 5.952 12.458 5.952-7.147 5.952.812 5.952 9.808 5.952 23.738L561.68 97.2l5.952-2.73 5.952-15.197 5.952-10.051 5.952-11.85 5.952-20.638 5.952-2.308 5.952 1.037 5.952-3.113 5.952 7.64 5.952 1.888 5.952-4.026 5.952 7.19 5.952-3.405 5.952 2.489 5.952-2.03 5.952-5.975 5.952 4.567 5.952-4.38 5.952-.034 5.952-1.102 5.952-7.186 5.952.956 5.952-3.255 5.952-.437 5.952.791 5.952-.893 11.904-.59 5.952.037 5.952 1.514 5.952.482 5.952-.113 5.952-1.496 5.952.045 5.952-.096 5.952.06 5.952.2 5.952.49 5.952-.169 11.904-.175 5.952-.548 5.952 2.13 5.952-.032 5.952-1.22 5.952-.672 5.952-1.3 29.76-.387 41.664-.034 95.232-.001h0" fill="none" opacity=".4" stroke="#9467bd" stroke-dasharray="12.8,3.2,2,3.2" stroke-width="2" id="line2d_43"/><path clip-path="url(#pd19c0a095e)" d="M49.807 98.184l5.952-7.545 5.952 3.006 5.952-1.226 5.952-7.587 5.952.756L85.52 83.9l5.952.742 5.952-.362 5.952 1.674 5.952 2.077 5.952 2.226 5.952 2.085 5.952 2.719 5.952 4.358 5.952 2.325 5.952 7.628 5.952 5.542 5.952 3.213 5.952.47 5.952 3.94 5.952-18.278 5.952-15.011 5.952-7.787 5.952-2.808 5.952 1.54 5.952-.672 5.952-3.533 5.952-2.151 5.952.886 5.952-3.954 5.952-7.553 5.952-4.26 5.952 1.488 5.952-3.537 5.952-2.503 5.952 1.19 5.952 5.453 5.952.252 5.952-7.658 5.952-1.102 5.952-2.695 5.952.146 5.952-1.416 5.952-1.974 5.952 5.584 5.952 10.502 5.952-.645 5.952-6.973 5.952-7.306L347.407 45l5.952-1.5 5.952-1.85 5.952-2.593 5.952-2.414 5.952-.852 5.952-.736 5.952.535 5.952-.797 5.952.015 5.952-1.163 5.952-.626 5.952-.103 5.952-.913 5.952.002 5.952-1.483 5.952-.312 5.952.396 5.952 1.476 5.952-.382 5.952-.497 5.952-1.354 5.952 1.081 5.952-1.43 5.952-.076 5.952-.296 5.952.366 5.952.633 5.952.197 5.952 2.47 5.952-.106 5.952 6.612 5.952-2.49 5.952 1.704 5.952 10.785 5.952 20.71 5.952 13.859 5.952.581 5.952-11.648 5.952-5.654 5.952-10.985 5.952-19.468 5.952-2.388 5.952.263 5.952-3.962 5.952 5.366L621.2 37.1l5.952-3.568 5.952 4.988 5.952-.702 5.952 1.182 5.952-1.759 5.952-4.319 5.952 3.79 5.952-3.204 5.952.391 5.952-.744 5.952-5.723 5.952.648 5.952-2.63 5.952-.34 5.952.795 5.952-.881 5.952-.372 5.952-.047 5.952.07 5.952 1.56 5.952.535 5.952-.14 5.952-1.716 5.952.005 5.952-.124 11.904.235 5.952.483 5.952-.189 5.952-.012 5.952-.24 5.952-.49 5.952 1.765 5.952-.07 5.952-.997 5.952-.536 5.952-1.046 17.856-.225 11.904-.143 11.904-.005 41.664-.048 83.328-.004h0" fill="none" stroke="#1f77b4" stroke-dasharray="2,3.3" stroke-width="2" id="line2d_44"/><path clip-path="url(#pd19c0a095e)" d="M49.807 239.168l5.952 1.77 5.952.57 5.952-.147 5.952-6.726 5.952-1.906 5.952.499 5.952 1.13 5.952.036 5.952-.606 5.952 3.637 5.952 3.29 5.952 2.075 5.952 1.244 5.952-2.698 5.952-2.029 5.952-2.267 5.952 3.952 5.952-1.582 5.952-14.65 5.952 3.149 5.952-8.907 5.952-10.167 5.952-6.445 5.952-3.34 5.952 1.822 5.952-2.533 5.952-6.299 5.952-4.394 5.952 3.678 5.952-4.832 5.952-14.83 5.952-13.868 5.952 4.475 5.952-2.967 5.952-1.124 5.952 3.016 5.952 11.648 5.952 1.852 5.952-17.577 5.952 4.769 5.952-11.284 11.904-6.853 5.952-15.516 5.952 19.237 5.952 31.619 5.952 4.725 5.952-12.478 5.952-16.974 5.952-9.33 5.952-8.562 5.952.255 5.952-1.223 5.952-5.644 5.952-2.16 5.952-2.883 5.952 4.156 5.952-2.039 5.952 1.093 5.952-6.138 5.952-4.432 5.952 3.165 5.952-8.943 5.952 1.908 5.952-8.972 5.952-3.205 5.952.387 5.952 11.456 5.952-6.716 5.952-6.44 5.952-7.267 5.952 5.939 5.952-11.09 5.952-7.668 5.952-7.077 5.952.426 5.952-2.89 5.952-3.447 5.952 5.51 5.952-2.365 5.952 9.558 5.952-7.78 5.952 4.628 5.952 15.169 5.952 37.972 5.952 17.74 11.904-12.402 5.952 3.259 5.952-15.886 5.952-45.194 5.952-2.232 5.952 10.084 5.952-9.788 5.952 26.659 5.952 3.537 5.952-14.414 5.952 23.21 5.952-14.411 5.952 2.35 5.952-7.894 5.952-17.178 5.952 17.435 5.952-14.361 5.952-.576 5.952 4.166 5.952-28.016 5.952 5.95 5.952-12.74 5.952-1.067 5.952 12.2 5.952-10.6 5.952-4.17 5.952-1.271 5.952 1.701 5.952 21.085 5.952-.029 5.952-4.191 5.952-17.311 5.952 4.814 11.904-1.644 5.952 2.377 5.952-.04 5.952-2.767 5.952-1.011 5.952-2.348 5.952-6.2 5.952 12.081 5.952-2.974 5.952-5.66 5.952-3.947 5.952-10.261 5.952.253 5.952-.633 5.952-1.854 5.952-.937 5.952-.637 5.952.27 11.904-.673 5.952-.201 113.088-.092h0" fill="none" opacity=".4" stroke="#ff7f0e" stroke-dasharray="2,3.3" stroke-width="2" id="line2d_45"/><path clip-path="url(#pd19c0a095e)" d="M49.89 295.074v-271.8" fill="none" stroke="#9467bd" stroke-linecap="square" stroke-width="3" id="line2d_46"/><path clip-path="url(#pd19c0a095e)" d="M521.09 295.074v-271.8" fill="none" stroke="#1f77b4" stroke-dasharray="3,4.95" stroke-width="3" id="line2d_47"/><path d="M49.807 295.074v-271.8" fill="none" stroke="#000" stroke-linecap="square" stroke-width="1.25" id="patch_3"/><path d="M942.607 295.074v-271.8" fill="none" stroke="#000" stroke-linecap="square" stroke-width="1.25" id="patch_4"/><path d="M49.807 295.074h892.8" fill="none" stroke="#000" stroke-linecap="square" stroke-width="1.25" id="patch_5"/><path d="M49.807 23.274h892.8" fill="none" stroke="#000" stroke-linecap="square" stroke-width="1.25" id="patch_6"/><g id="text_17"><defs><path d="M40.578 39.313Q47.656 37.797 51.625 33q3.984-4.781 3.984-11.813 0-10.78-7.422-16.703-7.421-5.906-21.093-5.906-4.578 0-9.438.906-4.86.907-10.031 2.72v9.515q4.094-2.39 8.969-3.61 4.89-1.218 10.218-1.218 9.266 0 14.125 3.656 4.86 3.656 4.86 10.64 0 6.454-4.516 10.079-4.515 3.64-12.562 3.64h-8.5v8.11h8.89q7.266 0 11.125 2.906 3.86 2.906 3.86 8.375 0 5.61-3.985 8.61-3.968 3.015-11.39 3.015-4.063 0-8.703-.89-4.641-.876-10.203-2.72v8.782q5.624 1.562 10.53 2.344 4.907.78 9.25.78 11.235 0 17.766-5.109 6.547-5.093 6.547-13.78 0-6.063-3.468-10.235-3.47-4.172-9.86-5.782z" id="DejaVuSans-33"/><path d="M48.688 27.297q0 9.906-4.079 15.547-4.078 5.64-11.203 5.64-7.14 0-11.218-5.64-4.079-5.64-4.079-15.547 0-9.906 4.078-15.547 4.079-5.64 11.22-5.64 7.124 0 11.202 5.64t4.078 15.547zM18.108 46.39q2.844 4.875 7.157 7.234Q29.594 56 35.594 56q9.968 0 16.187-7.906 6.235-7.907 6.235-20.797T51.78 6.484q-6.218-7.906-16.187-7.906-6 0-10.328 2.375-4.313 2.375-7.157 7.25V0H9.08v75.984h9.03z" id="DejaVuSans-62"/><path d="M30.61 48.39q-7.22 0-11.422-5.64-4.204-5.64-4.204-15.453 0-9.813 4.172-15.453 4.188-5.64 11.453-5.64 7.188 0 11.375 5.655 4.203 5.672 4.203 15.438 0 9.719-4.203 15.406-4.187 5.688-11.375 5.688zm0 7.61q11.718 0 18.406-7.625 6.703-7.61 6.703-21.078 0-13.422-6.703-21.078-6.688-7.64-18.407-7.64-11.765 0-18.437 7.64-6.656 7.656-6.656 21.078 0 13.469 6.656 21.078Q18.844 56 30.609 56z" id="DejaVuSans-6f"/><path d="M45.406 27.984q0 9.766-4.031 15.125-4.016 5.375-11.297 5.375-7.219 0-11.25-5.375-4.031-5.359-4.031-15.125 0-9.718 4.031-15.093t11.25-5.375q7.281 0 11.297 5.375 4.031 5.375 4.031 15.093zm8.985-21.203q0-13.953-6.203-20.765Q42-20.797 29.203-20.797q-4.734 0-8.937.703-4.203.703-8.157 2.172v8.735q3.954-2.141 7.813-3.157 3.86-1.031 7.86-1.031 8.843 0 13.234 4.61 4.39 4.609 4.39 13.937v4.453q-2.781-4.844-7.125-7.234Q33.938 0 27.875 0 17.828 0 11.672 7.656q-6.156 7.672-6.156 20.328 0 12.688 6.156 20.344Q17.828 56 27.875 56q6.063 0 10.406-2.39 4.344-2.391 7.125-7.22v8.297h8.985z" id="DejaVuSans-67"/></defs><g transform="matrix(.14 0 0 -.14 55.842 17.838)"><use xlink:href="#DejaVuSans-33"/><use x="63.623" xlink:href="#DejaVuSans-62"/><use x="127.1" xlink:href="#DejaVuSans-61"/><use x="188.379" xlink:href="#DejaVuSans-73"/><use x="240.479" xlink:href="#DejaVuSans-65"/><use x="302.002" xlink:href="#DejaVuSans-70"/><use x="365.479" xlink:href="#DejaVuSans-6f"/><use x="426.66" xlink:href="#DejaVuSans-6f"/><use x="487.842" xlink:href="#DejaVuSans-6c"/><use x="515.625" xlink:href="#DejaVuSans-6c"/><use x="543.408" xlink:href="#DejaVuSans-69"/><use x="571.191" xlink:href="#DejaVuSans-6e"/><use x="634.57" xlink:href="#DejaVuSans-67"/><use x="698.047" xlink:href="#DejaVuSans-73"/></g></g><g id="text_18"><defs><path d="M5.516 54.688h42.672v-8.204L14.406 7.172h33.782V0H4.297v8.203l33.797 39.313H5.516z" id="DejaVuSans-7a"/><path d="M2.984 54.688H12.5L29.594 8.797l17.093 45.89h9.516L35.687 0H23.485z" id="DejaVuSans-76"/><path d="M48.781 52.594v-8.407q-3.812 2.11-7.64 3.157-3.828 1.047-7.735 1.047-8.75 0-13.593-5.547-4.829-5.532-4.829-15.547 0-10.016 4.829-15.563 4.843-5.53 13.593-5.53 3.907 0 7.735 1.046 3.828 1.047 7.64 3.156V2.094Q45.016.344 40.984-.531q-4.015-.89-8.562-.89-12.36 0-19.64 7.765-7.266 7.765-7.266 20.953 0 13.375 7.343 21.031Q20.22 56 33.016 56q4.14 0 8.093-.86 3.953-.843 7.672-2.546z" id="DejaVuSans-63"/><path d="M41.11 46.297q-1.516.875-3.297 1.281Q36.03 48 33.89 48q-7.625 0-11.703-4.953-4.079-4.953-4.079-14.234V0H9.08v54.688h9.03v-8.5q2.844 4.984 7.375 7.39Q30.031 56 36.531 56q.922 0 2.047-.125 1.125-.11 2.484-.36z" id="DejaVuSans-72"/></defs><g transform="matrix(.14 0 0 -.14 527.042 17.838)"><use xlink:href="#DejaVuSans-7a"/><use x="52.49" xlink:href="#DejaVuSans-76"/><use x="111.67" xlink:href="#DejaVuSans-74"/><use x="150.879" xlink:href="#DejaVuSans-6d"/><use x="248.291" xlink:href="#DejaVuSans-61"/><use x="309.57" xlink:href="#DejaVuSans-63"/><use x="364.551" xlink:href="#DejaVuSans-72"/><use x="405.633" xlink:href="#DejaVuSans-6f"/></g></g><g id="legend_1"><path d="M957.035 299.76h133.427V21.979H957.035z" fill="#fff" opacity=".8" stroke="#ccc" id="patch_7"/><path d="M961.435 30.887h22" fill="none" opacity=".4" stroke="#1f77b4" stroke-linecap="square" stroke-width="2" id="line2d_48"/><g id="text_19"><defs><path d="M54.89 33.016V0h-8.984v32.719q0 7.765-3.031 11.61-3.031 3.858-9.078 3.858-7.281 0-11.484-4.64-4.204-4.625-4.204-12.64V0H9.08v75.984h9.03V46.188q3.235 4.937 7.594 7.374Q30.078 56 35.797 56q9.422 0 14.25-5.828 4.844-5.828 4.844-17.156z" id="DejaVuSans-68"/></defs><g transform="matrix(.11 0 0 -.11 992.235 34.737)"><use xlink:href="#DejaVuSans-31"/><use x="63.623" xlink:href="#DejaVuSans-30"/><use x="127.246" xlink:href="#DejaVuSans-68"/><use x="190.625" xlink:href="#DejaVuSans-61"/><use x="251.904" xlink:href="#DejaVuSans-74"/><use x="291.113" xlink:href="#DejaVuSans-63"/><use x="346.094" xlink:href="#DejaVuSans-68"/><use x="409.473" xlink:href="#DejaVuSans-6c"/><use x="437.256" xlink:href="#DejaVuSans-69"/><use x="465.039" xlink:href="#DejaVuSans-6e"/><use x="528.418" xlink:href="#DejaVuSans-67"/></g></g><path d="M961.435 47.033h22" fill="none" opacity=".4" stroke="#ff7f0e" stroke-linecap="square" stroke-width="2" id="line2d_50"/><g id="text_20"><defs><path d="M32.172-5.078q-3.797-9.766-7.422-12.735-3.61-2.984-9.656-2.984H7.906v7.516h5.282q3.703 0 5.75 1.765Q21-9.766 23.483-3.219l1.61 4.094-22.11 53.813H12.5l17.094-42.766 17.093 42.766h9.516z" id="DejaVuSans-79"/></defs><g transform="matrix(.11 0 0 -.11 992.235 50.883)"><use xlink:href="#DejaVuSans-31"/><use x="63.623" xlink:href="#DejaVuSans-32"/><use x="127.246" xlink:href="#DejaVuSans-68"/><use x="190.625" xlink:href="#DejaVuSans-61"/><use x="251.904" xlink:href="#DejaVuSans-74"/><use x="291.113" xlink:href="#DejaVuSans-63"/><use x="346.094" xlink:href="#DejaVuSans-68"/><use x="409.473" xlink:href="#DejaVuSans-68"/><use x="472.852" xlink:href="#DejaVuSans-79"/><use x="532.031" xlink:href="#DejaVuSans-64"/><use x="595.508" xlink:href="#DejaVuSans-72"/><use x="636.621" xlink:href="#DejaVuSans-61"/><use x="697.9" xlink:href="#DejaVuSans-73"/></g></g><path d="M961.435 63.179h22" fill="none" opacity=".4" stroke="#2ca02c" stroke-linecap="square" stroke-width="2" id="line2d_52"/><g transform="matrix(.11 0 0 -.11 992.235 67.029)" id="text_21"><use xlink:href="#DejaVuSans-31"/><use x="63.623" xlink:href="#DejaVuSans-32"/><use x="127.246" xlink:href="#DejaVuSans-70"/><use x="190.723" xlink:href="#DejaVuSans-6f"/><use x="251.904" xlink:href="#DejaVuSans-6f"/><use x="313.086" xlink:href="#DejaVuSans-6c"/><use x="340.869" xlink:href="#DejaVuSans-6d"/><use x="438.281" xlink:href="#DejaVuSans-75"/><use x="501.66" xlink:href="#DejaVuSans-74"/><use x="540.869" xlink:href="#DejaVuSans-61"/></g><path d="M961.435 79.325h22" fill="none" opacity=".4" stroke="#d62728" stroke-linecap="square" stroke-width="2" id="line2d_54"/><g transform="matrix(.11 0 0 -.11 992.235 83.175)" id="text_22"><use xlink:href="#DejaVuSans-32"/><use x="63.623" xlink:href="#DejaVuSans-68"/><use x="127.002" xlink:href="#DejaVuSans-61"/><use x="188.281" xlink:href="#DejaVuSans-74"/><use x="227.49" xlink:href="#DejaVuSans-63"/><use x="282.471" xlink:href="#DejaVuSans-68"/><use x="345.85" xlink:href="#DejaVuSans-6d"/><use x="443.262" xlink:href="#DejaVuSans-75"/><use x="506.641" xlink:href="#DejaVuSans-74"/><use x="545.85" xlink:href="#DejaVuSans-61"/></g><path d="M961.435 95.47h22" fill="none" stroke="#9467bd" stroke-linecap="square" stroke-width="2" id="line2d_56"/><g transform="matrix(.11 0 0 -.11 992.235 99.32)" id="text_23"><use xlink:href="#DejaVuSans-33"/><use x="63.623" xlink:href="#DejaVuSans-62"/><use x="127.1" xlink:href="#DejaVuSans-61"/><use x="188.379" xlink:href="#DejaVuSans-73"/><use x="240.479" xlink:href="#DejaVuSans-65"/><use x="302.002" xlink:href="#DejaVuSans-70"/><use x="365.479" xlink:href="#DejaVuSans-6f"/><use x="426.66" xlink:href="#DejaVuSans-6f"/><use x="487.842" xlink:href="#DejaVuSans-6c"/><use x="515.625" xlink:href="#DejaVuSans-6c"/><use x="543.408" xlink:href="#DejaVuSans-69"/><use x="571.191" xlink:href="#DejaVuSans-6e"/><use x="634.57" xlink:href="#DejaVuSans-67"/><use x="698.047" xlink:href="#DejaVuSans-73"/></g><path d="M961.435 111.617h22" fill="none" opacity=".4" stroke="#1f77b4" stroke-dasharray="7.4,3.2" stroke-width="2" id="line2d_58"/><g transform="matrix(.11 0 0 -.11 992.235 115.467)" id="text_24"><use xlink:href="#DejaVuSans-68"/><use x="63.379" xlink:href="#DejaVuSans-79"/><use x="122.559" xlink:href="#DejaVuSans-64"/><use x="186.035" xlink:href="#DejaVuSans-72"/><use x="227.148" xlink:href="#DejaVuSans-61"/><use x="288.428" xlink:href="#DejaVuSans-73"/></g><path d="M961.435 127.763h22" fill="none" opacity=".4" stroke="#ff7f0e" stroke-dasharray="7.4,3.2" stroke-width="2" id="line2d_60"/><g transform="matrix(.11 0 0 -.11 992.235 131.613)" id="text_25"><use xlink:href="#DejaVuSans-6d"/><use x="97.412" xlink:href="#DejaVuSans-69"/><use x="125.195" xlink:href="#DejaVuSans-64"/><use x="188.672" xlink:href="#DejaVuSans-6d"/><use x="286.084" xlink:href="#DejaVuSans-61"/><use x="347.363" xlink:href="#DejaVuSans-73"/><use x="399.463" xlink:href="#DejaVuSans-73"/><use x="451.563" xlink:href="#DejaVuSans-6c"/><use x="479.346" xlink:href="#DejaVuSans-69"/><use x="507.129" xlink:href="#DejaVuSans-6e"/><use x="570.508" xlink:href="#DejaVuSans-67"/></g><path d="M961.435 143.909h22" fill="none" opacity=".4" stroke="#2ca02c" stroke-dasharray="7.4,3.2" stroke-width="2" id="line2d_62"/><g transform="matrix(.11 0 0 -.11 992.235 147.759)" id="text_26"><use xlink:href="#DejaVuSans-75"/><use x="63.379" xlink:href="#DejaVuSans-6c"/><use x="91.162" xlink:href="#DejaVuSans-74"/><use x="130.371" xlink:href="#DejaVuSans-72"/><use x="171.484" xlink:href="#DejaVuSans-61"/><use x="232.764" xlink:href="#DejaVuSans-73"/></g><path d="M961.435 160.055h22" fill="none" opacity=".4" stroke="#d62728" stroke-dasharray="7.4,3.2" stroke-width="2" id="line2d_64"/><g id="text_27"><defs><path d="M10.984 1.516V10.5q3.72-1.766 7.516-2.688 3.813-.921 7.484-.921 9.766 0 14.907 6.562 5.156 6.563 5.89 19.953-2.828-4.203-7.187-6.453-4.344-2.25-9.61-2.25-10.937 0-17.312 6.61-6.375 6.625-6.375 18.109 0 11.219 6.64 18 6.641 6.797 17.672 6.797 12.657 0 19.313-9.703 6.672-9.688 6.672-28.141 0-17.234-8.188-27.516Q40.234-1.42 26.422-1.42q-3.719 0-7.531.734-3.797.734-7.907 2.203zM30.61 32.422q6.641 0 10.516 4.531 3.89 4.547 3.89 12.469 0 7.86-3.89 12.422-3.875 4.562-10.516 4.562-6.64 0-10.515-4.562-3.875-4.563-3.875-12.422 0-7.922 3.875-12.469 3.875-4.531 10.515-4.531z" id="DejaVuSans-39"/></defs><g transform="matrix(.11 0 0 -.11 992.235 163.905)"><use xlink:href="#DejaVuSans-7a"/><use x="52.49" xlink:href="#DejaVuSans-76"/><use x="111.67" xlink:href="#DejaVuSans-65"/><use x="173.193" xlink:href="#DejaVuSans-39"/><use x="236.816" xlink:href="#DejaVuSans-70"/><use x="300.293" xlink:href="#DejaVuSans-6f"/><use x="361.475" xlink:href="#DejaVuSans-6f"/><use x="422.656" xlink:href="#DejaVuSans-6c"/><use x="450.439" xlink:href="#DejaVuSans-73"/><use x="502.539" xlink:href="#DejaVuSans-70"/><use x="566.016" xlink:href="#DejaVuSans-65"/><use x="627.539" xlink:href="#DejaVuSans-65"/><use x="689.063" xlink:href="#DejaVuSans-64"/></g></g><path d="M961.435 176.2h22" fill="none" opacity=".4" stroke="#9467bd" stroke-dasharray="7.4,3.2" stroke-width="2" id="line2d_66"/><g transform="matrix(.11 0 0 -.11 992.235 180.05)" id="text_28"><use xlink:href="#DejaVuSans-7a"/><use x="52.49" xlink:href="#DejaVuSans-76"/><use x="111.67" xlink:href="#DejaVuSans-70"/><use x="175.146" xlink:href="#DejaVuSans-31"/><use x="238.77" xlink:href="#DejaVuSans-30"/><use x="302.393" xlink:href="#DejaVuSans-68"/><use x="365.771" xlink:href="#DejaVuSans-61"/><use x="427.051" xlink:href="#DejaVuSans-74"/><use x="466.26" xlink:href="#DejaVuSans-63"/><use x="521.24" xlink:href="#DejaVuSans-68"/></g><path d="M961.435 192.346h22" fill="none" opacity=".4" stroke="#1f77b4" stroke-dasharray="12.8,3.2,2,3.2" stroke-width="2" id="line2d_68"/><g transform="matrix(.11 0 0 -.11 992.235 196.196)" id="text_29"><use xlink:href="#DejaVuSans-7a"/><use x="52.49" xlink:href="#DejaVuSans-76"/><use x="111.67" xlink:href="#DejaVuSans-70"/><use x="175.146" xlink:href="#DejaVuSans-33"/><use x="238.77" xlink:href="#DejaVuSans-68"/><use x="302.148" xlink:href="#DejaVuSans-61"/><use x="363.428" xlink:href="#DejaVuSans-74"/><use x="402.637" xlink:href="#DejaVuSans-63"/><use x="457.617" xlink:href="#DejaVuSans-68"/><use x="520.996" xlink:href="#DejaVuSans-68"/><use x="584.375" xlink:href="#DejaVuSans-79"/><use x="643.555" xlink:href="#DejaVuSans-64"/><use x="707.031" xlink:href="#DejaVuSans-72"/><use x="748.145" xlink:href="#DejaVuSans-61"/></g><path d="M961.435 208.492h22" fill="none" opacity=".4" stroke="#ff7f0e" stroke-dasharray="12.8,3.2,2,3.2" stroke-width="2" id="line2d_70"/><g transform="matrix(.11 0 0 -.11 992.235 212.342)" id="text_30"><use xlink:href="#DejaVuSans-7a"/><use x="52.49" xlink:href="#DejaVuSans-76"/><use x="111.67" xlink:href="#DejaVuSans-70"/><use x="175.146" xlink:href="#DejaVuSans-36"/><use x="238.77" xlink:href="#DejaVuSans-68"/><use x="302.148" xlink:href="#DejaVuSans-61"/><use x="363.428" xlink:href="#DejaVuSans-74"/><use x="402.637" xlink:href="#DejaVuSans-63"/><use x="457.617" xlink:href="#DejaVuSans-68"/><use x="520.996" xlink:href="#DejaVuSans-68"/><use x="584.375" xlink:href="#DejaVuSans-79"/><use x="643.555" xlink:href="#DejaVuSans-64"/><use x="707.031" xlink:href="#DejaVuSans-72"/><use x="748.145" xlink:href="#DejaVuSans-61"/></g><path d="M961.435 224.638h22" fill="none" opacity=".4" stroke="#2ca02c" stroke-dasharray="12.8,3.2,2,3.2" stroke-width="2" id="line2d_72"/><g transform="matrix(.11 0 0 -.11 992.235 228.488)" id="text_31"><use xlink:href="#DejaVuSans-7a"/><use x="52.49" xlink:href="#DejaVuSans-76"/><use x="111.67" xlink:href="#DejaVuSans-70"/><use x="175.146" xlink:href="#DejaVuSans-6d"/><use x="272.559" xlink:href="#DejaVuSans-75"/><use x="335.938" xlink:href="#DejaVuSans-74"/><use x="375.146" xlink:href="#DejaVuSans-61"/><use x="436.426" xlink:href="#DejaVuSans-73"/></g><path d="M961.435 240.784h22" fill="none" opacity=".4" stroke="#d62728" stroke-dasharray="12.8,3.2,2,3.2" stroke-width="2" id="line2d_74"/><g transform="matrix(.11 0 0 -.11 992.235 244.634)" id="text_32"><use xlink:href="#DejaVuSans-7a"/><use x="52.49" xlink:href="#DejaVuSans-76"/><use x="111.67" xlink:href="#DejaVuSans-70"/><use x="175.146" xlink:href="#DejaVuSans-6f"/><use x="236.328" xlink:href="#DejaVuSans-68"/><use x="299.707" xlink:href="#DejaVuSans-79"/><use x="358.887" xlink:href="#DejaVuSans-64"/><use x="422.363" xlink:href="#DejaVuSans-72"/><use x="463.477" xlink:href="#DejaVuSans-61"/><use x="524.756" xlink:href="#DejaVuSans-73"/></g><path d="M961.435 256.93h22" fill="none" opacity=".4" stroke="#9467bd" stroke-dasharray="12.8,3.2,2,3.2" stroke-width="2" id="line2d_76"/><g transform="matrix(.11 0 0 -.11 992.235 260.78)" id="text_33"><use xlink:href="#DejaVuSans-7a"/><use x="52.49" xlink:href="#DejaVuSans-76"/><use x="111.67" xlink:href="#DejaVuSans-70"/><use x="175.146" xlink:href="#DejaVuSans-6f"/><use x="236.328" xlink:href="#DejaVuSans-6d"/><use x="333.74" xlink:href="#DejaVuSans-75"/><use x="397.119" xlink:href="#DejaVuSans-74"/><use x="436.328" xlink:href="#DejaVuSans-61"/><use x="497.607" xlink:href="#DejaVuSans-73"/></g><path d="M961.435 273.076h22" fill="none" stroke="#1f77b4" stroke-dasharray="2,3.3" stroke-width="2" id="line2d_78"/><g transform="matrix(.11 0 0 -.11 992.235 276.926)" id="text_34"><use xlink:href="#DejaVuSans-7a"/><use x="52.49" xlink:href="#DejaVuSans-76"/><use x="111.67" xlink:href="#DejaVuSans-74"/><use x="150.879" xlink:href="#DejaVuSans-6d"/><use x="248.291" xlink:href="#DejaVuSans-61"/><use x="309.57" xlink:href="#DejaVuSans-63"/><use x="364.551" xlink:href="#DejaVuSans-72"/><use x="405.633" xlink:href="#DejaVuSans-6f"/></g><path d="M961.435 289.222h22" fill="none" opacity=".4" stroke="#ff7f0e" stroke-dasharray="2,3.3" stroke-width="2" id="line2d_80"/><g id="text_35"><defs><path d="M9.078 75.984h9.031V31.11l26.813 23.578H56.39l-29-25.578L57.625 0H45.906L18.11 26.703V0H9.08z" id="DejaVuSans-6b"/></defs><g transform="matrix(.11 0 0 -.11 992.235 293.072)"><use xlink:href="#DejaVuSans-7a"/><use x="52.49" xlink:href="#DejaVuSans-76"/><use x="111.67" xlink:href="#DejaVuSans-74"/><use x="150.879" xlink:href="#DejaVuSans-70"/><use x="214.355" xlink:href="#DejaVuSans-31"/><use x="277.979" xlink:href="#DejaVuSans-68"/><use x="341.357" xlink:href="#DejaVuSans-61"/><use x="402.637" xlink:href="#DejaVuSans-74"/><use x="441.846" xlink:href="#DejaVuSans-63"/><use x="496.826" xlink:href="#DejaVuSans-68"/><use x="560.205" xlink:href="#DejaVuSans-6c"/><use x="587.988" xlink:href="#DejaVuSans-75"/><use x="651.367" xlink:href="#DejaVuSans-72"/><use x="692.48" xlink:href="#DejaVuSans-6b"/><use x="750.344" xlink:href="#DejaVuSans-65"/><use x="811.867" xlink:href="#DejaVuSans-72"/></g></g></g></g></g><defs><clipPath id="pd19c0a095e"><path d="M49.807 23.274h892.8v271.8h-892.8z"/></clipPath></defs></svg>