<?xml version="1.0" encoding="iso-8859-1"?>
<!-- Generator: Adobe Illustrator 19.0.0, SVG Export Plug-In . SVG Version: 6.00 Build 0)  -->
<svg version="1.1" id="Layer_1" xmlns="http://www.w3.org/2000/svg" xmlns:xlink="http://www.w3.org/1999/xlink" x="0px" y="0px"
	 viewBox="0 0 496.159 496.159" style="enable-background:new 0 0 496.159 496.159;" xml:space="preserve">
<path style="fill:#FABC3D;" d="M248.074,0c137.022,0,248.082,111.07,248.082,248.076c0,137.012-111.06,248.083-248.082,248.083
	c-137.001,0-248.07-111.07-248.07-248.083C0.004,111.07,111.073,0,248.074,0z"/>
<g>
	<path style="fill:#FFFFFF;" d="M259.22,133.838l91.813,108.867c2.506,4.082,2.615,9.454,0.275,13.633
		c-2.38,4.254-6.888,6.896-11.763,6.896h-182.9c-4.866,0-9.369-2.633-11.753-6.877c-1.13-2.01-1.727-4.293-1.727-6.602
		c0-2.475,0.681-4.901,1.968-7.012l91.089-108.865c2.424-3.98,6.826-6.459,11.487-6.467
		C252.37,127.403,256.783,129.867,259.22,133.838z"/>
	<path style="fill:#FFFFFF;" d="M357.102,296.653v51.508c0,4.74-3.844,8.584-8.584,8.584H147.642c-4.74,0-8.584-3.844-8.584-8.584
		v-51.508c0-4.74,3.844-8.582,8.584-8.582h200.877C353.258,288.071,357.102,291.912,357.102,296.653z"/>
</g>
<g>
</g>
<g>
</g>
<g>
</g>
<g>
</g>
<g>
</g>
<g>
</g>
<g>
</g>
<g>
</g>
<g>
</g>
<g>
</g>
<g>
</g>
<g>
</g>
<g>
</g>
<g>
</g>
<g>
</g>
</svg>
