<?xml version="1.0" encoding="iso-8859-1"?>
<!-- Generator: Adobe Illustrator 19.0.0, SVG Export Plug-In . SVG Version: 6.00 Build 0)  -->
<svg version="1.1" id="Layer_1" xmlns="http://www.w3.org/2000/svg" xmlns:xlink="http://www.w3.org/1999/xlink" x="0px" y="0px"
	 viewBox="0 0 496.158 496.158" style="enable-background:new 0 0 496.158 496.158;" xml:space="preserve">
<path style="fill:#FABC3D;" d="M248.085,496.158c-137.022,0-248.082-111.07-248.082-248.076C0.003,111.07,111.063,0,248.085,0
	c137.001,0,248.07,111.07,248.07,248.082C496.155,385.088,385.086,496.158,248.085,496.158z"/>
<g>
	<path style="fill:#FFFFFF;" d="M236.938,362.318l-91.813-108.867c-2.506-4.082-2.615-9.453-0.275-13.633
		c2.38-4.254,6.888-6.896,11.763-6.896h182.9c4.866,0,9.369,2.633,11.753,6.877c1.13,2.01,1.727,4.293,1.727,6.602
		c0,2.475-0.681,4.9-1.968,7.012l-91.089,108.865c-2.424,3.98-6.826,6.459-11.487,6.467S239.376,366.289,236.938,362.318z"/>
	<path style="fill:#FFFFFF;" d="M139.057,199.506v-51.508c0-4.74,3.844-8.584,8.584-8.584h200.877c4.74,0,8.584,3.844,8.584,8.584
		v51.508c0,4.74-3.844,8.582-8.584,8.582H147.641C142.9,208.088,139.057,204.246,139.057,199.506z"/>
</g>
<g>
</g>
<g>
</g>
<g>
</g>
<g>
</g>
<g>
</g>
<g>
</g>
<g>
</g>
<g>
</g>
<g>
</g>
<g>
</g>
<g>
</g>
<g>
</g>
<g>
</g>
<g>
</g>
<g>
</g>
</svg>
